<svg version="1.1" id="Layer_1" xmlns="http://www.w3.org/2000/svg" xmlns:xlink="http://www.w3.org/1999/xlink" x="0" y="0" viewBox="0 0 154.2 166.5" style="enable-background:new 0 0 154.2 166.5" xml:space="preserve"><style>.st0{display:none}.st1{display:inline;fill:none}.st2{fill:#ebebeb}.st2,.st3{display:inline}.st4{fill:#d8d8d8}.st5{fill:#858585}.st13{fill:#b0b0b0}.st14{fill:#706f6f}.st36{display:none}.st36,.st37{fill:#ebebeb}.st66{fill:#1d1d1b}.st67{fill:#575756}.st75{fill:#f4f4f4}.st76{display:inline;fill:#575756}.st98{fill:#3c3c3b}.st113,.st114,.st122{display:inline;fill:#1d1d1b}.st114,.st122{fill:#858585}.st122{fill:#b0b0b0}.st165,.st173,.st223{display:inline;fill:#2eb0ff}.st173,.st223{fill:#ff462e}.st223{fill:#ff3d45}.st245{fill:#88c4e7;fill-opacity:0}.st246{opacity:4.550000e-02;fill:#84c3e8;enable-background:new}.st247,.st248,.st249,.st250{opacity:9.090000e-02;fill:#80c2e9;enable-background:new}.st248,.st249,.st250{opacity:.1364;fill:#7cc1ea}.st249,.st250{opacity:.1818;fill:#78c0eb}.st250{opacity:.2273;fill:#74bfec}.st251,.st252,.st253,.st254{opacity:.2727;fill:#6fbfee;enable-background:new}.st252,.st253,.st254{opacity:.3182;fill:#6bbeef}.st253,.st254{opacity:.3636;fill:#67bdf0}.st254{opacity:.4091;fill:#63bcf1}.st255,.st256,.st257,.st258{opacity:.4545;fill:#5fbbf2;enable-background:new}.st256,.st257,.st258{opacity:.5;fill:#5bbaf3}.st257,.st258{opacity:.5455;fill:#57b9f4}.st258{opacity:.5909;fill:#53b8f5}.st259,.st260,.st261,.st262{opacity:.6364;fill:#4fb7f6;enable-background:new}.st260,.st261,.st262{opacity:.6818;fill:#4bb6f7}.st261,.st262{opacity:.7273;fill:#47b5f8}.st262{opacity:.7727;fill:#42b5fa}.st263,.st264,.st265,.st266{opacity:.8182;fill:#3eb4fb;enable-background:new}.st264,.st265,.st266{opacity:.8636;fill:#3ab3fc}.st265,.st266{opacity:.9091;fill:#36b2fd}.st266{opacity:.9545;fill:#32b1fe}.st267{fill:#2eb0ff}.st268{display:inline;opacity:.3}.st269{fill:#b9e4ff}.st270{fill:#fb8589;fill-opacity:0}.st271{opacity:4.550000e-02;fill:#fb878b;enable-background:new}.st272,.st273,.st274,.st275{opacity:9.090000e-02;fill:#fb888c;enable-background:new}.st273,.st274,.st275{opacity:.1364;fill:#fc8a8e}.st274,.st275{opacity:.1818;fill:#fc8c8f}.st275{opacity:.2273;fill:#fc8d91}.st276,.st277,.st278,.st279{opacity:.2727;fill:#fc8f93;enable-background:new}.st277,.st278,.st279{opacity:.3182;fill:#fc9194}.st278,.st279{opacity:.3636;fill:#fc9296}.st279{opacity:.4091;fill:#fd9497}.st280,.st281,.st282,.st283{opacity:.4545;fill:#fd9699;enable-background:new}.st281,.st282,.st283{opacity:.5;fill:#fd989b}.st282,.st283{opacity:.5455;fill:#fd999c}.st283{opacity:.5909;fill:#fd9b9e}.st284,.st285,.st286,.st287{opacity:.6364;fill:#fe9d9f;enable-background:new}.st285,.st286,.st287{opacity:.6818;fill:#fe9ea1}.st286,.st287{opacity:.7273;fill:#fea0a2}.st287{opacity:.7727;fill:#fea2a4}.st288,.st289,.st290,.st291{opacity:.8182;fill:#fea3a6;enable-background:new}.st289,.st290,.st291{opacity:.8636;fill:#fea5a7}.st290,.st291{opacity:.9091;fill:#ffa7a9}.st291{opacity:.9545;fill:#ffa8aa}.st292{fill:#ffaaac}.st293{fill:#ff1f25}.st294,.st295{opacity:4.550000e-02;fill:#8ac5e8;enable-background:new}.st295{opacity:9.090000e-02;fill:#8cc7e9}.st296,.st297,.st298,.st299{opacity:.1364;fill:#8fc8ea;enable-background:new}.st297,.st298,.st299{opacity:.1818;fill:#91caeb}.st298,.st299{opacity:.2273;fill:#93cbec}.st299{opacity:.2727;fill:#95cdee}.st300,.st301,.st302,.st303{opacity:.3182;fill:#98ceef;enable-background:new}.st301,.st302,.st303{opacity:.3636;fill:#9ad0f0}.st302,.st303{opacity:.4091;fill:#9cd1f1}.st303{opacity:.4545;fill:#9ed3f2}.st304,.st305,.st306,.st307{opacity:.5;fill:#a1d4f3;enable-background:new}.st305,.st306,.st307{opacity:.5455;fill:#a3d5f4}.st306,.st307{opacity:.5909;fill:#a5d7f5}.st307{opacity:.6364;fill:#a7d8f6}.st308,.st309,.st310,.st311{opacity:.6818;fill:#a9daf7;enable-background:new}.st309,.st310,.st311{opacity:.7273;fill:#acdbf8}.st310,.st311{opacity:.7727;fill:#aeddfa}.st311{opacity:.8182;fill:#b0defb}.st312,.st313,.st314,.st315{opacity:.8636;fill:#b2e0fc;enable-background:new}.st313,.st314,.st315{opacity:.9091;fill:#b5e1fd}.st314,.st315{opacity:.9545;fill:#b7e3fe}.st315{opacity:4.550000e-02;fill:#fb8084}.st316,.st317,.st318,.st319{opacity:9.090000e-02;fill:#fb7c80;enable-background:new}.st317,.st318,.st319{opacity:.1364;fill:#fc777b}.st318,.st319{opacity:.1818;fill:#fc7277}.st319{opacity:.2273;fill:#fc6e72}.st320,.st321,.st322,.st323{opacity:.2727;fill:#fc696e;enable-background:new}.st321,.st322,.st323{opacity:.3182;fill:#fc6569}.st322,.st323{opacity:.3636;fill:#fc6065}.st323{opacity:.4091;fill:#fd5b60}.st324,.st325,.st326,.st327{opacity:.4545;fill:#fd575c;enable-background:new}.st325,.st326,.st327{opacity:.5;fill:#fd5257}.st326,.st327{opacity:.5455;fill:#fd4d52}.st327{opacity:.5909;fill:#fd494e}.st328,.st329,.st330,.st331{opacity:.6364;fill:#fe4449;enable-background:new}.st329,.st330,.st331{opacity:.6818;fill:#fe3f45}.st330,.st331{opacity:.7273;fill:#fe3b40}.st331{opacity:.7727;fill:#fe363c}.st332,.st333,.st334,.st335{opacity:.8182;fill:#fe3237;enable-background:new}.st333,.st334,.st335{opacity:.8636;fill:#fe2d33}.st334,.st335{opacity:.9091;fill:#ff282e}.st335{opacity:.9545;fill:#ff242a}.st350{fill:#212121}.st351{fill:#3a3a3a}.st354{fill:#231f20}.st395{fill:#fff}.st396{opacity:.4}.st402{display:inline;fill:#d8d8d8}.st942{fill:none}.st948{fill:#2d003e}.st977{opacity:.8}</style><g id="Layer_18"><path class="st66" d="M94.6 153.9c-26.8 0-48.6-22.8-48.6-50.8s21.8-50.8 48.6-50.8 48.6 22.8 48.6 50.8c0 28-21.8 50.8-48.6 50.8zm0-99.5C68.9 54.4 48 76.2 48 103.1s20.9 48.7 46.6 48.7 46.6-21.8 46.6-48.7-20.9-48.7-46.6-48.7z"/><path class="st350" d="M94.6 155.4c-27.6 0-50-23.5-50-52.3s22.4-52.3 50-52.3 50 23.5 50 52.3-22.4 52.3-50 52.3zm0-102.5c-26.4 0-47.9 22.5-47.9 50.1s21.5 50.1 47.9 50.1 47.9-22.5 47.9-50.1-21.4-50.1-47.9-50.1z"/><path class="st351" d="M141.4 103.1c0 27-21 48.9-46.8 48.9-25.9 0-46.8-21.9-46.8-48.9s20.9-48.9 46.8-48.9c25.9-.1 46.8 21.8 46.8 48.9z"/><path d="M141.2 103.4c-2.4 0-4.4-2.1-4.4-4.6 0-2.3 1.6-4.2 3.8-4.5-.4-2.1-.9-4.1-1.5-6.1-.5.2-1 .3-1.5.3-2.4 0-4.4-2.1-4.4-4.6 0-1.8 1-3.4 2.5-4.1-.9-1.7-1.9-3.4-3-5-.7.6-1.7 1-2.7 1-2.4 0-4.4-2.1-4.4-4.6 0-1.3.5-2.5 1.4-3.3-1.4-1.4-2.8-2.7-4.3-3.8-.8 1.2-2.1 2-3.6 2-2.4 0-4.4-2.1-4.4-4.6 0-.8.2-1.6.5-2.2-1.8-.9-3.6-1.7-5.4-2.4-.5 1.9-2.2 3.3-4.2 3.3-2.4 0-4.4-2.1-4.4-4.6 0-.3 0-.6.1-.9-2.1-.3-4.3-.5-6.4-.5v.2c0 2.5-2 4.6-4.4 4.6-2.2 0-4.1-1.7-4.3-4-2 .4-4 .9-5.9 1.5.2.5.3 1 .3 1.6 0 2.5-2 4.6-4.4 4.6-1.7 0-3.2-1.1-3.9-2.6-1.7.9-3.3 2-4.8 3.2.5.7.9 1.7.9 2.7 0 2.5-2 4.6-4.4 4.6-1.2 0-2.4-.6-3.2-1.4-1.3 1.4-2.5 2.9-3.6 4.5 1.2.8 1.9 2.2 1.9 3.8 0 2.5-2 4.6-4.4 4.6-.8 0-1.5-.2-2.1-.6-.9 1.8-1.6 3.7-2.2 5.6 1.8.6 3.1 2.3 3.1 4.4 0 2.5-2 4.6-4.4 4.6-.3 0-.6 0-.8-.1-.3 2.2-.5 4.4-.5 6.7h.2c2.4 0 4.4 2.1 4.4 4.6 0 2.3-1.6 4.2-3.8 4.5.4 2.1.9 4.2 1.5 6.2.5-.2 1-.3 1.5-.3 2.4 0 4.4 2.1 4.4 4.6 0 1.8-1 3.4-2.5 4.1.9 1.7 1.9 3.4 3 5 .7-.6 1.7-1 2.7-1 2.4 0 4.4 2.1 4.4 4.6 0 1.3-.5 2.5-1.4 3.3 1.4 1.4 2.8 2.6 4.3 3.8.8-1.2 2.1-2 3.6-2 2.4 0 4.4 2 4.4 4.6 0 .8-.2 1.6-.5 2.2 1.7.9 3.5 1.7 5.4 2.3.5-1.9 2.2-3.3 4.2-3.3 2.4 0 4.4 2 4.4 4.6 0 .3 0 .6-.1.9 2.1.3 4.2.5 6.4.5v-.2c0-2.5 2-4.6 4.4-4.6 2.2 0 4.1 1.7 4.3 4 2-.4 4-.9 5.9-1.5-.2-.5-.3-1-.3-1.6 0-2.5 2-4.6 4.4-4.6 1.7 0 3.2 1.1 3.9 2.6 1.7-1 3.3-2 4.8-3.2-.6-.8-.9-1.8-.9-2.8 0-2.5 2-4.6 4.4-4.6 1.2 0 2.4.5 3.2 1.4 1.3-1.4 2.5-2.9 3.6-4.5-1.2-.8-1.9-2.2-1.9-3.8 0-2.5 2-4.6 4.4-4.6.8 0 1.5.2 2.1.6.9-1.8 1.6-3.7 2.2-5.6-1.8-.6-3.1-2.3-3.1-4.4 0-2.5 2-4.6 4.4-4.6.3 0 .5 0 .8.1.3-2.2.5-4.4.5-6.7 0 .1-.1.1-.2.1z" style="fill:#2d2d2d"/><path class="st351" d="M141.2 104.8c-2.4-.1-4.3-2.2-4.2-4.7.1-2.3 1.8-4.2 3.9-4.4-.3-2.1-.7-4.2-1.3-6.2-.5.2-1 .3-1.5.2-2.4-.1-4.3-2.2-4.3-4.7.1-1.8 1.1-3.4 2.6-4-.9-1.8-1.8-3.5-2.9-5.1-.8.6-1.7.9-2.7.9-2.4-.1-4.3-2.2-4.3-4.7 0-1.3.6-2.5 1.4-3.3-1.3-1.4-2.7-2.7-4.2-4-.8 1.2-2.2 1.9-3.7 1.9-2.4-.1-4.3-2.2-4.3-4.7 0-.8.2-1.6.6-2.2-1.7-.9-3.5-1.8-5.4-2.5-.6 1.9-2.3 3.2-4.3 3.1-2.4-.1-4.3-2.2-4.3-4.7 0-.3 0-.6.1-.9-2.1-.4-4.2-.6-6.4-.7v.2c-.1 2.5-2.1 4.5-4.5 4.4-2.2-.1-4-1.9-4.2-4.1-2 .3-4 .8-5.9 1.4.2.5.2 1 .2 1.6-.1 2.5-2.1 4.5-4.5 4.4-1.7-.1-3.2-1.1-3.9-2.7-1.7.9-3.3 1.9-4.9 3 .6.8.9 1.8.9 2.9-.1 2.5-2.1 4.5-4.5 4.4-1.2 0-2.4-.6-3.1-1.5-1.3 1.4-2.6 2.8-3.8 4.4 1.1.9 1.9 2.3 1.8 3.8-.1 2.5-2.1 4.5-4.5 4.4-.8 0-1.5-.2-2.1-.6-.9 1.8-1.7 3.7-2.4 5.6 1.8.6 3.1 2.4 3 4.5-.1 2.5-2.1 4.5-4.5 4.4-.3 0-.6-.1-.8-.1-.4 2.2-.6 4.4-.7 6.7h.2c2.4.1 4.3 2.2 4.3 4.7-.1 2.3-1.8 4.2-3.9 4.4.3 2.1.7 4.2 1.3 6.2.5-.2 1-.3 1.5-.2 2.4.1 4.3 2.2 4.3 4.7-.1 1.8-1.1 3.3-2.6 4 .9 1.8 1.8 3.5 2.9 5.1.8-.6 1.7-.9 2.7-.9 2.4.1 4.3 2.2 4.3 4.7 0 1.3-.6 2.5-1.4 3.3 1.3 1.4 2.7 2.7 4.2 3.9.8-1.2 2.2-1.9 3.7-1.9 2.4.1 4.3 2.2 4.3 4.7 0 .8-.2 1.5-.6 2.2 1.7.9 3.5 1.8 5.3 2.5.6-1.9 2.3-3.2 4.3-3.2 2.4.1 4.3 2.2 4.2 4.7 0 .3 0 .6-.1.9 2.1.4 4.2.6 6.4.7v-.2c.1-2.5 2.1-4.5 4.5-4.5 2.2.1 4 1.9 4.2 4.1 2-.3 4-.8 5.9-1.4-.2-.5-.2-1-.2-1.6.1-2.5 2.1-4.5 4.5-4.5 1.7.1 3.2 1.1 3.9 2.7 1.7-.9 3.3-1.9 4.9-3-.6-.8-.9-1.8-.9-2.9.1-2.5 2.1-4.5 4.5-4.4 1.2 0 2.4.6 3.1 1.5 1.3-1.4 2.6-2.8 3.8-4.4-1.1-.9-1.9-2.3-1.8-3.8.1-2.5 2.1-4.5 4.5-4.5.8 0 1.5.2 2.1.6.9-1.8 1.7-3.6 2.4-5.6-1.8-.6-3.1-2.4-3-4.5.1-2.5 2.1-4.5 4.5-4.4.3 0 .5.1.8.1.4-2.2.6-4.4.7-6.7 0 .5 0 .5-.1.5z"/><path class="st350" d="M93.4 150.9c-1.5 0-2.9-.2-4.4-.3 0-3.1-2.4-5.6-5.4-5.6-2 0-3.8 1.2-4.8 3l-3.6-1.5c.2-.6.2-1.1.2-1.7 0-3.1-2.4-5.6-5.4-5.6-1.4 0-2.8.6-3.8 1.6-.9-.8-1.9-1.6-2.8-2.5.6-.9 1-2.1 1-3.2 0-3.1-2.4-5.6-5.4-5.6-.9 0-1.7.2-2.4.6-.7-1.1-1.4-2.2-2-3.3 1.3-1.1 2.1-2.7 2.1-4.5 0-3.1-2.4-5.6-5.4-5.6-.3 0-.6 0-.9.1-.4-1.4-.7-2.7-1-4.1 2.1-.8 3.6-2.9 3.6-5.3 0-2.8-2-5.1-4.5-5.6 0-1.5.1-3.1.3-4.6 2.9 0 5.3-2.5 5.3-5.6 0-2.1-1.1-4-2.9-5 .4-1.3.9-2.5 1.5-3.7.5.2 1.1.3 1.6.3 3 0 5.4-2.5 5.4-5.6 0-1.5-.6-2.9-1.5-3.9.7-1 1.5-1.9 2.4-2.9.9.7 2 1 3.1 1 3 0 5.4-2.5 5.4-5.6 0-.9-.2-1.8-.6-2.5 1-.8 2.1-1.4 3.1-2.1 1 1.4 2.6 2.2 4.3 2.2 3 0 5.4-2.5 5.4-5.6 0-.3 0-.6-.1-.9 1.3-.4 2.6-.8 4-1 .7 2.2 2.8 3.8 5.1 3.8 2.7 0 4.9-2.1 5.3-4.7 1.5 0 3 .2 4.4.3 0 3.1 2.4 5.6 5.4 5.6 2 0 3.8-1.2 4.8-3 1.2.5 2.4 1 3.6 1.6-.2.6-.2 1.1-.2 1.7 0 3.1 2.4 5.6 5.4 5.6 1.4 0 2.8-.6 3.8-1.6.9.8 1.9 1.6 2.8 2.5-.6.9-1 2.1-1 3.2 0 3.1 2.4 5.6 5.4 5.6.9 0 1.7-.2 2.4-.6.7 1.1 1.4 2.2 1.9 3.2-1.3 1.1-2.1 2.7-2.1 4.5 0 3.1 2.4 5.6 5.4 5.6.3 0 .6 0 .9-.1.4 1.3.7 2.7 1 4.1-2.1.8-3.6 2.9-3.6 5.3 0 2.8 2 5.1 4.5 5.6 0 1.5-.1 3.1-.3 4.6-2.9 0-5.3 2.5-5.3 5.6 0 2.1 1.1 4 2.9 5-.4 1.3-.9 2.5-1.5 3.7-.5-.2-1.1-.3-1.6-.3-3 0-5.4 2.5-5.4 5.6 0 1.5.6 2.9 1.5 3.9-.7 1-1.5 1.9-2.4 2.9-.9-.7-2-1-3.1-1-3 0-5.4 2.5-5.4 5.6 0 .9.2 1.8.6 2.5-1 .7-2.1 1.4-3.1 2.1-1-1.4-2.6-2.2-4.3-2.2-3 0-5.4 2.5-5.4 5.6 0 .3 0 .6.1.9-1.3.4-2.6.7-4 1-.7-2.2-2.8-3.8-5.1-3.8-2.6 0-4.8 2-5.2 4.7z"/><g><path d="M94.6 57.9c-23.6 0-42.8 20-42.8 44.7 0 24.7 19.1 44.7 42.8 44.7s42.8-20 42.8-44.7-19.2-44.7-42.8-44.7" style="fill:#161616"/><path d="M94.6 147.6c-23.7 0-43-20.2-43-45s19.3-45 43-45 43 20.2 43 45-19.3 45-43 45zm0-89.4c-23.5 0-42.6 20-42.6 44.5s19.1 44.5 42.6 44.5 42.5-20 42.5-44.5c.1-24.6-19-44.5-42.5-44.5z"/><path class="st354" d="M94.6 122.9c-10.7 0-19.3-9.1-19.3-20.2S84 82.5 94.6 82.5c10.7 0 19.3 9.1 19.3 20.2s-8.6 20.2-19.3 20.2zm0-40.3c-10.6 0-19.2 9-19.2 20.1 0 11.1 8.6 20.1 19.2 20.1s19.2-9 19.2-20.1-8.6-20.1-19.2-20.1z"/><path d="M94.6 123.5c-11 0-19.9-9.3-19.9-20.8s8.9-20.8 19.9-20.8c11 0 19.9 9.3 19.9 20.8s-8.9 20.8-19.9 20.8zm0-41.5c-10.9 0-19.8 9.3-19.8 20.7s8.9 20.7 19.8 20.7 19.8-9.3 19.8-20.7S105.5 82 94.6 82z" style="fill:#221e1f"/><path d="M94.6 124.1c-11.3 0-20.5-9.6-20.5-21.4s9.2-21.4 20.5-21.4 20.5 9.6 20.5 21.4c0 11.8-9.2 21.4-20.5 21.4zm0-42.7c-11.2 0-20.4 9.6-20.4 21.3S83.4 124 94.6 124s20.4-9.6 20.4-21.3c0-11.7-9.1-21.3-20.4-21.3z" style="fill:#211d1e"/><path d="M94.6 124.7c-11.6 0-21.1-9.9-21.1-22s9.4-22 21.1-22 21.1 9.9 21.1 22-9.5 22-21.1 22zm0-43.9c-11.6 0-20.9 9.8-20.9 21.9s9.4 21.9 20.9 21.9 20.9-9.8 20.9-21.9-9.3-21.9-20.9-21.9z" style="fill:#201d1e"/><path d="M94.6 125.3c-11.9 0-21.6-10.1-21.6-22.6s9.7-22.6 21.6-22.6 21.6 10.1 21.6 22.6c0 12.5-9.6 22.6-21.6 22.6zm0-45.1c-11.9 0-21.5 10.1-21.5 22.5s9.6 22.5 21.5 22.5 21.5-10.1 21.5-22.5-9.6-22.5-21.5-22.5z" style="fill:#201c1d"/><path d="M94.6 125.9c-12.2 0-22.2-10.4-22.2-23.2s10-23.2 22.2-23.2 22.2 10.4 22.2 23.2c0 12.8-9.9 23.2-22.2 23.2zm0-46.3c-12.2 0-22.1 10.4-22.1 23.1 0 12.7 9.9 23.1 22.1 23.1 12.2 0 22.1-10.4 22.1-23.1 0-12.7-9.9-23.1-22.1-23.1z" style="fill:#1f1b1c"/><path d="M94.6 126.5c-12.6 0-22.8-10.7-22.8-23.8S82 78.9 94.6 78.9s22.8 10.7 22.8 23.8-10.2 23.8-22.8 23.8zm0-47.5C82.1 79 72 89.6 72 102.7s10.2 23.7 22.6 23.7c12.5 0 22.6-10.6 22.6-23.7S107.1 79 94.6 79z" style="fill:#1e1a1b"/><path d="M94.6 127.1c-12.9 0-23.4-10.9-23.4-24.4s10.5-24.4 23.4-24.4S118 89.2 118 102.7c0 13.5-10.5 24.4-23.4 24.4zm0-48.7c-12.8 0-23.2 10.9-23.2 24.3S81.8 127 94.6 127s23.2-10.9 23.2-24.3-10.4-24.3-23.2-24.3z" style="fill:#1d1a1b"/><path d="M94.6 127.7c-13.2 0-23.9-11.2-23.9-25s10.7-25 23.9-25 23.9 11.2 23.9 25c.1 13.8-10.7 25-23.9 25zm0-49.9c-13.1 0-23.8 11.2-23.8 24.9s10.7 24.9 23.8 24.9c13.1 0 23.8-11.2 23.8-24.9s-10.7-24.9-23.8-24.9z" style="fill:#1c191a"/><path d="M94.6 128.3c-13.5 0-24.5-11.5-24.5-25.6 0-14.1 11-25.6 24.5-25.6s24.5 11.5 24.5 25.6c0 14.1-11 25.6-24.5 25.6zm0-51.1c-13.4 0-24.4 11.4-24.4 25.5s10.9 25.5 24.4 25.5 24.4-11.4 24.4-25.5-10.9-25.5-24.4-25.5z" style="fill:#1b1819"/><path d="M94.6 128.9c-13.8 0-25.1-11.8-25.1-26.2s11.2-26.2 25.1-26.2 25.1 11.8 25.1 26.2-11.3 26.2-25.1 26.2zm0-52.3c-13.8 0-24.9 11.7-24.9 26.1 0 14.4 11.2 26.1 24.9 26.1s24.9-11.7 24.9-26.1-11.1-26.1-24.9-26.1z" style="fill:#1a1718"/><path d="M94.6 129.5c-14.1 0-25.7-12-25.7-26.8s11.5-26.8 25.7-26.8c14.1 0 25.7 12 25.7 26.8s-11.5 26.8-25.7 26.8zm0-53.5c-14.1 0-25.5 12-25.5 26.7s11.4 26.7 25.5 26.7 25.5-12 25.5-26.7S108.7 76 94.6 76z" style="fill:#1a1717"/><path d="M94.6 130.1c-14.5 0-26.2-12.3-26.2-27.4s11.8-27.4 26.2-27.4c14.5 0 26.2 12.3 26.2 27.4.1 15.1-11.7 27.4-26.2 27.4zm0-54.7c-14.4 0-26.1 12.2-26.1 27.3 0 15 11.7 27.3 26.1 27.3s26.1-12.2 26.1-27.3c0-15-11.7-27.3-26.1-27.3z" style="fill:#191617"/><path d="M94.6 130.7c-14.8 0-26.8-12.6-26.8-28s12-28 26.8-28 26.8 12.6 26.8 28-12 28-26.8 28zm0-55.9C79.9 74.8 68 87.3 68 102.7s12 27.9 26.7 27.9 26.7-12.5 26.7-27.9c-.1-15.4-12.1-27.9-26.8-27.9z" style="fill:#181516"/><path d="M94.6 131.3c-15.1 0-27.4-12.8-27.4-28.6s12.3-28.6 27.4-28.6S122 86.9 122 102.7s-12.3 28.6-27.4 28.6zm0-57.1c-15 0-27.2 12.8-27.2 28.5s12.2 28.5 27.2 28.5 27.2-12.8 27.2-28.5c.1-15.7-12.2-28.5-27.2-28.5z" style="fill:#171415"/><path d="M94.6 131.9c-15.4 0-28-13.1-28-29.2s12.5-29.2 28-29.2c15.4 0 28 13.1 28 29.2s-12.6 29.2-28 29.2zm0-58.3c-15.3 0-27.8 13-27.8 29.1s12.5 29.1 27.8 29.1 27.8-13 27.8-29.1c0-16-12.5-29.1-27.8-29.1z" style="fill:#161414"/><path d="M94.6 132.5c-15.7 0-28.5-13.4-28.5-29.8s12.8-29.8 28.5-29.8 28.5 13.4 28.5 29.8-12.7 29.8-28.5 29.8zm0-59.5C79 73 66.2 86.3 66.2 102.7s12.7 29.7 28.4 29.7S123 119 123 102.7C123 86.3 110.3 73 94.6 73z" style="fill:#151314"/><path d="M94.6 133.1c-16.1 0-29.1-13.7-29.1-30.4s13.1-30.4 29.1-30.4 29.1 13.6 29.1 30.4c0 16.8-13 30.4-29.1 30.4zm0-60.7c-16 0-28.9 13.6-28.9 30.3s13 30.3 28.9 30.3c16 0 28.9-13.6 28.9-30.3s-12.9-30.3-28.9-30.3z" style="fill:#141213"/><path d="M94.6 133.7c-16.4 0-29.7-13.9-29.7-31s13.3-31 29.7-31 29.7 13.9 29.7 31-13.3 31-29.7 31zm0-61.9c-16.3 0-29.5 13.8-29.5 30.9 0 17 13.2 30.9 29.5 30.9s29.5-13.8 29.5-30.9-13.2-30.9-29.5-30.9z" style="fill:#141112"/><path d="M94.6 134.3c-16.7 0-30.2-14.2-30.2-31.6S77.9 71 94.6 71s30.2 14.2 30.2 31.6-13.5 31.7-30.2 31.7zm0-63.1c-16.6 0-30.1 14.1-30.1 31.5 0 17.3 13.5 31.4 30.1 31.4s30.1-14.1 30.1-31.4c0-17.4-13.5-31.5-30.1-31.5z" style="fill:#131111"/><path d="M94.6 134.9c-17 0-30.8-14.5-30.8-32.2s13.8-32.2 30.8-32.2 30.8 14.5 30.8 32.2-13.8 32.2-30.8 32.2zm0-64.3C77.7 70.6 64 85 64 102.7s13.8 32 30.7 32 30.7-14.4 30.7-32c-.1-17.7-13.9-32.1-30.8-32.1z" style="fill:#121010"/><path d="M94.6 135.5c-17.3 0-31.4-14.7-31.4-32.8s14.1-32.8 31.4-32.8c17.3 0 31.4 14.7 31.4 32.8 0 18.1-14.1 32.8-31.4 32.8zm0-65.5c-17.2 0-31.2 14.6-31.2 32.7s14 32.7 31.2 32.7 31.2-14.7 31.2-32.7c.1-18-14-32.7-31.2-32.7z" style="fill:#110f10"/><path d="M94.6 136.1c-17.6 0-32-15-32-33.4s14.4-33.4 32-33.4 32 15 32 33.4-14.4 33.4-32 33.4zm0-66.7c-17.5 0-31.8 14.9-31.8 33.2 0 18.3 14.3 33.3 31.8 33.3s31.8-14.9 31.8-33.3-14.2-33.2-31.8-33.2z" style="fill:#100e0f"/><path d="M94.6 136.7c-17.9 0-32.6-15.3-32.6-34 0-18.8 14.6-34 32.6-34s32.6 15.3 32.6 34-14.6 34-32.6 34zm0-67.9c-17.9 0-32.4 15.2-32.4 33.9s14.5 33.9 32.4 33.9 32.4-15.2 32.4-33.9-14.5-33.9-32.4-33.9z" style="fill:#0f0e0e"/><path d="M94.6 137.3c-18.3 0-33.1-15.5-33.1-34.6S76.3 68 94.6 68s33.1 15.5 33.1 34.6-14.8 34.7-33.1 34.7zm0-69.1c-18.2 0-32.9 15.4-32.9 34.4S76.5 137 94.6 137s32.9-15.4 32.9-34.4c.1-18.9-14.7-34.4-32.9-34.4z" style="fill:#0f0d0d"/><path d="M94.6 137.9c-18.6 0-33.7-15.8-33.7-35.2S76 67.4 94.6 67.4s33.7 15.8 33.7 35.2-15.1 35.3-33.7 35.3zm0-70.3c-18.5 0-33.5 15.7-33.5 35s15 35 33.5 35 33.5-15.7 33.5-35-15-35-33.5-35z" style="fill:#0e0c0c"/><path d="M94.6 138.5c-18.9 0-34.3-16.1-34.3-35.8s15.4-35.8 34.3-35.8 34.3 16.1 34.3 35.8c0 19.7-15.4 35.8-34.3 35.8zm0-71.5c-18.8 0-34.1 16-34.1 35.6s15.3 35.6 34.1 35.6 34.1-16 34.1-35.6S113.4 67 94.6 67z" style="fill:#0d0b0c"/><path d="M94.6 139.1c-19.2 0-34.9-16.3-34.9-36.4s15.6-36.4 34.9-36.4 34.9 16.3 34.9 36.4c0 20.1-15.7 36.4-34.9 36.4zm0-72.7C75.5 66.4 60 82.7 60 102.7s15.6 36.2 34.7 36.2 34.7-16.3 34.7-36.2-15.7-36.3-34.8-36.3z" style="fill:#0c0b0b"/><path d="M94.6 139.7c-19.5 0-35.4-16.6-35.4-37s15.9-37 35.4-37 35.4 16.6 35.4 37-15.9 37-35.4 37zm0-73.9c-19.4 0-35.2 16.5-35.2 36.8s15.8 36.8 35.2 36.8c19.4 0 35.2-16.5 35.2-36.8s-15.7-36.8-35.2-36.8z" style="fill:#0b0a0a"/><path d="M94.6 140.3c-19.9 0-36-16.9-36-37.6S74.8 65 94.6 65s36 16.9 36 37.6-16.1 37.7-36 37.7zm0-75.1c-19.7 0-35.8 16.8-35.8 37.4S74.9 140 94.6 140s35.8-16.8 35.8-37.4c0-20.6-16-37.4-35.8-37.4z" style="fill:#0a0909"/><path d="M94.6 140.9c-20.2 0-36.6-17.2-36.6-38.2s16.4-38.2 36.6-38.2 36.6 17.1 36.6 38.2c0 21-16.4 38.2-36.6 38.2zm0-76.3c-20.1 0-36.4 17.1-36.4 38s16.3 38 36.4 38 36.4-17.1 36.4-38-16.3-38-36.4-38z" style="fill:#090809"/><path d="M94.6 141.5c-20.5 0-37.1-17.4-37.1-38.8s16.7-38.8 37.1-38.8 37.1 17.4 37.1 38.8c.1 21.4-16.6 38.8-37.1 38.8zm0-77.5c-20.4 0-36.9 17.3-36.9 38.6s16.6 38.6 36.9 38.6 36.9-17.3 36.9-38.6C131.6 81.3 115 64 94.6 64z" style="fill:#090808"/><path d="M94.6 142.1c-20.8 0-37.7-17.7-37.7-39.4s16.9-39.4 37.7-39.4 37.7 17.7 37.7 39.4-16.9 39.4-37.7 39.4zm0-78.7c-20.7 0-37.5 17.6-37.5 39.2s16.8 39.2 37.5 39.2 37.5-17.6 37.5-39.2-16.8-39.2-37.5-39.2z" style="fill:#080707"/><path d="M94.6 142.7c-21.1 0-38.3-18-38.3-40s17.2-40 38.3-40 38.3 18 38.3 40-17.2 40-38.3 40zm0-79.9c-21 0-38.1 17.9-38.1 39.8 0 22 17.1 39.8 38.1 39.8s38.1-17.9 38.1-39.8-17.1-39.8-38.1-39.8z" style="fill:#070606"/><path d="M94.6 143.3c-21.4 0-38.9-18.2-38.9-40.6S73.2 62 94.6 62s38.9 18.2 38.9 40.6c0 22.4-17.4 40.7-38.9 40.7zm0-81.1C73.3 62.2 56 80.4 56 102.6S73.3 143 94.7 143s38.7-18.1 38.7-40.4c-.1-22.2-17.5-40.4-38.8-40.4z" style="fill:#060505"/><path d="M94.6 143.9c-21.8 0-39.4-18.5-39.4-41.2s17.7-41.2 39.4-41.2S134 80 134 102.7c.1 22.7-17.6 41.2-39.4 41.2zm0-82.3c-21.6 0-39.2 18.4-39.2 41s17.6 41 39.2 41 39.2-18.4 39.2-41-17.6-41-39.2-41z" style="fill:#050505"/><path d="M94.6 144.5c-22.1 0-40-18.8-40-41.8s17.9-41.8 40-41.8 40 18.8 40 41.8-17.9 41.8-40 41.8zm0-83.5c-21.9 0-39.8 18.7-39.8 41.6s17.9 41.6 39.8 41.6 39.8-18.7 39.8-41.6c0-22.9-17.8-41.6-39.8-41.6z" style="fill:#040404"/><path d="M94.6 145.1c-22.4 0-40.6-19-40.6-42.4s18.2-42.4 40.6-42.4 40.6 19 40.6 42.4-18.2 42.4-40.6 42.4zm0-84.7c-22.3 0-40.4 18.9-40.4 42.2 0 23.3 18.1 42.2 40.4 42.2s40.4-18.9 40.4-42.2-18.1-42.2-40.4-42.2z" style="fill:#030303"/><path d="M94.6 145.7c-22.7 0-41.2-19.3-41.2-43s18.5-43 41.2-43 41.2 19.3 41.2 43-18.5 43-41.2 43zm0-85.9C72 59.8 53.7 79 53.7 102.6c0 23.6 18.4 42.8 40.9 42.8s40.9-19.2 40.9-42.8c.1-23.6-18.3-42.8-40.9-42.8z" style="fill:#030202"/><path d="M94.6 146.3c-23 0-41.8-19.6-41.8-43.6C52.9 78.6 71.6 59 94.6 59s41.8 19.6 41.8 43.6-18.8 43.7-41.8 43.7zm0-87.1c-22.9 0-41.5 19.5-41.5 43.4S71.7 146 94.6 146s41.5-19.5 41.5-43.4-18.6-43.4-41.5-43.4z" style="fill:#020202"/><path d="M94.6 146.9c-23.3 0-42.3-19.9-42.3-44.2 0-24.4 19-44.2 42.3-44.2s42.3 19.9 42.3 44.2-19 44.2-42.3 44.2zm0-88.3c-23.2 0-42.1 19.7-42.1 44s18.9 44 42.1 44c23.2 0 42.1-19.7 42.1-44 0-24.2-18.9-44-42.1-44z" style="fill:#010101"/><path d="M94.6 147.5c-23.6 0-42.9-20.1-42.9-44.8 0-24.7 19.2-44.9 42.9-44.9s42.9 20.1 42.9 44.9c0 24.7-19.2 44.8-42.9 44.8zm0-89.5c-23.5 0-42.7 20-42.7 44.6s19.1 44.6 42.7 44.6 42.7-20 42.7-44.6S118.1 58 94.6 58z"/><path class="st395" d="M94.5 99.9c-1.4 0-2.6 1.2-2.6 2.7 0 1.5 1.2 2.8 2.6 2.8 1.4 0 2.6-1.2 2.6-2.8 0-1.4-1.1-2.7-2.6-2.7"/><path class="st354" d="M94.5 105.4c-1.5 0-2.6-1.2-2.6-2.8 0-1.5 1.2-2.8 2.6-2.8 1.5 0 2.6 1.2 2.6 2.8s-1.1 2.8-2.6 2.8zm0-5.5c-1.4 0-2.6 1.2-2.6 2.7s1.2 2.7 2.6 2.7 2.6-1.2 2.6-2.7c0-1.4-1.2-2.7-2.6-2.7z"/><path class="st354" d="M94.6 116.1c-7.1 0-12.8-6-12.8-13.4s5.8-13.4 12.8-13.4 12.8 6 12.8 13.4c.1 7.3-5.7 13.4-12.8 13.4zm0-26.7c-7 0-12.7 5.9-12.7 13.2 0 7.3 5.7 13.2 12.7 13.2 7 0 12.7-5.9 12.7-13.2 0-7.3-5.7-13.2-12.7-13.2z"/><g class="st396"><defs><path id="SVGID_00000015336155767896062350000005102291433022119297_" d="M64.5 71h60.3v63.1H64.5z"/></defs><clipPath id="SVGID_00000147906153333915891260000001577897518139030449_"><use xlink:href="#SVGID_00000015336155767896062350000005102291433022119297_" style="overflow:visible"/></clipPath><path style="clip-path:url(#SVGID_00000147906153333915891260000001577897518139030449_);fill:#070707" d="M94.7 71.1c-16.6 0-30.1 14.1-30.1 31.4S78.1 134 94.7 134s30.1-14.1 30.1-31.5c0-17.3-13.5-31.4-30.1-31.4"/><g><defs><path id="SVGID_00000115505138998942664100000015787155615839100316_" d="M64.5 71h60.3v63.1H64.5z"/></defs><clipPath id="SVGID_00000149356963417676669830000017716724723843990163_"><use xlink:href="#SVGID_00000115505138998942664100000015787155615839100316_" style="overflow:visible"/></clipPath><path class="st354" d="M94.7 134.2c-16.7 0-30.2-14.2-30.2-31.6S78 70.9 94.7 70.9s30.2 14.2 30.2 31.6-13.5 31.7-30.2 31.7zm0-62.9c-16.5 0-29.9 14-29.9 31.3s13.4 31.3 29.9 31.3 29.9-14 29.9-31.3-13.4-31.3-29.9-31.3z" style="clip-path:url(#SVGID_00000149356963417676669830000017716724723843990163_)"/></g></g><path d="M78.8 102.6c0 9.1 7.1 16.5 15.8 16.5 8.7 0 15.8-7.4 15.8-16.5s-7.1-16.5-15.8-16.5c-8.7 0-15.8 7.4-15.8 16.5m18.3.1c0 1.5-1.2 2.7-2.6 2.7-1.4 0-2.6-1.2-2.6-2.7 0-1.5 1.2-2.8 2.6-2.8s2.6 1.3 2.6 2.8" style="fill:#0c0d0d"/><path class="st354" d="M94.6 119.2c-8.8 0-15.9-7.4-15.9-16.6 0-9.1 7.1-16.6 15.9-16.6s15.9 7.4 15.9 16.6c0 9.2-7.1 16.6-15.9 16.6zm0-33c-8.7 0-15.7 7.4-15.7 16.4 0 9.1 7 16.4 15.7 16.4s15.7-7.4 15.7-16.4c0-9-7-16.4-15.7-16.4zm-.1 19.3c-1.5 0-2.7-1.3-2.7-2.8 0-1.6 1.2-2.8 2.7-2.8s2.7 1.3 2.7 2.8-1.2 2.8-2.7 2.8zm0-5.5c-1.4 0-2.5 1.2-2.5 2.7 0 1.5 1.1 2.6 2.5 2.6s2.5-1.2 2.5-2.6c.1-1.5-1.1-2.7-2.5-2.7z"/><g class="st396"><defs><path id="SVGID_00000134217654685403628270000009176085311178733972_" d="M58 62.5h73.1v80.1H58z"/></defs><clipPath id="SVGID_00000147903409736832484990000001285180713667377337_"><use xlink:href="#SVGID_00000134217654685403628270000009176085311178733972_" style="overflow:visible"/></clipPath><path style="clip-path:url(#SVGID_00000147903409736832484990000001285180713667377337_);fill:#eee" d="M94.6 102.6 58 125.8c4.1 7.2 10.2 13 17.4 16.8l19.2-40L131 79.2c-4.2-7.1-10.3-12.9-17.5-16.7l-18.9 40.1z"/></g><path d="M81.9 102.7c0 7.4 5.7 13.3 12.8 13.3s12.8-6 12.8-13.3-5.7-13.3-12.8-13.3-12.8 5.9-12.8 13.3m15.2 0c0 1.5-1.2 2.7-2.6 2.7-1.4 0-2.6-1.2-2.6-2.7 0-1.5 1.2-2.8 2.6-2.8s2.6 1.3 2.6 2.8" style="fill:#d61aaa"/><path class="st354" d="M94.6 116.1c-7.1 0-12.8-6-12.8-13.4s5.8-13.4 12.8-13.4 12.8 6 12.8 13.4c.1 7.3-5.7 13.4-12.8 13.4zm0-26.7c-7 0-12.7 5.9-12.7 13.2 0 7.3 5.7 13.2 12.7 13.2 7 0 12.7-5.9 12.7-13.2 0-7.3-5.7-13.2-12.7-13.2zm-.1 16.1c-1.5 0-2.7-1.3-2.7-2.8 0-1.6 1.2-2.8 2.7-2.8 1.5 0 2.7 1.3 2.7 2.8 0 1.5-1.2 2.8-2.7 2.8zm0-5.5c-1.4 0-2.6 1.2-2.6 2.7s1.1 2.7 2.6 2.7 2.6-1.2 2.6-2.7c0-1.5-1.2-2.7-2.6-2.7z"/><path class="st354" d="M94.5 105.4c-1.5 0-2.6-1.2-2.6-2.8 0-1.5 1.2-2.8 2.6-2.8 1.5 0 2.6 1.2 2.6 2.8s-1.1 2.8-2.6 2.8zm0-5.5c-1.4 0-2.6 1.2-2.6 2.7s1.2 2.7 2.6 2.7 2.6-1.2 2.6-2.7c0-1.4-1.2-2.7-2.6-2.7z"/></g></g><g id="Layer_21"><path class="st942" d="M168.3 0v1.2M-27 1.2V0"/><linearGradient id="SVGID_00000013186229619385881490000002624054439647706003_" gradientUnits="userSpaceOnUse" x1="47.821" y1="95.974" x2="42.488" y2="156.936" gradientTransform="matrix(1 0 0 -1 0 169.02)"><stop offset=".207" style="stop-color:#5df4f0"/><stop offset=".296" style="stop-color:#36a9e1"/><stop offset=".38" style="stop-color:#f464cf"/><stop offset=".542" style="stop-color:#f4c3ed"/><stop offset=".662" style="stop-color:#f47bd6"/><stop offset="1" style="stop-color:#f464cf"/></linearGradient><linearGradient id="SVGID_00000159430837042909521430000008064587978914101938_" gradientUnits="userSpaceOnUse" x1="16.54" y1="125.455" x2="76.08" y2="125.455" gradientTransform="matrix(1 0 0 -1 0 169.02)"><stop offset="0" style="stop-color:#f464cf"/><stop offset=".4" style="stop-color:#fff"/><stop offset=".514" style="stop-color:#f464cf"/><stop offset=".818" style="stop-color:#f47bd6"/><stop offset="1" style="stop-color:#f464cf"/></linearGradient><path style="fill:url(#SVGID_00000013186229619385881490000002624054439647706003_);stroke:url(#SVGID_00000159430837042909521430000008064587978914101938_);stroke-miterlimit:10" d="M17.1 14.3h29.2c8.8 0 15.2 1.2 19.1 3.6 4 2.4 6.8 6 8.5 10.8 1.1 3.4 1.7 7.6 1.7 12.8 0 8.7-1.5 15.6-4.6 20.8-2.4 4-5.3 6.8-8.7 8.4-3.4 1.5-8.5 2.3-15.2 2.3H17l.1-58.7zm22.3 42.1h3.3c3.8 0 6.5-.8 8.1-2.4 1.9-1.9 2.8-5.2 2.8-10.1 0-4.2-.8-7.1-2.2-8.6-1.2-1.3-3.5-1.9-6.8-1.9h-5.2v23z"/><linearGradient id="SVGID_00000039823953309805226480000003492259730138248619_" gradientUnits="userSpaceOnUse" x1="100.561" y1="95.195" x2="95.344" y2="154.826" gradientTransform="matrix(1 0 0 -1 0 169.02)"><stop offset=".207" style="stop-color:#5df4f0"/><stop offset=".296" style="stop-color:#36a9e1"/><stop offset=".38" style="stop-color:#f464cf"/><stop offset=".542" style="stop-color:#f4c3ed"/><stop offset=".662" style="stop-color:#f47bd6"/><stop offset="1" style="stop-color:#f464cf"/></linearGradient><linearGradient id="SVGID_00000144338370834914879310000016157351070424820374_" gradientUnits="userSpaceOnUse" x1="78.28" y1="124.88" x2="117.46" y2="124.88" gradientTransform="matrix(1 0 0 -1 0 169.02)"><stop offset="0" style="stop-color:#f464cf"/><stop offset=".4" style="stop-color:#fff"/><stop offset=".514" style="stop-color:#f464cf"/><stop offset=".818" style="stop-color:#f47bd6"/><stop offset="1" style="stop-color:#f464cf"/></linearGradient><path style="fill:url(#SVGID_00000039823953309805226480000003492259730138248619_);stroke:url(#SVGID_00000144338370834914879310000016157351070424820374_);stroke-miterlimit:10" d="M116.9 14.3v42.6c0 6.5-1.8 11.1-5.3 13.6-3.2 2.3-8.2 3.5-15 3.5-3.9 0-8.2-.4-12.9-1.2-1.7-.3-3.3-.8-5-1.4V56c2.3.7 4.9 1 7.6 1 3.7 0 6-.7 6.8-2.2.5-1 .8-2.8.8-5.6V14.3h23z"/><g><linearGradient id="SVGID_00000083079032852889489140000007002651584677642653_" gradientUnits="userSpaceOnUse" x1="16.54" y1="125.455" x2="76.08" y2="125.455" gradientTransform="matrix(1 0 0 -1 0 169.02)"><stop offset="0" style="stop-color:#f464cf"/><stop offset=".4" style="stop-color:#fff"/><stop offset=".514" style="stop-color:#f464cf"/><stop offset=".818" style="stop-color:#f47bd6"/><stop offset="1" style="stop-color:#f464cf"/></linearGradient><path style="fill:none;stroke:url(#SVGID_00000083079032852889489140000007002651584677642653_);stroke-miterlimit:10" d="M17.1 14.3h29.2c8.8 0 15.2 1.2 19.1 3.6 4 2.4 6.8 6 8.5 10.8 1.1 3.4 1.7 7.6 1.7 12.8 0 8.7-1.5 15.6-4.6 20.8-2.4 4-5.3 6.8-8.7 8.4-3.4 1.5-8.5 2.3-15.2 2.3H17l.1-58.7zm22.3 42.1h3.3c3.8 0 6.5-.8 8.1-2.4 1.9-1.9 2.8-5.2 2.8-10.1 0-4.2-.8-7.1-2.2-8.6-1.2-1.3-3.5-1.9-6.8-1.9h-5.2v23z"/><linearGradient id="SVGID_00000105385520417313331520000009705710704065777035_" gradientUnits="userSpaceOnUse" x1="78.28" y1="124.88" x2="117.46" y2="124.88" gradientTransform="matrix(1 0 0 -1 0 169.02)"><stop offset="0" style="stop-color:#f464cf"/><stop offset=".4" style="stop-color:#fff"/><stop offset=".514" style="stop-color:#f464cf"/><stop offset=".818" style="stop-color:#f47bd6"/><stop offset="1" style="stop-color:#f464cf"/></linearGradient><path style="fill:none;stroke:url(#SVGID_00000105385520417313331520000009705710704065777035_);stroke-miterlimit:10" d="M116.9 14.3v42.6c0 6.5-1.8 11.1-5.3 13.6-3.2 2.3-8.2 3.5-15 3.5-3.9 0-8.2-.4-12.9-1.2-1.7-.3-3.3-.8-5-1.4V56c2.3.7 4.9 1 7.6 1 3.7 0 6-.7 6.8-2.2.5-1 .8-2.8.8-5.6V14.3h23z"/></g><g><linearGradient id="SVGID_00000070816777291175704780000007157942692947863964_" gradientUnits="userSpaceOnUse" x1="37.289" y1="129.908" x2="37.289" y2="77.012"><stop offset=".207" style="stop-color:#5df4f0"/><stop offset=".296" style="stop-color:#36a9e1"/><stop offset=".38" style="stop-color:#f464cf"/><stop offset=".542" style="stop-color:#f4c3ed"/><stop offset=".662" style="stop-color:#f47bd6"/><stop offset="1" style="stop-color:#f464cf"/></linearGradient><path style="fill:url(#SVGID_00000070816777291175704780000007157942692947863964_)" d="M59.7 80.3v17.3c-4.1-1.2-8.3-1.7-12.6-1.7-3.9 0-6.7.6-8.5 1.7-1.8 1.2-2.8 3.5-2.8 7.1 0 3 .7 5.1 2 6.5 1.7 1.8 4.8 2.7 9.2 2.7 3.1 0 7.4-.5 12.7-1.6V127c-2.7 1.1-5.3 1.9-7.6 2.2-2.6.4-6.1.6-10.5.6-6.4 0-11.3-.7-14.5-2.1-4.9-2.1-8.3-5.8-10.3-11.3-1.3-3.5-1.9-8.1-1.9-13.6 0-9.4 2-16.1 6.1-20.1C25.1 79 31.6 77 40.5 77c4.2 0 8.2.4 12 1.2 1.8.4 4.2 1.1 7.2 2.1z"/><image style="overflow:visible" width="45.8" height="53.9" xlink:href="FC64E2E24274A1C.png" transform="translate(14.393 76.512)"/></g></g><g id="Layer_24"><path class="st948" d="M110.4 71.4H79.8c-.3 0-.6-.3-.6-.6s.3-.6.6-.6h30.6c.3 0 .6.3.6.6s-.3.6-.6.6zM116.5 75.3H74c-.3 0-.6-.3-.6-.6s.3-.6.6-.6h42.5c.3 0 .6.3.6.6s-.3.6-.6.6zM115.5 79.2H69.9c-.3 0-.6-.3-.6-.6s.3-.6.6-.6h45.5c.3 0 .6.3.6.6s-.2.6-.5.6zM89.6 83H67.2c-.3 0-.6-.3-.6-.6s.3-.6.6-.6h22.4c.3 0 .6.3.6.6s-.2.6-.6.6zM113.4 83h-11.9c-.3 0-.6-.3-.6-.6s.3-.6.6-.6h11.9c.3 0 .6.3.6.6s-.2.6-.6.6zM82.8 86.9H65.2c-.3 0-.6-.3-.6-.6s.3-.6.6-.6h17.7c.3 0 .6.3.6.6s-.3.6-.7.6zM111.4 86.9h-3.7c-.3 0-.6-.3-.6-.6s.3-.6.6-.6h3.7c.3 0 .6.3.6.6s-.3.6-.6.6zM79.4 90.8h-16c-.3 0-.6-.3-.6-.6s.3-.6.6-.6h16c.3 0 .6.3.6.6.1.3-.2.6-.6.6zM77.8 94.7h-15c-.3 0-.6-.3-.6-.6s.3-.6.6-.6h14.9c.3 0 .6.3.6.6s-.2.6-.5.6zM76.7 98.5H62.1c-.3 0-.6-.3-.6-.6s.3-.6.6-.6h14.6c.3 0 .6.3.6.6.1.4-.2.6-.6.6zM127.8 98.5H96.1c-.3 0-.6-.3-.6-.6s.3-.6.6-.6h31.7c.3 0 .6.3.6.6 0 .4-.3.6-.6.6zM61.2 101.8c0-.3.3-.6.6-.6h14.6c.3 0 .6.3.6.6s-.3.6-.6.6H61.8c-.4 0-.6-.3-.6-.6M127.9 102.4H96.1c-.3 0-.6-.3-.6-.6s.3-.6.6-.6h31.8c.3 0 .6.3.6.6s-.3.6-.6.6zM76.7 106.3H62.1c-.3 0-.6-.3-.6-.6s.3-.6.6-.6h14.6c.3 0 .6.3.6.6s-.2.6-.6.6zM127.8 106.3H96.1c-.3 0-.6-.3-.6-.6s.3-.6.6-.6h31.7c.3 0 .6.3.6.6s-.3.6-.6.6zM77.8 110.1H62.5c-.3 0-.6-.3-.6-.6s.3-.6.6-.6h15.3c.3 0 .6.3.6.6 0 .4-.3.6-.6.6zM127.4 110.1H96.1c-.3 0-.6-.3-.6-.6s.3-.6.6-.6h31.3c.3 0 .6.3.6.6 0 .4-.3.6-.6.6zM79.1 114H63.5c-.3 0-.6-.3-.6-.6s.3-.6.6-.6h15.6c.3 0 .6.3.6.6s-.3.6-.6.6zM126.3 114h-16c-.3 0-.6-.3-.6-.6s.3-.6.6-.6h16c.3 0 .6.3.6.6s-.2.6-.6.6zM82.2 117.9H64.8c-.3 0-.6-.3-.6-.6s.3-.6.6-.6h17.3c.3 0 .6.3.6.6s-.2.6-.5.6zM125 117.9h-17.7c-.3 0-.6-.3-.6-.6s.3-.6.6-.6H125c.3 0 .6.3.6.6s-.3.6-.6.6zM88.3 121.8H66.9c-.3 0-.6-.3-.6-.6s.3-.6.6-.6h21.4c.3 0 .6.3.6.6s-.3.6-.6.6zM122.9 121.8h-21.7c-.3 0-.6-.3-.6-.6s.3-.6.6-.6h21.7c.3 0 .6.3.6.6.1.3-.2.6-.6.6zM120.2 125.6H69.6c-.3 0-.6-.3-.6-.6s.3-.6.6-.6h50.6c.3 0 .6.3.6.6 0 .4-.2.6-.6.6zM116.5 129.5H73.3c-.3 0-.6-.3-.6-.6s.3-.6.6-.6h43.1c.3 0 .6.3.6.6.1.3-.2.6-.5.6zM111.4 133.4H78.8c-.3 0-.6-.3-.6-.6s.3-.6.6-.6h32.6c.3 0 .6.3.6.6s-.3.6-.6.6zM100.5 137.2H90.3c-.3 0-.6-.3-.6-.6s.3-.6.6-.6h10.2c.3 0 .6.3.6.6 0 .4-.2.6-.6.6zM100.5 67.5H90.3c-.3 0-.6-.3-.6-.6s.3-.6.6-.6h10.2c.3 0 .6.3.6.6 0 .4-.2.6-.6.6z"/><linearGradient id="SVGID_00000097492750452962150830000012580687294789641603_" gradientUnits="userSpaceOnUse" x1="97.438" y1="31.049" x2="94.703" y2="103.539" gradientTransform="matrix(1 0 0 -1 0 169.02)"><stop offset="0" style="stop-color:#f7de00"/><stop offset=".495" style="stop-color:#f70067"/><stop offset=".751" style="stop-color:#f700ff"/><stop offset="1" style="stop-color:#8c00f7"/></linearGradient><path style="fill:url(#SVGID_00000097492750452962150830000012580687294789641603_)" d="M110.3 71.1H79.4c-.3 0-.6-.3-.6-.7s.3-.7.6-.7h30.9c.3 0 .6.3.6.7s-.2.7-.6.7z"/><linearGradient id="SVGID_00000175320869956328345770000002553084620484052867_" gradientUnits="userSpaceOnUse" x1="97.456" y1="31.066" x2="94.722" y2="103.538" gradientTransform="matrix(1 0 0 -1 0 169.02)"><stop offset="0" style="stop-color:#f7de00"/><stop offset=".495" style="stop-color:#f70067"/><stop offset=".751" style="stop-color:#f700ff"/><stop offset="1" style="stop-color:#8c00f7"/></linearGradient><path style="fill:url(#SVGID_00000175320869956328345770000002553084620484052867_)" d="M116.5 75H73.6c-.3 0-.6-.3-.6-.7 0-.4.3-.7.6-.7h42.9c.3 0 .6.3.6.7 0 .4-.2.7-.6.7z"/><linearGradient id="SVGID_00000072968676459595914510000007713803592443975047_" gradientUnits="userSpaceOnUse" x1="94.77" y1="30.952" x2="92.034" y2="103.439" gradientTransform="matrix(1 0 0 -1 0 169.02)"><stop offset="0" style="stop-color:#f7de00"/><stop offset=".495" style="stop-color:#f70067"/><stop offset=".751" style="stop-color:#f700ff"/><stop offset="1" style="stop-color:#8c00f7"/></linearGradient><path style="fill:url(#SVGID_00000072968676459595914510000007713803592443975047_)" d="M115.5 78.9h-46c-.3 0-.6-.3-.6-.7 0-.4.3-.7.6-.7h46c.3 0 .6.3.6.7 0 .4-.2.7-.6.7z"/><linearGradient id="SVGID_00000021107630075885051030000015551620731887539601_" gradientUnits="userSpaceOnUse" x1="80.379" y1="30.405" x2="77.644" y2="102.899" gradientTransform="matrix(1 0 0 -1 0 169.02)"><stop offset="0" style="stop-color:#f7de00"/><stop offset=".495" style="stop-color:#f70067"/><stop offset=".751" style="stop-color:#f700ff"/><stop offset="1" style="stop-color:#8c00f7"/></linearGradient><path style="fill:url(#SVGID_00000021107630075885051030000015551620731887539601_)" d="M89.6 82.7H66.9c-.3 0-.6-.3-.6-.7 0-.4.3-.7.6-.7h22.6c.3 0 .6.3.6.7s-.2.7-.5.7z"/><linearGradient id="SVGID_00000009560518495978269970000017738762042344172948_" gradientUnits="userSpaceOnUse" x1="109.378" y1="31.497" x2="106.642" y2="103.994" gradientTransform="matrix(1 0 0 -1 0 169.02)"><stop offset="0" style="stop-color:#f7de00"/><stop offset=".495" style="stop-color:#f70067"/><stop offset=".751" style="stop-color:#f700ff"/><stop offset="1" style="stop-color:#8c00f7"/></linearGradient><path style="fill:url(#SVGID_00000009560518495978269970000017738762042344172948_)" d="M113.3 82.7h-12c-.3 0-.6-.3-.6-.7 0-.4.3-.7.6-.7h12c.3 0 .6.3.6.7 0 .4-.3.7-.6.7z"/><linearGradient id="SVGID_00000057849901380823624900000016667271899945069718_" gradientUnits="userSpaceOnUse" x1="75.824" y1="30.233" x2="73.089" y2="102.728" gradientTransform="matrix(1 0 0 -1 0 169.02)"><stop offset="0" style="stop-color:#f7de00"/><stop offset=".495" style="stop-color:#f70067"/><stop offset=".751" style="stop-color:#f700ff"/><stop offset="1" style="stop-color:#8c00f7"/></linearGradient><path style="fill:url(#SVGID_00000057849901380823624900000016667271899945069718_)" d="M82.8 86.6H64.9c-.3 0-.6-.3-.6-.7 0-.4.3-.7.6-.7h17.8c.3 0 .6.3.6.7.1.4-.2.7-.5.7z"/><linearGradient id="SVGID_00000090975201870269737030000007942349624563975570_" gradientUnits="userSpaceOnUse" x1="111.279" y1="31.566" x2="108.543" y2="104.068" gradientTransform="matrix(1 0 0 -1 0 169.02)"><stop offset="0" style="stop-color:#f7de00"/><stop offset=".495" style="stop-color:#f70067"/><stop offset=".751" style="stop-color:#f700ff"/><stop offset="1" style="stop-color:#8c00f7"/></linearGradient><path style="fill:url(#SVGID_00000090975201870269737030000007942349624563975570_)" d="M111.2 86.6h-3.8c-.3 0-.6-.3-.6-.7 0-.4.3-.7.6-.7h3.8c.3 0 .6.3.6.7 0 .4-.2.7-.6.7z"/><linearGradient id="SVGID_00000162322009999800190450000007026445757351178161_" gradientUnits="userSpaceOnUse" x1="73.127" y1="30.132" x2="70.391" y2="102.628" gradientTransform="matrix(1 0 0 -1 0 169.02)"><stop offset="0" style="stop-color:#f7de00"/><stop offset=".495" style="stop-color:#f70067"/><stop offset=".751" style="stop-color:#f700ff"/><stop offset="1" style="stop-color:#8c00f7"/></linearGradient><path style="fill:url(#SVGID_00000162322009999800190450000007026445757351178161_)" d="M79.3 90.5H63.2c-.3 0-.6-.3-.6-.7 0-.4.3-.7.6-.7h16.1c.3 0 .6.3.6.7.1.4-.2.7-.6.7z"/><linearGradient id="SVGID_00000076562559294842193210000008713130954207664568_" gradientUnits="userSpaceOnUse" x1="71.797" y1="30.099" x2="69.063" y2="102.569" gradientTransform="matrix(1 0 0 -1 0 169.02)"><stop offset="0" style="stop-color:#f7de00"/><stop offset=".495" style="stop-color:#f70067"/><stop offset=".751" style="stop-color:#f700ff"/><stop offset="1" style="stop-color:#8c00f7"/></linearGradient><path style="fill:url(#SVGID_00000076562559294842193210000008713130954207664568_)" d="M77.6 94.4H62.5c-.3 0-.6-.3-.6-.7 0-.4.3-.7.6-.7h15.1c.3 0 .6.3.6.7s-.2.7-.6.7z"/><linearGradient id="SVGID_00000116220913698088451280000002088395334434903936_" gradientUnits="userSpaceOnUse" x1="70.803" y1="30.061" x2="68.068" y2="102.533" gradientTransform="matrix(1 0 0 -1 0 169.02)"><stop offset="0" style="stop-color:#f7de00"/><stop offset=".495" style="stop-color:#f70067"/><stop offset=".751" style="stop-color:#f700ff"/><stop offset="1" style="stop-color:#8c00f7"/></linearGradient><path style="fill:url(#SVGID_00000116220913698088451280000002088395334434903936_)" d="M61.2 97.5c0-.4.3-.7.6-.7h14.8c.3 0 .6.3.6.7s-.3.7-.6.7H61.9c-.4 0-.7-.3-.7-.7"/><linearGradient id="SVGID_00000099624173570273209440000016191890745051818154_" gradientUnits="userSpaceOnUse" x1="113.257" y1="31.663" x2="110.522" y2="104.135" gradientTransform="matrix(1 0 0 -1 0 169.02)"><stop offset="0" style="stop-color:#f7de00"/><stop offset=".495" style="stop-color:#f70067"/><stop offset=".751" style="stop-color:#f700ff"/><stop offset="1" style="stop-color:#8c00f7"/></linearGradient><path style="fill:url(#SVGID_00000099624173570273209440000016191890745051818154_)" d="M127.8 98.2h-32c-.3 0-.6-.3-.6-.7s.3-.7.6-.7h32c.3 0 .6.3.6.7s-.3.7-.6.7z"/><linearGradient id="SVGID_00000026870035471979118330000010702232104996057018_" gradientUnits="userSpaceOnUse" x1="70.317" y1="30.041" x2="67.582" y2="102.514" gradientTransform="matrix(1 0 0 -1 0 169.02)"><stop offset="0" style="stop-color:#f7de00"/><stop offset=".495" style="stop-color:#f70067"/><stop offset=".751" style="stop-color:#f700ff"/><stop offset="1" style="stop-color:#8c00f7"/></linearGradient><path style="fill:url(#SVGID_00000026870035471979118330000010702232104996057018_)" d="M60.9 101.4c0-.4.3-.7.6-.7h14.8c.3 0 .6.3.6.7 0 .4-.3.7-.6.7H61.5c-.3 0-.6-.3-.6-.7"/><linearGradient id="SVGID_00000023266690298422274250000016442076348619069356_" gradientUnits="userSpaceOnUse" x1="113.146" y1="31.658" x2="110.411" y2="104.129" gradientTransform="matrix(1 0 0 -1 0 169.02)"><stop offset="0" style="stop-color:#f7de00"/><stop offset=".495" style="stop-color:#f70067"/><stop offset=".751" style="stop-color:#f700ff"/><stop offset="1" style="stop-color:#8c00f7"/></linearGradient><path style="fill:url(#SVGID_00000023266690298422274250000016442076348619069356_)" d="M127.8 102.1H95.7c-.3 0-.6-.3-.6-.7 0-.4.3-.7.6-.7h32.1c.3 0 .6.3.6.7.1.4-.2.7-.6.7z"/><linearGradient id="SVGID_00000163791849722282745330000002044297473581995661_" gradientUnits="userSpaceOnUse" x1="70.511" y1="30.049" x2="67.776" y2="102.521" gradientTransform="matrix(1 0 0 -1 0 169.02)"><stop offset="0" style="stop-color:#f7de00"/><stop offset=".495" style="stop-color:#f70067"/><stop offset=".751" style="stop-color:#f700ff"/><stop offset="1" style="stop-color:#8c00f7"/></linearGradient><path style="fill:url(#SVGID_00000163791849722282745330000002044297473581995661_)" d="M61.2 105.3c0-.4.3-.7.6-.7h14.8c.3 0 .6.3.6.7 0 .4-.3.7-.6.7H61.9c-.4 0-.7-.3-.7-.7"/><linearGradient id="SVGID_00000146485512115444106190000002272634327318009248_" gradientUnits="userSpaceOnUse" x1="112.965" y1="31.651" x2="110.23" y2="104.123" gradientTransform="matrix(1 0 0 -1 0 169.02)"><stop offset="0" style="stop-color:#f7de00"/><stop offset=".495" style="stop-color:#f70067"/><stop offset=".751" style="stop-color:#f700ff"/><stop offset="1" style="stop-color:#8c00f7"/></linearGradient><path style="fill:url(#SVGID_00000146485512115444106190000002272634327318009248_)" d="M127.8 106h-32c-.3 0-.6-.3-.6-.7 0-.4.3-.7.6-.7h32c.3 0 .6.3.6.7s-.3.7-.6.7z"/><linearGradient id="SVGID_00000138555846138748962750000000269787869544435085_" gradientUnits="userSpaceOnUse" x1="71.044" y1="30.07" x2="68.309" y2="102.54" gradientTransform="matrix(1 0 0 -1 0 169.02)"><stop offset="0" style="stop-color:#f7de00"/><stop offset=".495" style="stop-color:#f70067"/><stop offset=".751" style="stop-color:#f700ff"/><stop offset="1" style="stop-color:#8c00f7"/></linearGradient><path style="fill:url(#SVGID_00000138555846138748962750000000269787869544435085_)" d="M77.6 109.8H62.2c-.3 0-.6-.3-.6-.7 0-.4.3-.7.6-.7h15.4c.3 0 .6.3.6.7s-.2.7-.6.7z"/><linearGradient id="SVGID_00000055689058157231901420000003290285150005882041_" gradientUnits="userSpaceOnUse" x1="112.605" y1="31.638" x2="109.87" y2="104.109" gradientTransform="matrix(1 0 0 -1 0 169.02)"><stop offset="0" style="stop-color:#f7de00"/><stop offset=".495" style="stop-color:#f70067"/><stop offset=".751" style="stop-color:#f700ff"/><stop offset="1" style="stop-color:#8c00f7"/></linearGradient><path style="fill:url(#SVGID_00000055689058157231901420000003290285150005882041_)" d="M127.3 109.8H95.7c-.3 0-.6-.3-.6-.7 0-.4.3-.7.6-.7h31.6c.3 0 .6.3.6.7.1.4-.2.7-.6.7z"/><linearGradient id="SVGID_00000068645927239722740940000013219590006256366479_" gradientUnits="userSpaceOnUse" x1="72.086" y1="30.1" x2="69.35" y2="102.596" gradientTransform="matrix(1 0 0 -1 0 169.02)"><stop offset="0" style="stop-color:#f7de00"/><stop offset=".495" style="stop-color:#f70067"/><stop offset=".751" style="stop-color:#f700ff"/><stop offset="1" style="stop-color:#8c00f7"/></linearGradient><path style="fill:url(#SVGID_00000068645927239722740940000013219590006256366479_)" d="M79 113.7H63.2c-.3 0-.6-.3-.6-.7 0-.4.3-.7.6-.7H79c.3 0 .6.3.6.7 0 .4-.2.7-.6.7z"/><linearGradient id="SVGID_00000070077426015056838360000010020862147071084447_" gradientUnits="userSpaceOnUse" x1="119.074" y1="31.874" x2="116.338" y2="104.37" gradientTransform="matrix(1 0 0 -1 0 169.02)"><stop offset="0" style="stop-color:#f7de00"/><stop offset=".495" style="stop-color:#f70067"/><stop offset=".751" style="stop-color:#f700ff"/><stop offset="1" style="stop-color:#8c00f7"/></linearGradient><path style="fill:url(#SVGID_00000070077426015056838360000010020862147071084447_)" d="M126.2 113.7h-16.1c-.3 0-.6-.3-.6-.7 0-.4.3-.7.6-.7h16.1c.3 0 .6.3.6.7.1.4-.2.7-.6.7z"/><linearGradient id="SVGID_00000177454204254423670980000006274084651251833495_" gradientUnits="userSpaceOnUse" x1="74.147" y1="30.186" x2="71.412" y2="102.656" gradientTransform="matrix(1 0 0 -1 0 169.02)"><stop offset="0" style="stop-color:#f7de00"/><stop offset=".495" style="stop-color:#f70067"/><stop offset=".751" style="stop-color:#f700ff"/><stop offset="1" style="stop-color:#8c00f7"/></linearGradient><path style="fill:url(#SVGID_00000177454204254423670980000006274084651251833495_)" d="M82.1 117.6H64.6c-.3 0-.6-.3-.6-.7 0-.4.3-.7.6-.7h17.5c.3 0 .6.3.6.7 0 .4-.3.7-.6.7z"/><linearGradient id="SVGID_00000008836998758644484920000002996143109196941237_" gradientUnits="userSpaceOnUse" x1="116.726" y1="31.793" x2="113.992" y2="104.264" gradientTransform="matrix(1 0 0 -1 0 169.02)"><stop offset="0" style="stop-color:#f7de00"/><stop offset=".495" style="stop-color:#f70067"/><stop offset=".751" style="stop-color:#f700ff"/><stop offset="1" style="stop-color:#8c00f7"/></linearGradient><path style="fill:url(#SVGID_00000008836998758644484920000002996143109196941237_)" d="M124.9 117.6H107c-.3 0-.6-.3-.6-.7 0-.4.3-.7.6-.7h17.8c.3 0 .6.3.6.7.1.4-.2.7-.5.7z"/><linearGradient id="SVGID_00000063611537055234214900000007206792456306267045_" gradientUnits="userSpaceOnUse" x1="78.066" y1="30.329" x2="75.33" y2="102.823" gradientTransform="matrix(1 0 0 -1 0 169.02)"><stop offset="0" style="stop-color:#f7de00"/><stop offset=".495" style="stop-color:#f70067"/><stop offset=".751" style="stop-color:#f700ff"/><stop offset="1" style="stop-color:#8c00f7"/></linearGradient><path style="fill:url(#SVGID_00000063611537055234214900000007206792456306267045_)" d="M88.2 121.5H66.6c-.3 0-.6-.3-.6-.7 0-.4.3-.7.6-.7h21.6c.3 0 .6.3.6.7 0 .4-.2.7-.6.7z"/><linearGradient id="SVGID_00000097460548945165548800000018254755727804938666_" gradientUnits="userSpaceOnUse" x1="112.506" y1="31.629" x2="109.771" y2="104.123" gradientTransform="matrix(1 0 0 -1 0 169.02)"><stop offset="0" style="stop-color:#f7de00"/><stop offset=".495" style="stop-color:#f70067"/><stop offset=".751" style="stop-color:#f700ff"/><stop offset="1" style="stop-color:#8c00f7"/></linearGradient><path style="fill:url(#SVGID_00000097460548945165548800000018254755727804938666_)" d="M122.9 121.5h-22c-.3 0-.6-.3-.6-.7 0-.4.3-.7.6-.7h22c.3 0 .6.3.6.7 0 .4-.3.7-.6.7z"/><linearGradient id="SVGID_00000132083798464875967930000012823390876014088329_" gradientUnits="userSpaceOnUse" x1="95.225" y1="30.979" x2="92.49" y2="103.465" gradientTransform="matrix(1 0 0 -1 0 169.02)"><stop offset="0" style="stop-color:#f7de00"/><stop offset=".495" style="stop-color:#f70067"/><stop offset=".751" style="stop-color:#f700ff"/><stop offset="1" style="stop-color:#8c00f7"/></linearGradient><path style="fill:url(#SVGID_00000132083798464875967930000012823390876014088329_)" d="M120.3 125.3H69.2c-.3 0-.6-.3-.6-.7 0-.4.3-.7.6-.7h51.1c.3 0 .6.3.6.7 0 .4-.3.7-.6.7z"/><linearGradient id="SVGID_00000026133136865060512990000006283844391842001807_" gradientUnits="userSpaceOnUse" x1="95.079" y1="30.976" x2="92.344" y2="103.449" gradientTransform="matrix(1 0 0 -1 0 169.02)"><stop offset="0" style="stop-color:#f7de00"/><stop offset=".495" style="stop-color:#f70067"/><stop offset=".751" style="stop-color:#f700ff"/><stop offset="1" style="stop-color:#8c00f7"/></linearGradient><path style="fill:url(#SVGID_00000026133136865060512990000006283844391842001807_)" d="M116.5 129.2H72.9c-.3 0-.6-.3-.6-.7 0-.4.3-.7.6-.7h43.6c.3 0 .6.3.6.7 0 .4-.2.7-.6.7z"/><linearGradient id="SVGID_00000160892093367807941620000010448581874933086341_" gradientUnits="userSpaceOnUse" x1="95.103" y1="30.975" x2="92.367" y2="103.465" gradientTransform="matrix(1 0 0 -1 0 169.02)"><stop offset="0" style="stop-color:#f7de00"/><stop offset=".495" style="stop-color:#f70067"/><stop offset=".751" style="stop-color:#f700ff"/><stop offset="1" style="stop-color:#8c00f7"/></linearGradient><path style="fill:url(#SVGID_00000160892093367807941620000010448581874933086341_)" d="M111.4 133.1h-33c-.3 0-.6-.3-.6-.7 0-.4.3-.7.6-.7h32.9c.3 0 .6.3.6.7.1.4-.2.7-.5.7z"/><linearGradient id="SVGID_00000005945158230390282930000017122814749393048727_" gradientUnits="userSpaceOnUse" x1="95.301" y1="30.984" x2="92.567" y2="103.455" gradientTransform="matrix(1 0 0 -1 0 169.02)"><stop offset="0" style="stop-color:#f7de00"/><stop offset=".495" style="stop-color:#f70067"/><stop offset=".751" style="stop-color:#f700ff"/><stop offset="1" style="stop-color:#8c00f7"/></linearGradient><path style="fill:url(#SVGID_00000005945158230390282930000017122814749393048727_)" d="M100.4 137H90.1c-.3 0-.6-.3-.6-.7s.3-.7.6-.7h10.3c.3 0 .6.3.6.7 0 .4-.3.7-.6.7z"/><linearGradient id="SVGID_00000153688015728089371510000005449343444850652564_" gradientUnits="userSpaceOnUse" x1="97.928" y1="31.086" x2="95.193" y2="103.556" gradientTransform="matrix(1 0 0 -1 0 169.02)"><stop offset="0" style="stop-color:#f7de00"/><stop offset=".495" style="stop-color:#f70067"/><stop offset=".751" style="stop-color:#f700ff"/><stop offset="1" style="stop-color:#8c00f7"/></linearGradient><path style="fill:url(#SVGID_00000153688015728089371510000005449343444850652564_)" d="M100.4 67.3H90.1c-.3 0-.6-.3-.6-.7 0-.4.3-.7.6-.7h10.3c.3 0 .6.3.6.7s-.3.7-.6.7z"/><g class="st977"><path class="st395" d="M110.2 70.6H79.6c-.2 0-.3-.1-.3-.3s.1-.3.3-.3h30.6c.2 0 .3.1.3.3s-.2.3-.3.3z"/></g><g class="st977"><path class="st395" d="M116.3 74.5H73.8c-.2 0-.3-.1-.3-.3 0-.2.1-.3.3-.3h42.5c.2 0 .3.1.3.3 0 .2-.2.3-.3.3z"/></g><g class="st977"><path class="st395" d="M115.3 78.4H69.7c-.2 0-.3-.1-.3-.3 0-.2.1-.3.3-.3h45.5c.2 0 .3.1.3.3 0 .1-.1.3-.2.3z"/></g><g class="st977"><path class="st395" d="M89.4 82.2H67c-.2 0-.3-.1-.3-.3 0-.2.1-.3.3-.3h22.4c.2 0 .3.1.3.3 0 .2-.1.3-.3.3z"/></g><g class="st977"><path class="st395" d="M113.2 82.2h-11.9c-.2 0-.3-.1-.3-.3 0-.2.1-.3.3-.3h11.9c.2 0 .3.1.3.3 0 .2-.1.3-.3.3z"/></g><g class="st977"><path class="st395" d="M82.6 86.1H65c-.2 0-.3-.1-.3-.3 0-.2.1-.3.3-.3h17.7c.2 0 .3.1.3.3s-.2.3-.4.3z"/></g><g class="st977"><path class="st395" d="M111.2 86.1h-3.7c-.2 0-.3-.1-.3-.3 0-.2.1-.3.3-.3h3.7c.2 0 .3.1.3.3 0 .2-.2.3-.3.3z"/></g><g class="st977"><path class="st395" d="M79.2 90h-16c-.2 0-.3-.1-.3-.3 0-.2.1-.3.3-.3h16c.2 0 .3.1.3.3 0 .2-.1.3-.3.3z"/></g><g class="st977"><path class="st395" d="M77.6 93.9h-15c-.2 0-.3-.1-.3-.3 0-.2.1-.3.3-.3h14.9c.2 0 .3.1.3.3s-.1.3-.2.3z"/></g><g class="st977"><path class="st395" d="M76.5 97.7H61.9c-.2 0-.3-.1-.3-.3 0-.2.1-.3.3-.3h14.6c.2 0 .3.1.3.3 0 .2-.1.3-.3.3z"/></g><g class="st977"><path class="st395" d="M127.6 97.7H95.9c-.2 0-.3-.1-.3-.3 0-.2.1-.3.3-.3h31.7c.2 0 .3.1.3.3 0 .2-.2.3-.3.3z"/></g><path class="st395" d="M61.3 101.3c0-.2.1-.3.3-.3h14.6c.2 0 .3.1.3.3 0 .2-.1.3-.3.3H61.6c-.2 0-.3-.1-.3-.3"/><g class="st977"><path class="st395" d="M127.7 101.6H95.9c-.2 0-.3-.1-.3-.3 0-.2.1-.3.3-.3h31.8c.2 0 .3.1.3.3-.1.2-.2.3-.3.3z"/></g><g class="st977"><path class="st395" d="M76.5 105.5H61.9c-.2 0-.3-.1-.3-.3 0-.2.1-.3.3-.3h14.6c.2 0 .3.1.3.3 0 .1-.1.3-.3.3z"/></g><g class="st977"><path class="st395" d="M127.6 105.5H95.9c-.2 0-.3-.1-.3-.3 0-.2.1-.3.3-.3h31.7c.2 0 .3.1.3.3 0 .1-.2.3-.3.3z"/></g><g class="st977"><path class="st395" d="M77.6 109.3H62.3c-.2 0-.3-.1-.3-.3s.1-.3.3-.3h15.3c.2 0 .3.1.3.3s-.2.3-.3.3z"/></g><g class="st977"><path class="st395" d="M127.2 109.3H95.9c-.2 0-.3-.1-.3-.3s.1-.3.3-.3h31.3c.2 0 .3.1.3.3s-.2.3-.3.3z"/></g><g class="st977"><path class="st395" d="M78.9 113.2H63.3c-.2 0-.3-.1-.3-.3 0-.2.1-.3.3-.3h15.6c.2 0 .3.1.3.3 0 .2-.1.3-.3.3z"/></g><g class="st977"><path class="st395" d="M126.1 113.2h-16c-.2 0-.3-.1-.3-.3 0-.2.1-.3.3-.3h16c.2 0 .3.1.3.3s-.1.3-.3.3z"/></g><g class="st977"><path class="st395" d="M82 117.1H64.6c-.2 0-.3-.1-.3-.3s.1-.3.3-.3H82c.2 0 .3.1.3.3s-.2.3-.3.3z"/></g><g class="st977"><path class="st395" d="M124.8 117.1h-17.7c-.2 0-.3-.1-.3-.3s.1-.3.3-.3h17.7c.2 0 .3.1.3.3s-.2.3-.3.3z"/></g><g class="st977"><path class="st395" d="M88.1 121H66.7c-.2 0-.3-.1-.3-.3 0-.2.1-.3.3-.3h21.4c.2 0 .3.1.3.3s-.2.3-.3.3z"/></g><g class="st977"><path class="st395" d="M122.7 121H101c-.2 0-.3-.1-.3-.3 0-.2.1-.3.3-.3h21.7c.2 0 .3.1.3.3 0 .1-.1.3-.3.3z"/></g><g class="st977"><path class="st395" d="M120 124.8H69.4c-.2 0-.3-.1-.3-.3s.1-.3.3-.3H120c.2 0 .3.1.3.3s-.1.3-.3.3z"/></g><g class="st977"><path class="st395" d="M116.3 128.7H73.1c-.2 0-.3-.1-.3-.3 0-.2.1-.3.3-.3h43.1c.2 0 .3.1.3.3.1.2-.1.3-.2.3z"/></g><g class="st977"><path class="st395" d="M111.2 132.6H78.6c-.2 0-.3-.1-.3-.3 0-.2.1-.3.3-.3h32.6c.2 0 .3.1.3.3 0 .2-.2.3-.3.3z"/></g><g class="st977"><path class="st395" d="M100.3 136.5H90.1c-.2 0-.3-.1-.3-.3 0-.2.1-.3.3-.3h10.2c.2 0 .3.1.3.3 0 .1-.1.3-.3.3z"/></g><g class="st977"><path class="st395" d="M100.3 66.8H90.1c-.2 0-.3-.1-.3-.3 0-.2.1-.3.3-.3h10.2c.2 0 .3.1.3.3 0 .1-.1.3-.3.3z"/></g><g class="st977"><path class="st395" d="M110.1 70.4H79.5c-.1 0-.1 0-.1-.1s0-.1.1-.1h30.6c.1 0 .1 0 .1.1s-.1.1-.1.1z"/></g><g class="st977"><path class="st395" d="M116.2 74.3H73.7c-.1 0-.1 0-.1-.1s0-.1.1-.1h42.5c.1 0 .1 0 .1.1l-.1.1z"/></g><g class="st977"><path class="st395" d="M115.2 78.2H69.7c-.1 0-.1 0-.1-.1s0-.1.1-.1h45.5c.1 0 .1 0 .1.1s-.1.1-.1.1z"/></g><g class="st977"><path class="st395" d="M89.4 82H66.9c-.1 0-.1 0-.1-.1s0-.1.1-.1h22.4c.1 0 .1 0 .1.1v.1z"/></g><g class="st977"><path class="st395" d="M113.1 82h-11.9c-.1 0-.1 0-.1-.1s0-.1.1-.1h11.9c.1 0 .1 0 .1.1s0 .1-.1.1z"/></g><g class="st977"><path class="st395" d="M82.6 85.9H64.9c-.1 0-.1 0-.1-.1s0-.1.1-.1h17.7c.1 0 .1 0 .1.1s-.1.1-.1.1z"/></g><g class="st977"><path class="st395" d="M111.1 85.9h-3.7c-.1 0-.1 0-.1-.1s0-.1.1-.1h3.7c.1 0 .1 0 .1.1s0 .1-.1.1z"/></g><g class="st977"><path class="st395" d="M79.2 89.8h-16c-.1 0-.1 0-.1-.1s0-.1.1-.1h16c.1 0 .1 0 .1.1l-.1.1z"/></g><g class="st977"><path class="st395" d="M77.5 93.6h-15c-.1 0-.1 0-.1-.1s0-.1.1-.1h14.9c.1.1.2.1.1.2.1 0 0 0 0 0z"/></g><g class="st977"><path class="st395" d="M76.4 97.5H61.8c-.1 0-.1 0-.1-.1s0-.1.1-.1h14.6c.1 0 .1 0 .1.1s0 .1-.1.1z"/></g><g class="st977"><path class="st395" d="M127.5 97.5H95.8c-.1 0-.1 0-.1-.1s0-.1.1-.1h31.7s.1 0 .1.1-.1.1-.1.1z"/></g><g class="st977"><path class="st395" d="M76.1 101.4H61.5c-.1 0-.1 0-.1-.1s0-.1.1-.1h14.6c.1 0 .1 0 .1.1 0 0 0 .1-.1.1z"/></g><g class="st977"><path class="st395" d="M127.6 101.4H95.8c-.1 0-.1 0-.1-.1s0-.1.1-.1h31.8s.1 0 0 .2c.1-.1 0 0 0 0z"/></g><g class="st977"><path class="st395" d="M76.4 105.3H61.8c-.1 0-.1 0-.1-.1s0-.1.1-.1h14.6c.1 0 .1 0 .1.1s0 .1-.1.1z"/></g><g class="st977"><path class="st395" d="M127.5 105.3H95.8c-.1 0-.1 0-.1-.1s0-.1.1-.1h31.7s.1 0 .1.1-.1.1-.1.1z"/></g><g class="st977"><path class="st395" d="M77.5 109.1H62.2c-.1 0-.1 0-.1-.1s0-.1.1-.1h15.3c.1 0 .1 0 .1.1s-.1.1-.1.1z"/></g><g class="st977"><path class="st395" d="M127.1 109.1H95.8c-.1 0-.1 0-.1-.1s0-.1.1-.1h31.3s.1 0 .1.1-.1.1-.1.1z"/></g><g class="st977"><path class="st395" d="M78.8 113H63.2c-.1 0-.1 0-.1-.1s0-.1.1-.1h15.6c.1 0 .1 0 .1.1s0 .1-.1.1z"/></g><g class="st977"><path class="st395" d="M126.1 113h-16c-.1 0-.1 0-.1-.1s0-.1.1-.1h16c.1 0 .1 0 .1.1l-.1.1z"/></g><g class="st977"><path class="st395" d="M81.9 116.9H64.6c-.1 0-.1 0-.1-.1s0-.1.1-.1h17.3c.1 0 .1 0 .1.1l-.1.1z"/></g><g class="st977"><path class="st395" d="M124.7 116.9H107c-.1 0-.1 0-.1-.1s0-.1.1-.1h17.7c.1 0 .1 0 .1.1 0 0 0 .1-.1.1z"/></g><g class="st977"><path class="st395" d="M88 120.8H66.6c-.1 0-.1 0-.1-.1s0-.1.1-.1H88c.1 0 .1 0 .1.1 0 0 0 .1-.1.1z"/></g><g class="st977"><path class="st395" d="M122.7 120.8H101c-.1 0-.1 0-.1-.1s0-.1.1-.1h21.7c.1 0 .1 0 .1.1l-.1.1z"/></g><g class="st977"><path class="st395" d="M119.9 124.6H69.3c-.1 0-.1 0-.1-.1s0-.1.1-.1h50.6c.1 0 .1 0 .1.1s0 .1-.1.1z"/></g><g class="st977"><path class="st395" d="M116.2 128.5H73c-.1 0-.1 0-.1-.1 0 0 0-.1.1-.1h43.1c.1 0 .1 0 .1.1.1.1 0 .1 0 .1z"/></g><g class="st977"><path class="st395" d="M111.1 132.4H78.5c-.1 0-.1 0-.1-.1s0-.1.1-.1h32.6c.1 0 .1 0 .1.1 0 0 0 .1-.1.1z"/></g><g class="st977"><path class="st395" d="M100.2 136.2H90c-.1 0-.1 0-.1-.1 0 0 0-.1.1-.1h10.2c.1 0 .1 0 .1.1s0 .1-.1.1z"/></g><g class="st977"><path class="st395" d="M100.2 66.5H90c-.1 0-.1 0-.1-.1s0-.1.1-.1h10.2c.1 0 .1 0 .1.1s0 .1-.1.1z"/></g></g><g id="Layer_28"><linearGradient id="SVGID_00000003106412305406604150000008085896497617368749_" gradientUnits="userSpaceOnUse" x1="58.58" y1="27.375" x2="75.56" y2="27.375" gradientTransform="matrix(1 0 0 -1 0 169.02)"><stop offset="0" style="stop-color:#f464cf"/><stop offset=".4" style="stop-color:#fff"/><stop offset=".514" style="stop-color:#f464cf"/><stop offset=".818" style="stop-color:#f47bd6"/><stop offset="1" style="stop-color:#f464cf"/></linearGradient><path style="fill:url(#SVGID_00000003106412305406604150000008085896497617368749_)" d="M58.6 135.5h17v12.2h-17z"/><linearGradient id="SVGID_00000046317833383239463210000003814482576517077649_" gradientUnits="userSpaceOnUse" x1="43.42" y1="27.375" x2="55.75" y2="27.375" gradientTransform="matrix(1 0 0 -1 0 169.02)"><stop offset="0" style="stop-color:#f464cf"/><stop offset=".4" style="stop-color:#fff"/><stop offset=".514" style="stop-color:#f464cf"/><stop offset=".818" style="stop-color:#f47bd6"/><stop offset="1" style="stop-color:#f464cf"/></linearGradient><path style="fill:url(#SVGID_00000046317833383239463210000003814482576517077649_)" d="M43.4 135.5h12.3v12.2H43.4z"/><linearGradient id="SVGID_00000028322451047047400510000007197663264115086215_" gradientUnits="userSpaceOnUse" x1="30.99" y1="27.375" x2="40.51" y2="27.375" gradientTransform="matrix(1 0 0 -1 0 169.02)"><stop offset="0" style="stop-color:#f464cf"/><stop offset=".4" style="stop-color:#fff"/><stop offset=".514" style="stop-color:#f464cf"/><stop offset=".818" style="stop-color:#f47bd6"/><stop offset="1" style="stop-color:#f464cf"/></linearGradient><path style="fill:url(#SVGID_00000028322451047047400510000007197663264115086215_)" d="M31 135.5h9.5v12.2H31z"/><linearGradient id="SVGID_00000159458655277327599870000018164218350457364663_" gradientUnits="userSpaceOnUse" x1="22.77" y1="27.375" x2="27.53" y2="27.375" gradientTransform="matrix(1 0 0 -1 0 169.02)"><stop offset="0" style="stop-color:#f464cf"/><stop offset=".4" style="stop-color:#fff"/><stop offset=".514" style="stop-color:#f464cf"/><stop offset=".818" style="stop-color:#f47bd6"/><stop offset="1" style="stop-color:#f464cf"/></linearGradient><path style="fill:url(#SVGID_00000159458655277327599870000018164218350457364663_)" d="M22.8 135.5h4.8v12.2h-4.8z"/><linearGradient id="SVGID_00000033364529038536454860000012282191061659468425_" gradientUnits="userSpaceOnUse" x1="16.25" y1="27.375" x2="18.63" y2="27.375" gradientTransform="matrix(1 0 0 -1 0 169.02)"><stop offset="0" style="stop-color:#f464cf"/><stop offset=".4" style="stop-color:#fff"/><stop offset=".514" style="stop-color:#f464cf"/><stop offset=".818" style="stop-color:#f47bd6"/><stop offset="1" style="stop-color:#f464cf"/></linearGradient><path style="fill:url(#SVGID_00000033364529038536454860000012282191061659468425_)" d="M16.2 135.5h2.4v12.2h-2.4z"/><linearGradient id="SVGID_00000007393050012253314180000009610487558435714208_" gradientUnits="userSpaceOnUse" x1="11.37" y1="27.375" x2="13.15" y2="27.375" gradientTransform="matrix(1 0 0 -1 0 169.02)"><stop offset="0" style="stop-color:#f464cf"/><stop offset=".4" style="stop-color:#fff"/><stop offset=".514" style="stop-color:#f464cf"/><stop offset=".818" style="stop-color:#f47bd6"/><stop offset="1" style="stop-color:#f464cf"/></linearGradient><path style="fill:url(#SVGID_00000007393050012253314180000009610487558435714208_)" d="M11.4 135.5h1.8v12.2h-1.8z"/></g></svg>