<svg xmlns="http://www.w3.org/2000/svg" xmlns:xlink="http://www.w3.org/1999/xlink" viewBox="0 0 364.3 176.8" style="enable-background:new 0 0 364.3 176.8" xml:space="preserve"><style>.st0{display:none}.st1,.st2{display:inline}.st2{fill:#ebebeb}.st3{fill:#d8d8d8}.st4{fill:#858585}.st9{fill:#b0b0b0}.st10{fill:#706f6f}.st23{display:none}.st23,.st24{fill:#ebebeb}.st41{fill:#1d1d1b}.st42{fill:#575756}.st47{fill:#f4f4f4}.st48{display:inline;fill:#575756}.st61{fill:#3c3c3b}.st70,.st71,.st76{display:inline;fill:#1d1d1b}.st71,.st76{fill:#858585}.st76{fill:#b0b0b0}.st101,.st106,.st135{display:inline;fill:#2eb0ff}.st106,.st135{fill:#ff462e}.st135{fill:#ff3d45}.st148{opacity:0;fill:#88c4e7}.st149{opacity:4.545455e-02;fill:#84c3e8}.st150{opacity:9.090909e-02;fill:#80c2e9}.st151{opacity:.1364;fill:#7cc1ea}.st152{opacity:.1818;fill:#78c0eb}.st153{opacity:.2273;fill:#74bfec}.st154{opacity:.2727;fill:#6fbfee}.st155{opacity:.3182;fill:#6bbeef}.st156{opacity:.3636;fill:#67bdf0}.st157{opacity:.4091;fill:#63bcf1}.st158{opacity:.4545;fill:#5fbbf2}.st159{opacity:.5;fill:#5bbaf3}.st160{opacity:.5455;fill:#57b9f4}.st161{opacity:.5909;fill:#53b8f5}.st162{opacity:.6364;fill:#4fb7f6}.st163{opacity:.6818;fill:#4bb6f7}.st164{opacity:.7273;fill:#47b5f8}.st165{opacity:.7727;fill:#42b5fa}.st166{opacity:.8182;fill:#3eb4fb}.st167{opacity:.8636;fill:#3ab3fc}.st168{opacity:.9091;fill:#36b2fd}.st169{opacity:.9545;fill:#32b1fe}.st170{fill:#2eb0ff}.st171{display:inline;opacity:.3}.st172{fill:#b9e4ff}.st173{opacity:0;fill:#fb8589}.st174{opacity:4.545455e-02;fill:#fb878b}.st175{opacity:9.090909e-02;fill:#fb888c}.st176{opacity:.1364;fill:#fc8a8e}.st177{opacity:.1818;fill:#fc8c8f}.st178{opacity:.2273;fill:#fc8d91}.st179{opacity:.2727;fill:#fc8f93}.st180{opacity:.3182;fill:#fc9194}.st181{opacity:.3636;fill:#fc9296}.st182{opacity:.4091;fill:#fd9497}.st183{opacity:.4545;fill:#fd9699}.st184{opacity:.5;fill:#fd989b}.st185{opacity:.5455;fill:#fd999c}.st186{opacity:.5909;fill:#fd9b9e}.st187{opacity:.6364;fill:#fe9d9f}.st188{opacity:.6818;fill:#fe9ea1}.st189{opacity:.7273;fill:#fea0a2}.st190{opacity:.7727;fill:#fea2a4}.st191{opacity:.8182;fill:#fea3a6}.st192{opacity:.8636;fill:#fea5a7}.st193{opacity:.9091;fill:#ffa7a9}.st194{opacity:.9545;fill:#ffa8aa}.st195{fill:#ffaaac}.st196{fill:#ff1f25}.st197{opacity:4.545455e-02;fill:#8ac5e8}.st198{opacity:9.090909e-02;fill:#8cc7e9}.st199{opacity:.1364;fill:#8fc8ea}.st200{opacity:.1818;fill:#91caeb}.st201{opacity:.2273;fill:#93cbec}.st202{opacity:.2727;fill:#95cdee}.st203{opacity:.3182;fill:#98ceef}.st204{opacity:.3636;fill:#9ad0f0}.st205{opacity:.4091;fill:#9cd1f1}.st206{opacity:.4545;fill:#9ed3f2}.st207{opacity:.5;fill:#a1d4f3}.st208{opacity:.5455;fill:#a3d5f4}.st209{opacity:.5909;fill:#a5d7f5}.st210{opacity:.6364;fill:#a7d8f6}.st211{opacity:.6818;fill:#a9daf7}.st212{opacity:.7273;fill:#acdbf8}.st213{opacity:.7727;fill:#aeddfa}.st214{opacity:.8182;fill:#b0defb}.st215{opacity:.8636;fill:#b2e0fc}.st216{opacity:.9091;fill:#b5e1fd}.st217{opacity:.9545;fill:#b7e3fe}.st218{opacity:4.545455e-02;fill:#fb8084}.st219{opacity:9.090909e-02;fill:#fb7c80}.st220{opacity:.1364;fill:#fc777b}.st221{opacity:.1818;fill:#fc7277}.st222{opacity:.2273;fill:#fc6e72}.st223{opacity:.2727;fill:#fc696e}.st224{opacity:.3182;fill:#fc6569}.st225{opacity:.3636;fill:#fc6065}.st226{opacity:.4091;fill:#fd5b60}.st227{opacity:.4545;fill:#fd575c}.st228{opacity:.5;fill:#fd5257}.st229{opacity:.5455;fill:#fd4d52}.st230{opacity:.5909;fill:#fd494e}.st231{opacity:.6364;fill:#fe4449}.st232{opacity:.6818;fill:#fe3f45}.st233{opacity:.7273;fill:#fe3b40}.st234{opacity:.7727;fill:#fe363c}.st235{opacity:.8182;fill:#fe3237}.st236{opacity:.8636;fill:#fe2d33}.st237{opacity:.9091;fill:#ff282e}.st238{opacity:.9545;fill:#ff242a}.st247{fill:#212121}.st248{fill:#3a3a3a}.st249{fill:#2d2d2d}.st250{fill:#161616}.st251{fill:#231f20}.st252{fill:#221e1f}.st253{fill:#211d1e}.st254{fill:#201d1e}.st255{fill:#201c1d}.st256{fill:#1f1b1c}.st257{fill:#1e1a1b}.st258{fill:#1d1a1b}.st259{fill:#1c191a}.st260{fill:#1b1819}.st261{fill:#1a1718}.st262{fill:#1a1717}.st263{fill:#191617}.st264{fill:#181516}.st265{fill:#171415}.st266{fill:#161414}.st267{fill:#151314}.st268{fill:#141213}.st269{fill:#141112}.st270{fill:#131111}.st271{fill:#121010}.st272{fill:#110f10}.st273{fill:#100e0f}.st274{fill:#0f0e0e}.st275{fill:#0f0d0d}.st276{fill:#0e0c0c}.st277{fill:#0d0b0c}.st278{fill:#0c0b0b}.st279{fill:#0b0a0a}.st280{fill:#0a0909}.st281{fill:#090809}.st282{fill:#090808}.st283{fill:#080707}.st284{fill:#070606}.st285{fill:#060505}.st286{fill:#050505}.st287{fill:#040404}.st288{fill:#030303}.st289{fill:#030202}.st290{fill:#020202}.st291{fill:#010101}.st292{fill:#fff}.st293{opacity:.4}.st296{fill:#0c0d0d}.st298{fill:#d61aaa}.st302{display:inline;fill:#d8d8d8}.st625{fill:#2d003e}.st654{opacity:.8}</style><g id="Layer_26"><path d="m277.2 168.7-193.9 1.7-.2-108.8L234.7 60z"/><path d="M130.8 123.3c0 26-20.3 47.1-45.4 47.1s-50.6-21.1-50.6-47.1 25.5-47.1 50.6-47.1 45.4 21.1 45.4 47.1zM312.5 130c0 21.3-16.3 38.6-36.4 38.6-20.1 0-40.5-17.3-40.5-38.6s20.5-38.6 40.5-38.6c20.2 0 36.4 17.3 36.4 38.6z"/></g><path d="M319.5 155.1 62 157.3 45.5 12.2l214.1-2z" id="Layer_4"/><g id="Layer_3"><path d="M109.4 101.3c0 30.9-20.7 56-46.3 56s-51.6-25.1-51.6-56 26-56 51.6-56 46.3 25 46.3 56zM359.4 110.6c0 25.4-20.9 45.9-46.7 45.9-25.8 0-52-20.6-52-45.9s26.2-45.9 52-45.9 46.7 20.6 46.7 45.9z"/></g><g id="Layer_18"><path class="st41" d="M252.8 109.4c-26.8 0-48.6-22.8-48.6-50.8 0-28 21.8-50.8 48.6-50.8s48.6 22.8 48.6 50.8c0 28-21.8 50.8-48.6 50.8zm0-99.5c-25.7 0-46.6 21.8-46.6 48.7 0 26.8 20.9 48.7 46.6 48.7s46.6-21.8 46.6-48.7c0-26.9-20.9-48.7-46.6-48.7z"/><path class="st247" d="M252.8 110.9c-27.6 0-50-23.5-50-52.3 0-28.8 22.4-52.3 50-52.3s50 23.5 50 52.3c.1 28.8-22.4 52.3-50 52.3zm0-102.4c-26.4 0-47.9 22.5-47.9 50.1s21.5 50.1 47.9 50.1 47.9-22.5 47.9-50.1c.1-27.6-21.4-50.1-47.9-50.1z"/><path class="st248" d="M299.7 58.6c0 27-21 48.9-46.8 48.9-25.9 0-46.8-21.9-46.8-48.9s21-48.9 46.8-48.9c25.8 0 46.8 21.9 46.8 48.9z"/><path class="st249" d="M299.5 58.9c-2.4 0-4.4-2.1-4.4-4.6 0-2.3 1.7-4.2 3.8-4.5-.4-2.1-.8-4.1-1.5-6.1-.5.2-1 .3-1.5.3-2.4 0-4.4-2.1-4.4-4.6 0-1.8 1-3.4 2.5-4.1-.9-1.7-1.9-3.4-3-5-.7.6-1.7 1-2.7 1-2.4 0-4.4-2.1-4.4-4.6 0-1.3.5-2.5 1.4-3.3-1.4-1.4-2.8-2.7-4.3-3.8-.8 1.2-2.1 2-3.6 2-2.4 0-4.4-2.1-4.4-4.6 0-.8.2-1.6.5-2.2-1.7-.9-3.6-1.7-5.4-2.4-.5 1.9-2.2 3.3-4.2 3.3-2.4 0-4.4-2.1-4.4-4.6 0-.3 0-.6.1-.9-2.1-.3-4.3-.5-6.4-.5v.2c0 2.5-2 4.6-4.4 4.6-2.2 0-4-1.7-4.3-4-2 .4-4 .9-5.9 1.5.2.5.3 1 .3 1.6 0 2.5-2 4.6-4.4 4.6-1.7 0-3.2-1.1-3.9-2.6-1.7 1-3.3 2-4.8 3.2.6.8.9 1.8.9 2.8 0 2.5-2 4.6-4.4 4.6-1.2 0-2.4-.5-3.2-1.4-1.3 1.4-2.5 2.9-3.7 4.5 1.2.8 1.9 2.2 1.9 3.8 0 2.5-2 4.6-4.4 4.6-.8 0-1.5-.2-2.1-.6-.9 1.8-1.6 3.7-2.2 5.6 1.8.6 3.1 2.3 3.1 4.4 0 2.5-2 4.6-4.4 4.6-.3 0-.6 0-.8-.1-.3 2.2-.5 4.4-.5 6.7h.2c2.4 0 4.4 2.1 4.4 4.6 0 2.3-1.6 4.2-3.8 4.5.4 2.1.9 4.2 1.5 6.2.5-.2 1-.3 1.5-.3 2.4 0 4.4 2.1 4.4 4.6 0 1.8-1 3.4-2.5 4.1.9 1.7 1.9 3.4 3 5 .7-.6 1.7-1 2.7-1 2.4 0 4.4 2.1 4.4 4.6 0 1.3-.5 2.5-1.4 3.3 1.4 1.4 2.8 2.6 4.3 3.8.8-1.2 2.1-2 3.6-2 2.4 0 4.4 2.1 4.4 4.6 0 .8-.2 1.6-.5 2.2 1.7.9 3.5 1.7 5.4 2.3.5-1.9 2.2-3.3 4.2-3.3 2.4 0 4.4 2.1 4.4 4.6 0 .3 0 .6-.1.9 2.1.3 4.2.5 6.4.5v-.2c0-2.5 2-4.6 4.4-4.6 2.2 0 4 1.7 4.3 4 2-.4 4-.9 5.9-1.5-.2-.5-.3-1-.3-1.6 0-2.5 2-4.6 4.4-4.6 1.7 0 3.2 1.1 3.9 2.6 1.7-1 3.3-2 4.8-3.2-.6-.8-.9-1.8-.9-2.8 0-2.5 2-4.6 4.4-4.6 1.2 0 2.4.5 3.2 1.4 1.3-1.4 2.5-2.9 3.7-4.5-1.2-.8-1.9-2.2-1.9-3.8 0-2.5 2-4.6 4.4-4.6.8 0 1.5.2 2.1.6.9-1.8 1.6-3.7 2.2-5.6-1.8-.6-3.1-2.3-3.1-4.4 0-2.5 2-4.6 4.4-4.6.3 0 .6 0 .8.1.3-2.2.5-4.4.5-6.7h-.2z"/><path class="st248" d="M299.4 60.3c-2.4-.1-4.3-2.2-4.3-4.7.1-2.3 1.8-4.2 3.9-4.4-.3-2.1-.7-4.2-1.3-6.2-.5.2-1 .3-1.5.2-2.4-.1-4.3-2.2-4.3-4.7.1-1.8 1.1-3.3 2.6-4-.9-1.8-1.8-3.5-2.9-5.1-.8.6-1.7.9-2.7.9-2.4-.1-4.3-2.2-4.3-4.7 0-1.3.6-2.5 1.5-3.3-1.3-1.4-2.7-2.7-4.2-4-.8 1.2-2.2 1.9-3.7 1.9-2.4-.1-4.3-2.2-4.3-4.7 0-.8.2-1.5.6-2.2-1.7-1-3.5-1.8-5.4-2.5-.6 1.9-2.3 3.2-4.3 3.2-2.4-.1-4.3-2.2-4.3-4.7 0-.3 0-.6.1-.9-2.1-.4-4.2-.6-6.4-.7v.2c-.1 2.5-2.1 4.5-4.5 4.4-2.2-.1-4-1.8-4.2-4.1-2 .3-4 .8-6 1.4.2.5.3 1 .2 1.6-.1 2.5-2.1 4.5-4.5 4.5-1.7-.1-3.2-1.2-3.9-2.7-1.7.9-3.3 1.9-4.9 3 .6.8.9 1.8.9 2.8-.1 2.5-2.1 4.5-4.5 4.4-1.2 0-2.4-.6-3.1-1.5-1.3 1.4-2.6 2.8-3.8 4.4 1.1.9 1.9 2.3 1.8 3.8-.1 2.5-2.1 4.5-4.5 4.5-.8 0-1.5-.3-2.1-.6-.9 1.8-1.7 3.7-2.4 5.6 1.8.6 3.1 2.4 3 4.5-.1 2.5-2.1 4.5-4.5 4.4-.3 0-.6 0-.8-.1-.4 2.2-.6 4.4-.7 6.7h.2c2.4.1 4.3 2.2 4.3 4.7-.1 2.3-1.8 4.2-3.9 4.4.3 2.1.7 4.2 1.3 6.2.5-.2 1-.3 1.5-.2 2.4.1 4.3 2.2 4.3 4.7 0 1.8-1.1 3.3-2.6 4 .9 1.8 1.8 3.5 2.9 5.1.8-.6 1.7-.9 2.7-.9 2.4.1 4.3 2.2 4.3 4.7 0 1.3-.6 2.5-1.4 3.3 1.3 1.4 2.7 2.7 4.2 3.9.8-1.2 2.2-1.9 3.7-1.9 2.4.1 4.3 2.2 4.3 4.7 0 .8-.2 1.5-.6 2.2 1.7.9 3.5 1.8 5.3 2.5.6-1.9 2.3-3.2 4.3-3.2 2.4.1 4.3 2.2 4.3 4.7 0 .3 0 .6-.1.9 2.1.4 4.2.6 6.4.7v-.2c.1-2.5 2.1-4.5 4.5-4.5 2.2.1 4 1.8 4.2 4.1 2-.3 4-.8 6-1.4-.2-.5-.3-1-.2-1.6.1-2.5 2.1-4.5 4.5-4.5 1.7.1 3.2 1.2 3.9 2.7 1.7-.9 3.3-1.9 4.9-3-.6-.8-.9-1.8-.9-2.9.1-2.5 2.1-4.5 4.5-4.5 1.2 0 2.3.6 3.1 1.5 1.3-1.4 2.6-2.8 3.8-4.4-1.1-.9-1.9-2.3-1.8-3.8.1-2.5 2.1-4.5 4.5-4.4.8 0 1.5.2 2.1.6.9-1.8 1.7-3.7 2.4-5.6-1.8-.6-3.1-2.4-3-4.5.1-2.5 2.1-4.5 4.5-4.4.3 0 .6 0 .8.1.4-2.2.6-4.4.7-6.7 0 .3-.1.3-.2.3z"/><path class="st247" d="M251.6 106.5c-1.5 0-2.9-.2-4.4-.3 0-3.1-2.4-5.6-5.4-5.6-2 0-3.8 1.2-4.8 3l-3.6-1.5c.2-.5.2-1.1.2-1.7 0-3.1-2.4-5.6-5.4-5.6-1.4 0-2.8.6-3.8 1.6-.9-.8-1.9-1.6-2.8-2.5.6-.9 1-2.1 1-3.2 0-3.1-2.4-5.6-5.4-5.6-.9 0-1.7.2-2.4.6-.7-1.1-1.4-2.2-2-3.3 1.3-1 2.1-2.7 2.1-4.5 0-3.1-2.4-5.6-5.4-5.6-.3 0-.6 0-.9.1-.4-1.3-.7-2.7-1-4.1 2.1-.8 3.6-2.9 3.6-5.3 0-2.8-2-5.1-4.5-5.6 0-1.5.2-3.1.3-4.6 2.9 0 5.3-2.5 5.3-5.6 0-2.1-1.1-4-2.9-5 .4-1.3.9-2.5 1.5-3.7.5.2 1.1.3 1.6.3 3 0 5.4-2.5 5.4-5.6 0-1.5-.6-2.9-1.5-3.9.7-1 1.5-1.9 2.4-2.9.9.7 2 1 3.1 1 3 0 5.4-2.5 5.4-5.6 0-.9-.2-1.8-.6-2.5 1-.7 2.1-1.4 3.1-2.1 1 1.4 2.6 2.2 4.3 2.2 3 0 5.4-2.5 5.4-5.6 0-.3 0-.6-.1-.9 1.3-.4 2.6-.7 4-1 .7 2.2 2.8 3.8 5.1 3.8 2.7 0 4.9-2.1 5.3-4.7 1.5 0 3 .2 4.4.3 0 3.1 2.4 5.6 5.4 5.6 2 0 3.8-1.2 4.8-3 1.2.5 2.4 1 3.6 1.6-.2.5-.3 1.1-.3 1.7 0 3.1 2.4 5.6 5.4 5.6 1.4 0 2.8-.6 3.8-1.6.9.8 1.9 1.6 2.8 2.5-.6.9-1 2.1-1 3.2 0 3.1 2.4 5.6 5.4 5.6.9 0 1.7-.2 2.4-.6.7 1.1 1.4 2.2 2 3.2-1.3 1-2.1 2.7-2.1 4.5 0 3.1 2.4 5.6 5.4 5.6.3 0 .6 0 .9-.1.4 1.3.7 2.7 1 4.1-2.1.8-3.6 2.9-3.6 5.3 0 2.8 2 5.1 4.5 5.6 0 1.5-.1 3.1-.3 4.6-2.9 0-5.3 2.5-5.3 5.6 0 2.1 1.1 4 2.9 5-.4 1.3-.9 2.5-1.5 3.7-.5-.2-1.1-.3-1.6-.3-3 0-5.4 2.5-5.4 5.6 0 1.5.6 2.9 1.5 3.9-.7 1-1.5 1.9-2.4 2.9-.9-.7-2-1-3.1-1-3 0-5.4 2.5-5.4 5.6 0 .9.2 1.8.6 2.5-1 .7-2.1 1.4-3.1 2.1-1-1.4-2.6-2.2-4.3-2.2-3 0-5.4 2.5-5.4 5.6 0 .3 0 .6.1.9-1.3.4-2.6.7-4 1-.7-2.2-2.8-3.8-5.1-3.8-2.6-.1-4.8 2-5.2 4.7z"/><g><path class="st250" d="M252.8 13.4c-23.6 0-42.8 20-42.8 44.7 0 24.7 19.2 44.7 42.8 44.7 23.6 0 42.8-20 42.8-44.7 0-24.6-19.1-44.7-42.8-44.7"/><path d="M252.8 103.1c-23.7 0-43-20.2-43-45s19.3-45 43-45 43 20.2 43 45c.1 24.9-19.2 45-43 45zm0-89.4c-23.5 0-42.6 20-42.6 44.5s19.1 44.5 42.6 44.5 42.6-20 42.6-44.5c0-24.6-19.1-44.5-42.6-44.5z"/><path class="st251" d="M252.8 78.5c-10.7 0-19.3-9.1-19.3-20.2s8.7-20.2 19.3-20.2 19.3 9.1 19.3 20.2c.1 11.1-8.6 20.2-19.3 20.2zm0-40.4c-10.6 0-19.2 9-19.2 20.1s8.6 20.1 19.2 20.1 19.2-9 19.2-20.1-8.6-20.1-19.2-20.1z"/><path class="st252" d="M252.8 79.1c-11 0-19.9-9.3-19.9-20.8s8.9-20.8 19.9-20.8c11 0 19.9 9.3 19.9 20.8.1 11.4-8.9 20.8-19.9 20.8zm0-41.6c-10.9 0-19.8 9.3-19.8 20.7 0 11.4 8.9 20.7 19.8 20.7s19.8-9.3 19.8-20.7c0-11.4-8.8-20.7-19.8-20.7z"/><path class="st253" d="M252.8 79.7c-11.3 0-20.5-9.6-20.5-21.4 0-11.8 9.2-21.4 20.5-21.4s20.5 9.6 20.5 21.4c0 11.7-9.2 21.4-20.5 21.4zm0-42.8c-11.2 0-20.4 9.6-20.4 21.3 0 11.7 9.1 21.3 20.4 21.3 11.2 0 20.4-9.6 20.4-21.3 0-11.7-9.1-21.3-20.4-21.3z"/><path class="st254" d="M252.8 80.3c-11.6 0-21.1-9.9-21.1-22s9.4-22 21.1-22c11.6 0 21.1 9.9 21.1 22s-9.4 22-21.1 22zm0-44c-11.5 0-20.9 9.8-20.9 21.9 0 12.1 9.4 21.9 20.9 21.9 11.5 0 20.9-9.8 20.9-21.9.1-12-9.3-21.9-20.9-21.9z"/><path class="st255" d="M252.8 80.8c-11.9 0-21.6-10.1-21.6-22.6 0-12.5 9.7-22.6 21.6-22.6 11.9 0 21.6 10.1 21.6 22.6.1 12.5-9.6 22.6-21.6 22.6zm0-45.1c-11.9 0-21.5 10.1-21.5 22.5s9.6 22.5 21.5 22.5 21.5-10.1 21.5-22.5-9.6-22.5-21.5-22.5z"/><path class="st256" d="M252.8 81.4c-12.2 0-22.2-10.4-22.2-23.2 0-12.8 10-23.2 22.2-23.2S275 45.4 275 58.2c.1 12.8-9.9 23.2-22.2 23.2zm0-46.3c-12.2 0-22.1 10.4-22.1 23.1 0 12.7 9.9 23.1 22.1 23.1 12.2 0 22.1-10.4 22.1-23.1 0-12.7-9.9-23.1-22.1-23.1z"/><path class="st257" d="M252.8 82C240.2 82 230 71.3 230 58.2s10.2-23.8 22.8-23.8c12.6 0 22.8 10.7 22.8 23.8S265.4 82 252.8 82zm0-47.5c-12.5 0-22.7 10.6-22.7 23.7s10.2 23.7 22.7 23.7 22.7-10.6 22.7-23.7-10.2-23.7-22.7-23.7z"/><path class="st258" d="M252.8 82.6c-12.9 0-23.4-11-23.4-24.4 0-13.5 10.5-24.4 23.4-24.4 12.9 0 23.4 11 23.4 24.4 0 13.5-10.5 24.4-23.4 24.4zm0-48.7c-12.8 0-23.2 10.9-23.2 24.3s10.4 24.3 23.2 24.3c12.8 0 23.2-10.9 23.2-24.3.1-13.4-10.3-24.3-23.2-24.3z"/><path class="st259" d="M252.8 83.2c-13.2 0-23.9-11.2-23.9-25s10.7-25 23.9-25 23.9 11.2 23.9 25c.1 13.8-10.7 25-23.9 25zm0-49.9c-13.1 0-23.8 11.2-23.8 24.9s10.7 24.9 23.8 24.9c13.1 0 23.8-11.2 23.8-24.9S266 33.3 252.8 33.3z"/><path class="st260" d="M252.8 83.8c-13.5 0-24.5-11.5-24.5-25.6 0-14.1 11-25.6 24.5-25.6s24.5 11.5 24.5 25.6c.1 14.1-10.9 25.6-24.5 25.6zm0-51.1c-13.4 0-24.4 11.4-24.4 25.5 0 14 10.9 25.5 24.4 25.5 13.4 0 24.4-11.4 24.4-25.5 0-14-10.9-25.5-24.4-25.5z"/><path class="st261" d="M252.8 84.4c-13.8 0-25.1-11.8-25.1-26.2S239 32 252.8 32s25.1 11.8 25.1 26.2-11.2 26.2-25.1 26.2zm0-52.3c-13.8 0-24.9 11.7-24.9 26.1s11.2 26.1 24.9 26.1 24.9-11.7 24.9-26.1-11.1-26.1-24.9-26.1z"/><path class="st262" d="M252.8 85c-14.1 0-25.7-12-25.7-26.8s11.5-26.8 25.7-26.8c14.1 0 25.7 12 25.7 26.8S267 85 252.8 85zm0-53.5c-14.1 0-25.5 12-25.5 26.7s11.4 26.7 25.5 26.7 25.5-12 25.5-26.7c.1-14.7-11.4-26.7-25.5-26.7z"/><path class="st263" d="M252.8 85.6c-14.5 0-26.2-12.3-26.2-27.4 0-15.1 11.8-27.4 26.2-27.4S279 43.1 279 58.2c.1 15.1-11.7 27.4-26.2 27.4zm0-54.7c-14.4 0-26.1 12.2-26.1 27.3 0 15 11.7 27.3 26.1 27.3 14.4 0 26.1-12.2 26.1-27.3 0-15-11.7-27.3-26.1-27.3z"/><path class="st264" d="M252.8 86.2c-14.8 0-26.8-12.6-26.8-28 0-15.5 12-28 26.8-28s26.8 12.6 26.8 28c.1 15.5-12 28-26.8 28zm0-55.9c-14.7 0-26.7 12.5-26.7 27.9 0 15.4 12 27.9 26.7 27.9s26.7-12.5 26.7-27.9c0-15.4-12-27.9-26.7-27.9z"/><path class="st265" d="M252.8 86.8c-15.1 0-27.4-12.8-27.4-28.6s12.3-28.6 27.4-28.6 27.4 12.8 27.4 28.6-12.3 28.6-27.4 28.6zm0-57.1c-15 0-27.2 12.8-27.2 28.5s12.2 28.5 27.2 28.5S280 73.9 280 58.2c.1-15.7-12.1-28.5-27.2-28.5z"/><path class="st266" d="M252.8 87.4c-15.4 0-28-13.1-28-29.2s12.5-29.2 28-29.2c15.4 0 28 13.1 28 29.2s-12.5 29.2-28 29.2zm0-58.3c-15.3 0-27.8 13-27.8 29.1 0 16 12.5 29.1 27.8 29.1s27.8-13 27.8-29.1c0-16-12.4-29.1-27.8-29.1z"/><path class="st267" d="M252.8 88c-15.7 0-28.5-13.4-28.5-29.8s12.8-29.8 28.5-29.8 28.5 13.4 28.5 29.8c.1 16.5-12.7 29.8-28.5 29.8zm0-59.4c-15.6 0-28.4 13.3-28.4 29.7S237.1 88 252.8 88c15.6 0 28.4-13.3 28.4-29.7s-12.7-29.7-28.4-29.7z"/><path class="st268" d="M252.8 88.6c-16 0-29.1-13.6-29.1-30.4 0-16.8 13.1-30.4 29.1-30.4s29.1 13.6 29.1 30.4c0 16.8-13 30.4-29.1 30.4zm0-60.6c-16 0-28.9 13.6-28.9 30.3 0 16.7 13 30.3 28.9 30.3 16 0 28.9-13.6 28.9-30.3.1-16.8-12.9-30.3-28.9-30.3z"/><path class="st269" d="M252.8 89.2c-16.4 0-29.7-13.9-29.7-31s13.3-31 29.7-31 29.7 13.9 29.7 31-13.3 31-29.7 31zm0-61.9c-16.3 0-29.5 13.8-29.5 30.9 0 17 13.2 30.9 29.5 30.9s29.5-13.8 29.5-30.9c.1-17-13.2-30.9-29.5-30.9z"/><path class="st270" d="M252.8 89.8c-16.7 0-30.3-14.2-30.3-31.6 0-17.4 13.6-31.6 30.3-31.6 16.7 0 30.3 14.2 30.3 31.6 0 17.4-13.6 31.6-30.3 31.6zm0-63.1c-16.6 0-30.1 14.1-30.1 31.5 0 17.3 13.5 31.5 30.1 31.5s30.1-14.1 30.1-31.5c0-17.3-13.5-31.5-30.1-31.5z"/><path class="st271" d="M252.8 90.4c-17 0-30.8-14.5-30.8-32.2 0-17.8 13.8-32.2 30.8-32.2s30.8 14.5 30.8 32.2c.1 17.8-13.8 32.2-30.8 32.2zm0-64.2c-16.9 0-30.7 14.4-30.7 32.1 0 17.7 13.8 32.1 30.7 32.1s30.7-14.4 30.7-32.1c0-17.8-13.7-32.1-30.7-32.1z"/><path class="st272" d="M252.8 91c-17.3 0-31.4-14.7-31.4-32.8 0-18.1 14.1-32.8 31.4-32.8 17.3 0 31.4 14.7 31.4 32.8 0 18.1-14 32.8-31.4 32.8zm0-65.5c-17.2 0-31.2 14.6-31.2 32.7 0 18 14 32.6 31.2 32.6S284 76.2 284 58.2c.1-18-13.9-32.7-31.2-32.7z"/><path class="st273" d="M252.8 91.6c-17.6 0-32-15-32-33.4s14.3-33.4 32-33.4 32 15 32 33.4-14.3 33.4-32 33.4zm0-66.6C235.3 25 221 39.9 221 58.2c0 18.3 14.3 33.2 31.8 33.2s31.8-14.9 31.8-33.2c0-18.3-14.2-33.2-31.8-33.2z"/><path class="st274" d="M252.8 92.2c-17.9 0-32.6-15.3-32.6-34 0-18.8 14.6-34 32.6-34s32.6 15.3 32.6 34c0 18.8-14.6 34-32.6 34zm0-67.8c-17.9 0-32.4 15.2-32.4 33.8 0 18.7 14.5 33.8 32.4 33.8s32.4-15.2 32.4-33.8c0-18.7-14.5-33.8-32.4-33.8z"/><path class="st275" d="M252.8 92.8c-18.3 0-33.1-15.5-33.1-34.6s14.9-34.6 33.1-34.6S286 39.1 286 58.2s-14.9 34.6-33.2 34.6zm0-69c-18.2 0-32.9 15.4-32.9 34.4s14.8 34.4 32.9 34.4c18.2 0 32.9-15.5 32.9-34.4.1-19-14.7-34.4-32.9-34.4z"/><path class="st276" d="M252.8 93.4c-18.6 0-33.7-15.8-33.7-35.2S234.3 23 252.8 23c18.6 0 33.7 15.8 33.7 35.2s-15.1 35.2-33.7 35.2zm0-70.2c-18.5 0-33.5 15.7-33.5 35s15 35 33.5 35 33.5-15.7 33.5-35c.1-19.3-15-35-33.5-35z"/><path class="st277" d="M252.8 94c-18.9 0-34.3-16.1-34.3-35.8 0-19.8 15.4-35.8 34.3-35.8s34.3 16.1 34.3 35.8c0 19.8-15.4 35.8-34.3 35.8zm0-71.4c-18.8 0-34.1 16-34.1 35.6 0 19.7 15.3 35.6 34.1 35.6s34.1-16 34.1-35.6c0-19.7-15.3-35.6-34.1-35.6z"/><path class="st278" d="M252.8 94.6c-19.2 0-34.9-16.3-34.9-36.4 0-20.1 15.6-36.4 34.9-36.4s34.9 16.3 34.9 36.4c0 20.1-15.6 36.4-34.9 36.4zm0-72.6c-19.1 0-34.7 16.3-34.7 36.2 0 20 15.5 36.2 34.7 36.2s34.7-16.3 34.7-36.2c0-20-15.5-36.2-34.7-36.2z"/><path class="st279" d="M252.8 95.2c-19.5 0-35.4-16.6-35.4-37s15.9-37 35.4-37 35.4 16.6 35.4 37-15.8 37-35.4 37zm0-73.8c-19.4 0-35.2 16.5-35.2 36.8S233.4 95 252.8 95c19.4 0 35.2-16.5 35.2-36.8s-15.7-36.8-35.2-36.8z"/><path class="st280" d="M252.8 95.8c-19.8 0-36-16.9-36-37.6s16.1-37.6 36-37.6 36 16.9 36 37.6-16.1 37.6-36 37.6zm0-75c-19.7 0-35.8 16.8-35.8 37.4 0 20.6 16.1 37.4 35.8 37.4 19.7 0 35.8-16.8 35.8-37.4.1-20.7-16-37.4-35.8-37.4z"/><path class="st281" d="M252.8 96.4c-20.2 0-36.6-17.2-36.6-38.2 0-21.1 16.4-38.2 36.6-38.2 20.2 0 36.6 17.2 36.6 38.2 0 21.1-16.4 38.2-36.6 38.2zm0-76.2c-20.1 0-36.4 17.1-36.4 38 0 21 16.3 38 36.4 38 20.1 0 36.4-17.1 36.4-38 0-21-16.3-38-36.4-38z"/><path class="st282" d="M252.8 97c-20.5 0-37.1-17.4-37.1-38.8s16.7-38.8 37.1-38.8c20.5 0 37.1 17.4 37.1 38.8.1 21.4-16.6 38.8-37.1 38.8zm0-77.4c-20.4 0-37 17.3-37 38.6s16.6 38.6 37 38.6 36.9-17.3 36.9-38.6c.1-21.3-16.5-38.6-36.9-38.6z"/><path class="st283" d="M252.8 97.6c-20.8 0-37.7-17.7-37.7-39.4s16.9-39.4 37.7-39.4c20.8 0 37.7 17.7 37.7 39.4.1 21.7-16.9 39.4-37.7 39.4zm0-78.6c-20.7 0-37.5 17.6-37.5 39.2s16.8 39.2 37.5 39.2 37.5-17.6 37.5-39.2c.1-21.6-16.8-39.2-37.5-39.2z"/><path class="st284" d="M252.8 98.2c-21.1 0-38.3-18-38.3-40 0-22.1 17.2-40 38.3-40 21.1 0 38.3 18 38.3 40 0 22.1-17.1 40-38.3 40zm0-79.8c-21 0-38.1 17.9-38.1 39.8 0 22 17.1 39.8 38.1 39.8s38.1-17.9 38.1-39.8c0-22-17-39.8-38.1-39.8z"/><path class="st285" d="M252.8 98.8c-21.4 0-38.9-18.2-38.9-40.6 0-22.4 17.4-40.6 38.9-40.6 21.4 0 38.9 18.2 38.9 40.6 0 22.4-17.4 40.6-38.9 40.6zm0-81c-21.3 0-38.7 18.1-38.7 40.4 0 22.3 17.3 40.4 38.7 40.4s38.7-18.1 38.7-40.4c0-22.3-17.3-40.4-38.7-40.4z"/><path class="st286" d="M252.8 99.4c-21.8 0-39.4-18.5-39.4-41.2 0-22.7 17.7-41.2 39.4-41.2 21.8 0 39.4 18.5 39.4 41.2.1 22.7-17.6 41.2-39.4 41.2zm0-82.2c-21.6 0-39.2 18.4-39.2 41s17.6 41 39.2 41 39.2-18.4 39.2-41c.1-22.6-17.5-41-39.2-41z"/><path class="st287" d="M252.8 100c-22.1 0-40-18.8-40-41.8 0-23.1 18-41.8 40-41.8 22.1 0 40 18.8 40 41.8.1 23-17.9 41.8-40 41.8zm0-83.4c-22 0-39.8 18.7-39.8 41.6 0 22.9 17.9 41.6 39.8 41.6 22 0 39.8-18.7 39.8-41.6.1-23-17.8-41.6-39.8-41.6z"/><path class="st288" d="M252.8 100.6c-22.4 0-40.6-19-40.6-42.4s18.2-42.4 40.6-42.4c22.4 0 40.6 19 40.6 42.4s-18.2 42.4-40.6 42.4zm0-84.6c-22.3 0-40.4 18.9-40.4 42.2 0 23.3 18.1 42.2 40.4 42.2s40.4-18.9 40.4-42.2c0-23.3-18.1-42.2-40.4-42.2z"/><path class="st289" d="M252.8 101.2c-22.7 0-41.2-19.3-41.2-43s18.5-43 41.2-43c22.7 0 41.2 19.3 41.2 43s-18.5 43-41.2 43zm0-85.8c-22.6 0-41 19.2-41 42.8 0 23.6 18.4 42.8 41 42.8s41-19.2 41-42.8c0-23.6-18.4-42.8-41-42.8z"/><path class="st290" d="M252.8 101.8c-23 0-41.7-19.6-41.7-43.6 0-24.1 18.7-43.6 41.7-43.6s41.7 19.6 41.7 43.6c.1 24-18.6 43.6-41.7 43.6zm0-87c-22.9 0-41.5 19.5-41.5 43.4s18.6 43.4 41.5 43.4 41.5-19.5 41.5-43.4c.1-24-18.6-43.4-41.5-43.4z"/><path class="st291" d="M252.8 102.4c-23.3 0-42.3-19.8-42.3-44.2 0-24.4 19-44.2 42.3-44.2s42.3 19.8 42.3 44.2c.1 24.4-18.9 44.2-42.3 44.2zm0-88.2c-23.2 0-42.1 19.7-42.1 44s18.9 44 42.1 44c23.2 0 42.1-19.7 42.1-44s-18.8-44-42.1-44z"/><path d="M252.8 103c-23.7 0-42.9-20.1-42.9-44.8 0-24.7 19.2-44.8 42.9-44.8s42.9 20.1 42.9 44.8c0 24.7-19.2 44.8-42.9 44.8zm0-89.4c-23.5 0-42.7 20-42.7 44.6s19.1 44.6 42.7 44.6c23.5 0 42.7-20 42.7-44.6s-19.1-44.6-42.7-44.6z"/><path class="st292" d="M252.7 55.5c-1.5 0-2.6 1.2-2.6 2.7 0 1.5 1.2 2.7 2.6 2.7 1.5 0 2.6-1.2 2.6-2.7.1-1.5-1.1-2.7-2.6-2.7"/><path class="st251" d="M252.7 61c-1.5 0-2.6-1.2-2.6-2.8 0-1.5 1.2-2.8 2.6-2.8 1.5 0 2.6 1.2 2.6 2.8.1 1.5-1.1 2.8-2.6 2.8zm0-5.5c-1.4 0-2.6 1.2-2.6 2.7 0 1.5 1.2 2.7 2.6 2.7 1.4 0 2.6-1.2 2.6-2.7.1-1.5-1.1-2.7-2.6-2.7z"/><path class="st251" d="M252.9 71.6c-7.1 0-12.8-6-12.8-13.4s5.8-13.4 12.8-13.4c7.1 0 12.8 6 12.8 13.4s-5.8 13.4-12.8 13.4zm0-26.7c-7 0-12.7 5.9-12.7 13.3s5.7 13.3 12.7 13.3c7 0 12.7-5.9 12.7-13.3s-5.7-13.3-12.7-13.3z"/><g class="st293"><defs><path id="SVGID_00000011748267083868038630000016574256289997212586_" d="M222.8 26.6h60.3v63h-60.3z"/></defs><clipPath id="SVGID_00000003815027984362988230000000435337961083829643_"><use xlink:href="#SVGID_00000011748267083868038630000016574256289997212586_" style="overflow:visible"/></clipPath><path style="clip-path:url(#SVGID_00000003815027984362988230000000435337961083829643_);fill:#070707" d="M252.9 26.6c-16.6 0-30.1 14.1-30.1 31.5s13.5 31.5 30.1 31.5S283 75.5 283 58.1s-13.5-31.5-30.1-31.5"/><path class="st251" d="M252.9 89.7c-16.7 0-30.3-14.2-30.3-31.6 0-17.4 13.6-31.6 30.3-31.6 16.7 0 30.3 14.2 30.3 31.6 0 17.4-13.6 31.6-30.3 31.6zm0-62.9c-16.5 0-29.9 14-29.9 31.3 0 17.2 13.4 31.3 29.9 31.3s29.9-14 29.9-31.3-13.4-31.3-29.9-31.3z" style="clip-path:url(#SVGID_00000003815027984362988230000000435337961083829643_)"/></g><path class="st296" d="M237.1 58.2c0 9.1 7.1 16.5 15.8 16.5 8.7 0 15.8-7.4 15.8-16.5s-7.1-16.5-15.8-16.5c-8.8 0-15.8 7.3-15.8 16.5m18.3 0c0 1.5-1.2 2.7-2.6 2.7-1.5 0-2.6-1.2-2.6-2.7 0-1.5 1.2-2.7 2.6-2.7 1.4 0 2.6 1.2 2.6 2.7"/><path class="st251" d="M252.8 74.8c-8.8 0-15.9-7.4-15.9-16.6 0-9.2 7.1-16.6 15.9-16.6s15.9 7.4 15.9 16.6c0 9.1-7.1 16.6-15.9 16.6zm0-33c-8.7 0-15.7 7.4-15.7 16.4s7 16.4 15.7 16.4 15.7-7.4 15.7-16.4-7-16.4-15.7-16.4zm-.1 19.2c-1.5 0-2.7-1.3-2.7-2.8 0-1.6 1.2-2.8 2.7-2.8 1.5 0 2.7 1.3 2.7 2.8.1 1.6-1.2 2.8-2.7 2.8zm0-5.5c-1.4 0-2.5 1.2-2.5 2.7 0 1.5 1.1 2.7 2.5 2.7s2.5-1.2 2.5-2.7c.1-1.5-1.1-2.7-2.5-2.7z"/><g class="st293"><defs><path id="SVGID_00000068653691033171116160000001896259104686081969_" d="M216.2 18.1h73.1v80.1h-73.1z"/></defs><clipPath id="SVGID_00000132056403841435594610000005880223345338610567_"><use xlink:href="#SVGID_00000068653691033171116160000001896259104686081969_" style="overflow:visible"/></clipPath><path style="clip-path:url(#SVGID_00000132056403841435594610000005880223345338610567_);fill:#eee" d="m252.8 58.2-36.6 23.1c4.2 7.2 10.2 13 17.4 16.8l19.2-39.9 36.5-23.4c-4.2-7.1-10.3-12.9-17.5-16.7l-19 40.1z"/></g><path class="st298" d="M240.1 58.2c0 7.4 5.7 13.3 12.7 13.3 7 0 12.7-6 12.7-13.3s-5.7-13.3-12.7-13.3c-7 0-12.7 5.9-12.7 13.3m15.3 0c0 1.5-1.2 2.7-2.6 2.7-1.5 0-2.6-1.2-2.6-2.7 0-1.5 1.2-2.7 2.6-2.7 1.4 0 2.6 1.2 2.6 2.7"/><path class="st251" d="M252.9 71.6c-7.1 0-12.8-6-12.8-13.4s5.8-13.4 12.8-13.4c7.1 0 12.8 6 12.8 13.4s-5.8 13.4-12.8 13.4zm0-26.7c-7 0-12.7 5.9-12.7 13.3s5.7 13.3 12.7 13.3c7 0 12.7-5.9 12.7-13.3s-5.7-13.3-12.7-13.3zm-.2 16.1c-1.5 0-2.7-1.3-2.7-2.8 0-1.6 1.2-2.8 2.7-2.8 1.5 0 2.7 1.3 2.7 2.8 0 1.6-1.2 2.8-2.7 2.8zm0-5.5c-1.4 0-2.6 1.2-2.6 2.7 0 1.5 1.1 2.7 2.6 2.7 1.4 0 2.6-1.2 2.6-2.7 0-1.5-1.2-2.7-2.6-2.7z"/><path class="st251" d="M252.7 61c-1.5 0-2.6-1.2-2.6-2.8 0-1.5 1.2-2.8 2.6-2.8 1.5 0 2.6 1.2 2.6 2.8.1 1.5-1.1 2.8-2.6 2.8zm0-5.5c-1.4 0-2.6 1.2-2.6 2.7 0 1.5 1.2 2.7 2.6 2.7 1.4 0 2.6-1.2 2.6-2.7.1-1.5-1.1-2.7-2.6-2.7z"/></g><g><path class="st41" d="M54.5 109.4c-26.8 0-48.6-22.8-48.6-50.8 0-28 21.8-50.8 48.6-50.8s48.6 22.8 48.6 50.8c0 28-21.8 50.8-48.6 50.8zm0-99.5C28.8 9.9 7.9 31.7 7.9 58.6c0 26.8 20.9 48.7 46.6 48.7S101 85.4 101 58.6c0-26.9-20.9-48.7-46.5-48.7z"/><path class="st247" d="M54.5 110.9c-27.6 0-50-23.5-50-52.3 0-28.8 22.4-52.3 50-52.3s50 23.5 50 52.3c0 28.8-22.4 52.3-50 52.3zm0-102.4C28 8.5 6.5 31 6.5 58.6s21.5 50.1 47.9 50.1 47.9-22.5 47.9-50.1C102.4 31 80.9 8.5 54.5 8.5z"/><path class="st248" d="M101.3 58.6c0 27-21 48.9-46.8 48.9-25.9 0-46.8-21.9-46.8-48.9s21-48.9 46.8-48.9c25.8 0 46.8 21.9 46.8 48.9z"/><path class="st249" d="M101.1 58.9c-2.4 0-4.4-2.1-4.4-4.6 0-2.3 1.7-4.2 3.8-4.5-.4-2.1-.8-4.1-1.5-6.1-.5.2-1 .3-1.5.3-2.4 0-4.4-2.1-4.4-4.6 0-1.8 1-3.4 2.5-4.1-.9-1.7-1.9-3.4-3-5-.7.6-1.7 1-2.7 1-2.4 0-4.4-2.1-4.4-4.6 0-1.3.5-2.5 1.4-3.3-1.4-1.4-2.8-2.7-4.3-3.8-.8 1.2-2.1 2-3.6 2-2.4 0-4.4-2.1-4.4-4.6 0-.8.2-1.6.5-2.2-1.7-.9-3.6-1.7-5.4-2.4-.5 1.9-2.2 3.3-4.2 3.3-2.4 0-4.4-2.1-4.4-4.6 0-.3 0-.6.1-.9-2.1-.3-4.3-.5-6.4-.5v.2c0 2.5-2 4.6-4.4 4.6-2.2 0-4-1.7-4.3-4-2 .4-4 .9-5.9 1.5.2.5.3 1 .3 1.6 0 2.5-2 4.6-4.4 4.6-1.7 0-3.2-1.1-3.9-2.6-1.7 1-3.3 2-4.8 3.2.6.8.9 1.8.9 2.8 0 2.5-2 4.6-4.4 4.6-1.2 0-2.4-.5-3.2-1.4-1.3 1.4-2.5 2.9-3.7 4.5 1.2.8 1.9 2.2 1.9 3.8 0 2.5-2 4.6-4.4 4.6-.8 0-1.5-.2-2.1-.6-.9 1.8-1.6 3.7-2.2 5.6 1.8.6 3.1 2.3 3.1 4.4 0 2.5-2 4.6-4.4 4.6-.3 0-.6 0-.8-.1-.3 2.2-.5 4.4-.5 6.7h.2c2.4 0 4.4 2.1 4.4 4.6 0 2.3-1.6 4.2-3.8 4.5.4 2.1.9 4.2 1.5 6.2.5-.2 1-.3 1.5-.3 2.4 0 4.4 2.1 4.4 4.6 0 1.8-1 3.4-2.5 4.1.9 1.7 1.9 3.4 3 5 .7-.6 1.7-1 2.7-1 2.4 0 4.4 2.1 4.4 4.6 0 1.3-.5 2.5-1.4 3.3 1.4 1.4 2.8 2.6 4.3 3.8.8-1.2 2.1-2 3.6-2 2.4 0 4.4 2.1 4.4 4.6 0 .8-.2 1.6-.5 2.2 1.7.9 3.5 1.7 5.4 2.3.5-1.9 2.2-3.3 4.2-3.3 2.4 0 4.4 2.1 4.4 4.6 0 .3 0 .6-.1.9 2.1.3 4.2.5 6.4.5v-.2c0-2.5 2-4.6 4.4-4.6 2.2 0 4 1.7 4.3 4 2-.4 4-.9 5.9-1.5-.2-.5-.3-1-.3-1.6 0-2.5 2-4.6 4.4-4.6 1.7 0 3.2 1.1 3.9 2.6 1.7-1 3.3-2 4.8-3.2-.6-.8-.9-1.8-.9-2.8 0-2.5 2-4.6 4.4-4.6 1.2 0 2.4.5 3.2 1.4 1.3-1.4 2.5-2.9 3.7-4.5-1.2-.8-1.9-2.2-1.9-3.8 0-2.5 2-4.6 4.4-4.6.8 0 1.5.2 2.1.6.9-1.8 1.6-3.7 2.2-5.6-1.8-.6-3.1-2.3-3.1-4.4 0-2.5 2-4.6 4.4-4.6.3 0 .6 0 .8.1.3-2.2.5-4.4.5-6.7h-.2z"/><path class="st248" d="M101.1 60.3c-2.4-.1-4.3-2.2-4.3-4.7.1-2.3 1.8-4.2 3.9-4.4-.3-2.1-.7-4.2-1.3-6.2-.5.2-1 .3-1.5.2-2.4-.1-4.3-2.2-4.3-4.7.1-1.8 1.1-3.3 2.6-4-.9-1.8-1.8-3.5-2.9-5.1-.8.6-1.7.9-2.7.9-2.4-.1-4.3-2.2-4.3-4.7 0-1.3.6-2.5 1.5-3.3-1.3-1.4-2.7-2.7-4.2-4-.8 1.2-2.2 1.9-3.7 1.9-2.4-.1-4.3-2.2-4.3-4.7 0-.8.2-1.5.6-2.2-1.7-1-3.5-1.8-5.4-2.5-.6 1.9-2.3 3.2-4.3 3.2-2.4-.1-4.3-2.2-4.3-4.7 0-.3 0-.6.1-.9-2.1-.4-4.2-.6-6.4-.7v.2c-.1 2.5-2.1 4.5-4.5 4.4-2.2-.1-4-1.8-4.2-4.1-2 .3-4 .8-6 1.4.2.5.3 1 .2 1.6-.1 2.5-2.1 4.5-4.5 4.5-1.7-.1-3.2-1.2-3.9-2.7-1.7.9-3.3 1.9-4.9 3 .6.8.9 1.8.9 2.8-.1 2.5-2.1 4.5-4.5 4.4-1.2 0-2.4-.6-3.1-1.5-1.3 1.4-2.6 2.8-3.8 4.4 1.1.9 1.9 2.3 1.8 3.8-.1 2.5-2.1 4.5-4.5 4.5-.8 0-1.5-.3-2.1-.6-.9 1.8-1.7 3.7-2.4 5.6 1.8.6 3.1 2.4 3 4.5-.1 2.5-2.1 4.5-4.5 4.4-.3 0-.6 0-.8-.1-.4 2.2-.6 4.4-.7 6.7h.2c2.4.1 4.3 2.2 4.3 4.7-.1 2.3-1.8 4.2-3.9 4.4.3 2.1.7 4.2 1.3 6.2.5-.2 1-.3 1.5-.2 2.4.1 4.3 2.2 4.3 4.7 0 1.8-1.1 3.3-2.6 4 .9 1.8 1.8 3.5 2.9 5.1.8-.6 1.7-.9 2.7-.9 2.4.1 4.3 2.2 4.3 4.7 0 1.3-.6 2.5-1.4 3.3 1.3 1.4 2.7 2.7 4.2 3.9.8-1.2 2.2-1.9 3.7-1.9 2.4.1 4.3 2.2 4.3 4.7 0 .8-.2 1.5-.6 2.2 1.7.9 3.5 1.8 5.3 2.5.6-1.9 2.3-3.2 4.3-3.2 2.4.1 4.3 2.2 4.3 4.7 0 .3 0 .6-.1.9 2.1.4 4.2.6 6.4.7v-.2c.1-2.5 2.1-4.5 4.5-4.5 2.2.1 4 1.8 4.2 4.1 2-.3 4-.8 6-1.4-.2-.5-.3-1-.2-1.6.1-2.5 2.1-4.5 4.5-4.5 1.7.1 3.2 1.2 3.9 2.7 1.7-.9 3.3-1.9 4.9-3-.6-.8-.9-1.8-.9-2.9.1-2.5 2.1-4.5 4.5-4.5 1.2 0 2.3.6 3.1 1.5 1.3-1.4 2.6-2.8 3.8-4.4-1.1-.9-1.9-2.3-1.8-3.8.1-2.5 2.1-4.5 4.5-4.4.8 0 1.5.2 2.1.6.9-1.8 1.7-3.7 2.4-5.6-1.8-.6-3.1-2.4-3-4.5.1-2.5 2.1-4.5 4.5-4.4.3 0 .6 0 .8.1.4-2.2.6-4.4.7-6.7-.1.3-.2.3-.2.3z"/><path class="st247" d="M53.2 106.5c-1.5 0-2.9-.2-4.4-.3 0-3.1-2.4-5.6-5.4-5.6-2 0-3.8 1.2-4.8 3l-3.6-1.5c.2-.5.2-1.1.2-1.7 0-3.1-2.4-5.6-5.4-5.6-1.4 0-2.8.6-3.8 1.6-.9-.8-1.9-1.6-2.8-2.5.6-.9 1-2.1 1-3.2 0-3.1-2.4-5.6-5.4-5.6-.9 0-1.7.2-2.4.6-.7-1.1-1.4-2.2-2-3.3 1.3-1 2.1-2.7 2.1-4.5 0-3.1-2.4-5.6-5.4-5.6-.3 0-.6 0-.9.1-.4-1.3-.7-2.7-1-4.1 2.1-.8 3.6-2.9 3.6-5.3 0-2.8-2-5.1-4.5-5.6 0-1.5.2-3.1.3-4.6 2.9 0 5.3-2.5 5.3-5.6 0-2.1-1.1-4-2.9-5 .4-1.3.9-2.5 1.5-3.7.5.2 1.1.3 1.6.3 3 0 5.4-2.5 5.4-5.6 0-1.5-.6-2.9-1.5-3.9.7-1 1.5-1.9 2.4-2.9.9.7 2 1 3.1 1 3 0 5.4-2.5 5.4-5.6 0-.9-.2-1.8-.6-2.5 1-.7 2.1-1.4 3.1-2.1 1 1.4 2.6 2.2 4.3 2.2 3 0 5.4-2.5 5.4-5.6 0-.3 0-.6-.1-.9 1.3-.4 2.6-.7 4-1 .7 2.2 2.8 3.8 5.1 3.8 2.7 0 4.9-2.1 5.3-4.7 1.5 0 3 .2 4.4.3 0 3.1 2.4 5.6 5.4 5.6 2 0 3.8-1.2 4.8-3 1.2.5 2.4 1 3.6 1.6-.2.5-.3 1.1-.3 1.7 0 3.1 2.4 5.6 5.4 5.6 1.4 0 2.8-.6 3.8-1.6.9.8 1.9 1.6 2.8 2.5-.6.9-1 2.1-1 3.2 0 3.1 2.4 5.6 5.4 5.6.9 0 1.7-.2 2.4-.6.7 1.1 1.4 2.2 2 3.2-1.3 1-2.1 2.7-2.1 4.5 0 3.1 2.4 5.6 5.4 5.6.3 0 .6 0 .9-.1.4 1.3.7 2.7 1 4.1-2.1.8-3.6 2.9-3.6 5.3 0 2.8 2 5.1 4.5 5.6 0 1.5-.1 3.1-.3 4.6-2.9 0-5.3 2.5-5.3 5.6 0 2.1 1.1 4 2.9 5-.4 1.3-.9 2.5-1.5 3.7-.5-.2-1.1-.3-1.6-.3-3 0-5.4 2.5-5.4 5.6 0 1.5.6 2.9 1.5 3.9-.7 1-1.5 1.9-2.4 2.9-.9-.7-2-1-3.1-1-3 0-5.4 2.5-5.4 5.6 0 .9.2 1.8.6 2.5-1 .7-2.1 1.4-3.1 2.1-1-1.4-2.6-2.2-4.3-2.2-3 0-5.4 2.5-5.4 5.6 0 .3 0 .6.1.9-1.3.4-2.6.7-4 1-.7-2.2-2.8-3.8-5.1-3.8-2.5-.1-4.8 2-5.2 4.7z"/></g><g><path class="st250" d="M54.5 13.4c-23.6 0-42.8 20-42.8 44.7 0 24.7 19.2 44.7 42.8 44.7 23.6 0 42.8-20 42.8-44.7 0-24.6-19.2-44.7-42.8-44.7"/><path d="M54.5 103.1c-23.7 0-43-20.2-43-45s19.3-45 43-45 43 20.2 43 45c0 24.9-19.3 45-43 45zm0-89.4c-23.5 0-42.6 20-42.6 44.5s19.1 44.5 42.6 44.5 42.6-20 42.6-44.5C97 33.6 77.9 13.7 54.5 13.7z"/><path class="st251" d="M54.5 78.5c-10.7 0-19.3-9.1-19.3-20.2s8.7-20.2 19.3-20.2 19.3 9.1 19.3 20.2-8.7 20.2-19.3 20.2zm0-40.4c-10.6 0-19.2 9-19.2 20.1s8.6 20.1 19.2 20.1 19.2-9 19.2-20.1-8.6-20.1-19.2-20.1z"/><path class="st252" d="M54.5 79.1c-11 0-19.9-9.3-19.9-20.8s8.9-20.8 19.9-20.8c11 0 19.9 9.3 19.9 20.8 0 11.4-9 20.8-19.9 20.8zm0-41.6c-10.9 0-19.8 9.3-19.8 20.7 0 11.4 8.9 20.7 19.8 20.7s19.8-9.3 19.8-20.7c0-11.4-8.9-20.7-19.8-20.7z"/><path class="st253" d="M54.5 79.7C43.2 79.7 34 70 34 58.2s9.2-21.4 20.5-21.4S75 46.4 75 58.2c0 11.8-9.2 21.5-20.5 21.5zm0-42.8c-11.2 0-20.4 9.6-20.4 21.3 0 11.7 9.1 21.3 20.4 21.3 11.2 0 20.4-9.6 20.4-21.3-.1-11.7-9.2-21.3-20.4-21.3z"/><path class="st254" d="M54.5 80.3c-11.6 0-21.1-9.9-21.1-22s9.4-22 21.1-22c11.6 0 21.1 9.9 21.1 22-.1 12.1-9.5 22-21.1 22zm0-44c-11.5 0-20.9 9.8-20.9 21.9 0 12.1 9.4 21.9 20.9 21.9 11.5 0 20.9-9.8 20.9-21.9 0-12-9.4-21.9-20.9-21.9z"/><path class="st255" d="M54.5 80.8c-11.9 0-21.6-10.1-21.6-22.6 0-12.5 9.7-22.6 21.6-22.6 11.9 0 21.6 10.1 21.6 22.6 0 12.5-9.7 22.6-21.6 22.6zm0-45.1C42.6 35.7 33 45.8 33 58.2s9.6 22.5 21.5 22.5S76 70.6 76 58.2s-9.7-22.5-21.5-22.5z"/><path class="st256" d="M54.5 81.4c-12.2 0-22.2-10.4-22.2-23.2 0-12.8 10-23.2 22.2-23.2s22.2 10.4 22.2 23.2c0 12.8-10 23.2-22.2 23.2zm0-46.3c-12.2 0-22.1 10.4-22.1 23.1 0 12.7 9.9 23.1 22.1 23.1 12.2 0 22.1-10.4 22.1-23.1 0-12.7-10-23.1-22.1-23.1z"/><path class="st257" d="M54.5 82c-12.6 0-22.8-10.7-22.8-23.8s10.2-23.8 22.8-23.8c12.6 0 22.8 10.7 22.8 23.8S67 82 54.5 82zm0-47.5c-12.5 0-22.7 10.6-22.7 23.7S42 81.9 54.5 81.9s22.7-10.6 22.7-23.7S67 34.5 54.5 34.5z"/><path class="st258" d="M54.5 82.6c-12.9 0-23.4-11-23.4-24.4 0-13.5 10.5-24.4 23.4-24.4 12.9 0 23.4 11 23.4 24.4-.1 13.5-10.6 24.4-23.4 24.4zm0-48.7c-12.8 0-23.2 10.9-23.2 24.3s10.4 24.3 23.2 24.3c12.8 0 23.2-10.9 23.2-24.3S67.3 33.9 54.5 33.9z"/><path class="st259" d="M54.5 83.2c-13.2 0-23.9-11.2-23.9-25s10.7-25 23.9-25 23.9 11.2 23.9 25-10.7 25-23.9 25zm0-49.9c-13.1 0-23.8 11.2-23.8 24.9s10.7 24.9 23.8 24.9c13.1 0 23.8-11.2 23.8-24.9S67.6 33.3 54.5 33.3z"/><path class="st260" d="M54.5 83.8C41 83.8 30 72.3 30 58.2c0-14.1 11-25.6 24.5-25.6S79 44.1 79 58.2c0 14.1-11 25.6-24.5 25.6zm0-51.1c-13.4 0-24.4 11.4-24.4 25.5 0 14 10.9 25.5 24.4 25.5 13.4 0 24.4-11.4 24.4-25.5-.1-14-11-25.5-24.4-25.5z"/><path class="st261" d="M54.5 84.4c-13.8 0-25.1-11.8-25.1-26.2S40.6 32 54.5 32c13.8 0 25.1 11.8 25.1 26.2S68.3 84.4 54.5 84.4zm0-52.3c-13.8 0-24.9 11.7-24.9 26.1s11.2 26.1 24.9 26.1 24.9-11.7 24.9-26.1-11.2-26.1-24.9-26.1z"/><path class="st262" d="M54.5 85c-14.1 0-25.7-12-25.7-26.8s11.5-26.8 25.7-26.8c14.1 0 25.7 12 25.7 26.8C80.1 73 68.6 85 54.5 85zm0-53.5c-14.1 0-25.5 12-25.5 26.7s11.4 26.7 25.5 26.7S80 72.9 80 58.2 68.5 31.5 54.5 31.5z"/><path class="st263" d="M54.5 85.6c-14.5 0-26.2-12.3-26.2-27.4 0-15.1 11.8-27.4 26.2-27.4s26.2 12.3 26.2 27.4c0 15.1-11.8 27.4-26.2 27.4zm0-54.7c-14.4 0-26.1 12.2-26.1 27.3 0 15 11.7 27.3 26.1 27.3s26.1-12.2 26.1-27.3c0-15-11.7-27.3-26.1-27.3z"/><path class="st264" d="M54.5 86.2c-14.8 0-26.8-12.6-26.8-28 0-15.5 12-28 26.8-28s26.8 12.6 26.8 28c0 15.5-12.1 28-26.8 28zm0-55.9c-14.7 0-26.7 12.5-26.7 27.9 0 15.4 12 27.9 26.7 27.9s26.7-12.5 26.7-27.9c-.1-15.4-12-27.9-26.7-27.9z"/><path class="st265" d="M54.5 86.8c-15.1 0-27.4-12.8-27.4-28.6s12.3-28.6 27.4-28.6 27.4 12.8 27.4 28.6C81.8 74 69.6 86.8 54.5 86.8zm0-57.1c-15 0-27.2 12.8-27.2 28.5s12.2 28.5 27.2 28.5 27.2-12.8 27.2-28.5-12.2-28.5-27.2-28.5z"/><path class="st266" d="M54.5 87.4c-15.4 0-28-13.1-28-29.2S39 29 54.5 29c15.4 0 28 13.1 28 29.2-.1 16.1-12.6 29.2-28 29.2zm0-58.3c-15.3 0-27.8 13-27.8 29.1 0 16 12.5 29.1 27.8 29.1s27.8-13 27.8-29.1c0-16-12.5-29.1-27.8-29.1z"/><path class="st267" d="M54.5 88C38.8 88 26 74.6 26 58.2s12.8-29.8 28.5-29.8S83 41.8 83 58.2C83 74.7 70.2 88 54.5 88zm0-59.4c-15.6 0-28.4 13.3-28.4 29.7S38.8 88 54.5 88c15.6 0 28.4-13.3 28.4-29.7-.1-16.4-12.8-29.7-28.4-29.7z"/><path class="st268" d="M54.5 88.6c-16 0-29.1-13.6-29.1-30.4 0-16.8 13.1-30.4 29.1-30.4s29.1 13.6 29.1 30.4c0 16.8-13.1 30.4-29.1 30.4zm0-60.6c-16 0-28.9 13.6-28.9 30.3 0 16.7 13 30.3 28.9 30.3 16 0 28.9-13.6 28.9-30.3 0-16.8-13-30.3-28.9-30.3z"/><path class="st269" d="M54.5 89.2c-16.4 0-29.7-13.9-29.7-31s13.3-31 29.7-31 29.7 13.9 29.7 31c-.1 17.1-13.4 31-29.7 31zm0-61.9C38.2 27.3 25 41.2 25 58.2s13.2 30.9 29.5 30.9C70.7 89.1 84 75.2 84 58.2S70.7 27.3 54.5 27.3z"/><path class="st270" d="M54.5 89.8c-16.7 0-30.3-14.2-30.3-31.6 0-17.4 13.6-31.6 30.3-31.6 16.7 0 30.3 14.2 30.3 31.6-.1 17.4-13.6 31.6-30.3 31.6zm0-63.1c-16.6 0-30.1 14.1-30.1 31.5 0 17.3 13.5 31.5 30.1 31.5s30.1-14.1 30.1-31.5c0-17.3-13.5-31.5-30.1-31.5z"/><path class="st271" d="M54.5 90.4c-17 0-30.8-14.5-30.8-32.2C23.6 40.4 37.5 26 54.5 26s30.8 14.5 30.8 32.2c0 17.8-13.8 32.2-30.8 32.2zm0-64.2c-16.9 0-30.7 14.4-30.7 32.1 0 17.7 13.8 32.1 30.7 32.1S85.2 76 85.2 58.3c-.1-17.8-13.8-32.1-30.7-32.1z"/><path class="st272" d="M54.5 91c-17.3 0-31.4-14.7-31.4-32.8 0-18.1 14.1-32.8 31.4-32.8 17.3 0 31.4 14.7 31.4 32.8C85.9 76.3 71.8 91 54.5 91zm0-65.5c-17.2 0-31.2 14.6-31.2 32.7 0 18 14 32.6 31.2 32.6s31.2-14.6 31.2-32.6-14-32.7-31.2-32.7z"/><path class="st273" d="M54.5 91.6c-17.6 0-32-15-32-33.4s14.3-33.4 32-33.4 32 15 32 33.4c-.1 18.4-14.4 33.4-32 33.4zm0-66.6C37 25 22.7 39.9 22.7 58.2c0 18.3 14.3 33.2 31.8 33.2s31.8-14.9 31.8-33.2C86.3 39.9 72 25 54.5 25z"/><path class="st274" d="M54.5 92.2c-17.9 0-32.6-15.3-32.6-34 0-18.8 14.6-34 32.6-34S87 39.4 87 58.2s-14.6 34-32.5 34zm0-67.8c-17.9 0-32.4 15.2-32.4 33.8C22.1 76.9 36.6 92 54.5 92s32.4-15.2 32.4-33.8c-.1-18.7-14.6-33.8-32.4-33.8z"/><path class="st275" d="M54.5 92.8c-18.3 0-33.1-15.5-33.1-34.6s14.9-34.6 33.1-34.6 33.1 15.5 33.1 34.6-14.9 34.6-33.1 34.6zm0-69c-18.2 0-32.9 15.4-32.9 34.4s14.8 34.4 32.9 34.4c18.2 0 32.9-15.5 32.9-34.4 0-19-14.8-34.4-32.9-34.4z"/><path class="st276" d="M54.5 93.4c-18.6 0-33.7-15.8-33.7-35.2S35.9 23 54.5 23s33.7 15.8 33.7 35.2-15.1 35.2-33.7 35.2zm0-70.2C36 23.2 21 38.9 21 58.2s15 35 33.5 35S88 77.5 88 58.2s-15-35-33.5-35z"/><path class="st277" d="M54.5 94c-18.9 0-34.3-16-34.3-35.8 0-19.8 15.4-35.8 34.3-35.8s34.3 16.1 34.3 35.8C88.7 78 73.4 94 54.5 94zm0-71.4c-18.8 0-34.1 16-34.1 35.6 0 19.7 15.3 35.6 34.1 35.6s34.1-16 34.1-35.6c0-19.7-15.3-35.6-34.1-35.6z"/><path class="st278" d="M54.5 94.6c-19.2 0-34.9-16.3-34.9-36.4 0-20.1 15.6-36.4 34.9-36.4s34.9 16.3 34.9 36.4c-.1 20.1-15.7 36.4-34.9 36.4zm0-72.6c-19.1 0-34.7 16.3-34.7 36.2 0 20 15.5 36.2 34.7 36.2s34.7-16.3 34.7-36.2C89.1 38.2 73.6 22 54.5 22z"/><path class="st279" d="M54.5 95.2c-19.5 0-35.4-16.6-35.4-37s15.9-37 35.4-37 35.4 16.6 35.4 37-15.9 37-35.4 37zm0-73.8c-19.4 0-35.2 16.5-35.2 36.8S35 95 54.5 95c19.4 0 35.2-16.5 35.2-36.8S73.9 21.4 54.5 21.4z"/><path class="st280" d="M54.5 95.8c-19.8 0-36-16.9-36-37.6s16.1-37.6 36-37.6 36 16.9 36 37.6-16.2 37.6-36 37.6zm0-75c-19.7 0-35.8 16.8-35.8 37.4 0 20.6 16.1 37.4 35.8 37.4 19.7 0 35.8-16.8 35.8-37.4 0-20.7-16.1-37.4-35.8-37.4z"/><path class="st281" d="M54.5 96.4c-20.2 0-36.6-17.2-36.6-38.2C17.9 37.1 34.3 20 54.5 20 74.6 19.9 91 37.1 91 58.2S74.6 96.4 54.5 96.4zm0-76.2c-20.1 0-36.4 17.1-36.4 38 0 21 16.3 38 36.4 38 20.1 0 36.4-17.1 36.4-38-.1-21-16.4-38-36.4-38z"/><path class="st282" d="M54.5 97C34 97 17.3 79.6 17.3 58.2S34 19.4 54.4 19.4c20.5 0 37.1 17.4 37.1 38.8C91.6 79.6 75 97 54.5 97zm0-77.4c-20.4 0-37 17.3-37 38.6s16.6 38.6 37 38.6 36.9-17.3 36.9-38.6-16.6-38.6-36.9-38.6z"/><path class="st283" d="M54.5 97.6c-20.8 0-37.7-17.7-37.7-39.4s16.9-39.4 37.7-39.4c20.8 0 37.7 17.7 37.7 39.4S75.3 97.6 54.5 97.6zm0-78.6C33.8 19 17 36.6 17 58.2s16.8 39.2 37.5 39.2S92 79.8 92 58.2 75.2 19 54.5 19z"/><path class="st284" d="M54.5 98.2c-21.1 0-38.3-18-38.3-40 0-22.1 17.2-40 38.3-40 21.1 0 38.3 18 38.3 40 0 22.1-17.2 40-38.3 40zm0-79.8c-21 0-38.1 17.9-38.1 39.8 0 22 17.1 39.8 38.1 39.8s38.1-17.9 38.1-39.8c0-22-17.1-39.8-38.1-39.8z"/><path class="st285" d="M54.5 98.8c-21.4 0-38.9-18.2-38.9-40.6 0-22.4 17.4-40.6 38.9-40.6 21.4 0 38.9 18.2 38.9 40.6-.1 22.4-17.5 40.6-38.9 40.6zm0-81c-21.3 0-38.7 18.1-38.7 40.4 0 22.3 17.3 40.4 38.7 40.4s38.7-18.1 38.7-40.4c-.1-22.3-17.4-40.4-38.7-40.4z"/><path class="st286" d="M54.5 99.4C32.7 99.4 15 80.9 15 58.2 15 35.5 32.7 17 54.4 17c21.8 0 39.4 18.5 39.4 41.2.1 22.7-17.6 41.2-39.3 41.2zm0-82.2c-21.6 0-39.2 18.4-39.2 41s17.6 41 39.2 41 39.2-18.4 39.2-41-17.6-41-39.2-41z"/><path class="st287" d="M54.5 100c-22.1 0-40-18.8-40-41.8 0-23.1 18-41.8 40-41.8 22.1 0 40 18.8 40 41.8 0 23-18 41.8-40 41.8zm0-83.4c-22 0-39.8 18.7-39.8 41.6 0 22.9 17.9 41.6 39.8 41.6 22 0 39.8-18.7 39.8-41.6 0-23-17.9-41.6-39.8-41.6z"/><path class="st288" d="M54.5 100.6c-22.4 0-40.6-19-40.6-42.4s18.2-42.4 40.6-42.4c22.4 0 40.6 19 40.6 42.4s-18.2 42.4-40.6 42.4zm0-84.6c-22.3 0-40.4 18.9-40.4 42.2 0 23.3 18.1 42.2 40.4 42.2s40.4-18.9 40.4-42.2C94.8 34.9 76.7 16 54.5 16z"/><path class="st289" d="M54.5 101.2c-22.7 0-41.2-19.3-41.2-43s18.5-43 41.2-43c22.7 0 41.2 19.3 41.2 43-.1 23.7-18.5 43-41.2 43zm0-85.8c-22.6 0-41 19.2-41 42.8 0 23.6 18.4 42.8 41 42.8s41-19.2 41-42.8c-.1-23.6-18.4-42.8-41-42.8z"/><path class="st290" d="M54.5 101.8c-23 0-41.7-19.6-41.7-43.6 0-24.1 18.7-43.6 41.7-43.6s41.7 19.6 41.7 43.6-18.7 43.6-41.7 43.6zm0-87C31.6 14.8 13 34.3 13 58.2s18.6 43.4 41.5 43.4S96 82.1 96 58.2c0-24-18.6-43.4-41.5-43.4z"/><path class="st291" d="M54.5 102.4c-23.3 0-42.3-19.8-42.3-44.2 0-24.4 19-44.2 42.3-44.2s42.3 19.8 42.3 44.2c0 24.4-19 44.2-42.3 44.2zm0-88.2c-23.2 0-42.1 19.7-42.1 44s18.9 44 42.1 44c23.2 0 42.1-19.7 42.1-44s-18.9-44-42.1-44z"/><path d="M54.5 103c-23.7 0-42.9-20.1-42.9-44.8 0-24.7 19.2-44.8 42.9-44.8s42.9 20.1 42.9 44.8c0 24.7-19.3 44.8-42.9 44.8zm0-89.4c-23.5 0-42.7 20-42.7 44.6s19.1 44.6 42.7 44.6c23.5 0 42.7-20 42.7-44.6-.1-24.6-19.2-44.6-42.7-44.6z"/><path class="st292" d="M54.4 55.5c-1.5 0-2.6 1.2-2.6 2.7 0 1.5 1.2 2.7 2.6 2.7 1.5 0 2.6-1.2 2.6-2.7 0-1.5-1.2-2.7-2.6-2.7"/><path class="st251" d="M54.4 61c-1.5 0-2.6-1.2-2.6-2.8 0-1.5 1.2-2.8 2.6-2.8 1.5 0 2.6 1.2 2.6 2.8 0 1.5-1.2 2.8-2.6 2.8zm0-5.5c-1.4 0-2.6 1.2-2.6 2.7 0 1.5 1.2 2.7 2.6 2.7 1.4 0 2.6-1.2 2.6-2.7 0-1.5-1.2-2.7-2.6-2.7z"/><path class="st251" d="M54.5 71.6c-7.1 0-12.8-6-12.8-13.4s5.8-13.4 12.8-13.4c7.1 0 12.8 6 12.8 13.4s-5.7 13.4-12.8 13.4zm0-26.7c-7 0-12.7 5.9-12.7 13.3s5.7 13.3 12.7 13.3c7 0 12.7-5.9 12.7-13.3s-5.7-13.3-12.7-13.3z"/><g class="st293"><defs><path id="SVGID_00000061453102962584810270000001671396572350590126_" d="M24.4 26.6h60.3v63H24.4z"/></defs><clipPath id="SVGID_00000124141334984049298510000012531143325515165321_"><use xlink:href="#SVGID_00000061453102962584810270000001671396572350590126_" style="overflow:visible"/></clipPath><path style="clip-path:url(#SVGID_00000124141334984049298510000012531143325515165321_);fill:#070707" d="M54.5 26.6c-16.6 0-30.1 14.1-30.1 31.5s13.5 31.5 30.1 31.5 30.1-14.1 30.1-31.5-13.4-31.5-30.1-31.5"/><path class="st251" d="M54.5 89.7c-16.7 0-30.3-14.2-30.3-31.6 0-17.4 13.6-31.6 30.3-31.6 16.7 0 30.3 14.2 30.3 31.6 0 17.4-13.6 31.6-30.3 31.6zm0-62.9c-16.5 0-29.9 14-29.9 31.3 0 17.2 13.4 31.3 29.9 31.3s29.9-14 29.9-31.3c.1-17.3-13.4-31.3-29.9-31.3z" style="clip-path:url(#SVGID_00000124141334984049298510000012531143325515165321_)"/></g><path class="st296" d="M38.7 58.2c0 9.1 7.1 16.5 15.8 16.5 8.7 0 15.8-7.4 15.8-16.5s-7.1-16.5-15.8-16.5c-8.8 0-15.8 7.3-15.8 16.5m18.3 0c0 1.5-1.2 2.7-2.6 2.7-1.5 0-2.6-1.2-2.6-2.7 0-1.5 1.2-2.7 2.6-2.7 1.4 0 2.6 1.2 2.6 2.7"/><path class="st251" d="M54.5 74.8c-8.8 0-15.9-7.4-15.9-16.6 0-9.2 7.1-16.6 15.9-16.6S70.3 49 70.3 58.2c0 9.1-7.1 16.6-15.8 16.6zm0-33c-8.7 0-15.7 7.4-15.7 16.4s7 16.4 15.7 16.4 15.7-7.4 15.7-16.4-7.1-16.4-15.7-16.4zM54.4 61c-1.5 0-2.7-1.3-2.7-2.8 0-1.6 1.2-2.8 2.7-2.8 1.5 0 2.7 1.3 2.7 2.8 0 1.6-1.2 2.8-2.7 2.8zm0-5.5c-1.4 0-2.5 1.2-2.5 2.7 0 1.5 1.1 2.7 2.5 2.7s2.5-1.2 2.5-2.7c0-1.5-1.1-2.7-2.5-2.7z"/><g class="st293"><defs><path id="SVGID_00000130627958393591349030000001429571450843969701_" d="M17.9 18.1H91v80.1H17.9z"/></defs><clipPath id="SVGID_00000017499833732726201400000010727269367832818057_"><use xlink:href="#SVGID_00000130627958393591349030000001429571450843969701_" style="overflow:visible"/></clipPath><path style="clip-path:url(#SVGID_00000017499833732726201400000010727269367832818057_);fill:#eee" d="M54.5 58.2 17.9 81.3c4.2 7.2 10.2 13 17.4 16.8l19.2-39.9L91 34.8c-4.2-7.1-10.3-12.9-17.5-16.7l-19 40.1z"/></g><path class="st298" d="M41.7 58.2c0 7.4 5.7 13.3 12.7 13.3s12.7-6 12.7-13.3-5.7-13.3-12.7-13.3-12.7 5.9-12.7 13.3m15.3 0c0 1.5-1.2 2.7-2.6 2.7-1.5 0-2.6-1.2-2.6-2.7 0-1.5 1.2-2.7 2.6-2.7 1.4 0 2.6 1.2 2.6 2.7"/><path class="st251" d="M54.5 71.6c-7.1 0-12.8-6-12.8-13.4s5.8-13.4 12.8-13.4c7.1 0 12.8 6 12.8 13.4s-5.7 13.4-12.8 13.4zm0-26.7c-7 0-12.7 5.9-12.7 13.3s5.7 13.3 12.7 13.3c7 0 12.7-5.9 12.7-13.3s-5.7-13.3-12.7-13.3zM54.4 61c-1.5 0-2.7-1.3-2.7-2.8 0-1.6 1.2-2.8 2.7-2.8 1.5 0 2.7 1.3 2.7 2.8 0 1.6-1.2 2.8-2.7 2.8zm0-5.5c-1.4 0-2.6 1.2-2.6 2.7 0 1.5 1.1 2.7 2.6 2.7 1.4 0 2.6-1.2 2.6-2.7-.1-1.5-1.2-2.7-2.6-2.7z"/><path class="st251" d="M54.4 61c-1.5 0-2.6-1.2-2.6-2.8 0-1.5 1.2-2.8 2.6-2.8 1.5 0 2.6 1.2 2.6 2.8 0 1.5-1.2 2.8-2.6 2.8zm0-5.5c-1.4 0-2.6 1.2-2.6 2.7 0 1.5 1.2 2.7 2.6 2.7 1.4 0 2.6-1.2 2.6-2.7 0-1.5-1.2-2.7-2.6-2.7z"/></g></g><path d="M100.6 82.9h100.6v1.8H100.6z" id="Layer_14"/><g id="Layer_21"><path d="M255.3 9.5v1.1M60 10.6V9.5"/><linearGradient id="SVGID_00000054258165113451259210000008251891695987424145_" gradientUnits="userSpaceOnUse" x1="134.835" y1="82.537" x2="129.501" y2="21.571"><stop offset=".207" style="stop-color:#5df4f0"/><stop offset=".296" style="stop-color:#36a9e1"/><stop offset=".38" style="stop-color:#f464cf"/><stop offset=".542" style="stop-color:#f4c3ed"/><stop offset=".662" style="stop-color:#f47bd6"/><stop offset="1" style="stop-color:#f464cf"/></linearGradient><linearGradient id="SVGID_00000113337396546932118210000012908906748515637902_" gradientUnits="userSpaceOnUse" x1="103.553" y1="53.054" x2="163.095" y2="53.054"><stop offset="0" style="stop-color:#f464cf"/><stop offset=".4" style="stop-color:#fff"/><stop offset=".514" style="stop-color:#f464cf"/><stop offset=".818" style="stop-color:#f47bd6"/><stop offset="1" style="stop-color:#f464cf"/></linearGradient><path style="fill:url(#SVGID_00000054258165113451259210000008251891695987424145_);stroke:url(#SVGID_00000113337396546932118210000012908906748515637902_);stroke-miterlimit:10" d="M104.1 23.8h29.2c8.8 0 15.2 1.2 19.2 3.6 4 2.4 6.8 6 8.5 10.8 1.1 3.4 1.7 7.6 1.7 12.8 0 8.7-1.5 15.6-4.6 20.8-2.4 4-5.3 6.8-8.7 8.4-3.4 1.5-8.5 2.3-15.2 2.3h-30V23.8zm22.3 42.1h3.3c3.8 0 6.5-.8 8.1-2.4 1.9-1.9 2.8-5.2 2.8-10.1 0-4.2-.7-7.1-2.2-8.6-1.2-1.3-3.5-1.9-6.8-1.9h-5.3v23z"/><linearGradient id="SVGID_00000173138889563001530380000013112457864106551994_" gradientUnits="userSpaceOnUse" x1="187.561" y1="83.323" x2="182.343" y2="23.682"><stop offset=".207" style="stop-color:#5df4f0"/><stop offset=".296" style="stop-color:#36a9e1"/><stop offset=".38" style="stop-color:#f464cf"/><stop offset=".542" style="stop-color:#f4c3ed"/><stop offset=".662" style="stop-color:#f47bd6"/><stop offset="1" style="stop-color:#f464cf"/></linearGradient><linearGradient id="SVGID_00000011730939822209015980000000568977369107773331_" gradientUnits="userSpaceOnUse" x1="165.28" y1="53.632" x2="204.461" y2="53.632"><stop offset="0" style="stop-color:#f464cf"/><stop offset=".4" style="stop-color:#fff"/><stop offset=".514" style="stop-color:#f464cf"/><stop offset=".818" style="stop-color:#f47bd6"/><stop offset="1" style="stop-color:#f464cf"/></linearGradient><path style="fill:url(#SVGID_00000173138889563001530380000013112457864106551994_);stroke:url(#SVGID_00000011730939822209015980000000568977369107773331_);stroke-miterlimit:10" d="M203.9 23.8v42.6c0 6.5-1.8 11.1-5.3 13.6-3.2 2.3-8.2 3.5-15 3.5-3.9 0-8.2-.4-12.9-1.2-1.7-.3-3.3-.8-5-1.4V65.5c2.3.7 4.8 1 7.6 1 3.7 0 6-.7 6.8-2.2.5-1 .8-2.8.8-5.6V23.8h23z"/><g><linearGradient id="SVGID_00000142142097753199799600000013444469255749403813_" gradientUnits="userSpaceOnUse" x1="56.098" y1="145.641" x2="56.098" y2="92.746"><stop offset=".207" style="stop-color:#5df4f0"/><stop offset=".296" style="stop-color:#36a9e1"/><stop offset=".38" style="stop-color:#f464cf"/><stop offset=".542" style="stop-color:#f4c3ed"/><stop offset=".662" style="stop-color:#f47bd6"/><stop offset="1" style="stop-color:#f464cf"/></linearGradient><path style="fill:url(#SVGID_00000142142097753199799600000013444469255749403813_)" d="M78.5 96v17.3c-4.1-1.2-8.3-1.7-12.6-1.7-3.9 0-6.7.6-8.5 1.7-1.8 1.2-2.8 3.5-2.8 7.1 0 3 .7 5.1 2 6.5 1.7 1.8 4.8 2.7 9.2 2.7 3.1 0 7.4-.5 12.7-1.6v14.8c-2.7 1.1-5.3 1.9-7.6 2.2-2.6.4-6.1.6-10.5.6-6.4 0-11.3-.7-14.5-2.1-4.9-2.1-8.3-5.8-10.3-11.3-1.3-3.5-1.9-8.1-1.9-13.6 0-9.4 2-16.1 6.1-20.1 4.1-3.9 10.6-5.9 19.4-5.9 4.2 0 8.2.4 12 1.2 1.9.5 4.3 1.2 7.3 2.2z"/><image style="overflow:visible" width="45.8" height="53.9" xlink:href="1B02A724471102CF.png" transform="translate(33.202 92.246)"/><linearGradient id="SVGID_00000183217770981653667340000007919197454013309828_" gradientUnits="userSpaceOnUse" x1="109.612" y1="144.586" x2="109.612" y2="93.16"><stop offset=".207" style="stop-color:#5df4f0"/><stop offset=".296" style="stop-color:#36a9e1"/><stop offset=".38" style="stop-color:#f464cf"/><stop offset=".542" style="stop-color:#f4c3ed"/><stop offset=".662" style="stop-color:#f47bd6"/><stop offset="1" style="stop-color:#f464cf"/></linearGradient><path style="fill:url(#SVGID_00000183217770981653667340000007919197454013309828_)" d="M115.1 126.3h-10.9v18.3H84.5V93.2h19.6v18.2H115V93.2h19.6v51.4H115v-18.3z"/><image style="overflow:visible" width="51.2" height="52.4" xlink:href="1B02A724471102CD.png" transform="translate(84.01 92.66)"/><g><linearGradient id="SVGID_00000062151564643068608870000013619422055564306607_" gradientUnits="userSpaceOnUse" x1="168.913" y1="144.586" x2="168.913" y2="93.16"><stop offset=".207" style="stop-color:#5df4f0"/><stop offset=".296" style="stop-color:#36a9e1"/><stop offset=".38" style="stop-color:#f464cf"/><stop offset=".542" style="stop-color:#f4c3ed"/><stop offset=".662" style="stop-color:#f47bd6"/><stop offset="1" style="stop-color:#f464cf"/></linearGradient><path style="fill:url(#SVGID_00000062151564643068608870000013619422055564306607_)" d="M142.5 93.2h36.2c3.9 0 7 .8 9.2 2.3 3.7 2.6 5.6 6.7 5.6 12.3 0 3.4-.7 6.4-2.1 8.9-1.6 3-4.1 4.9-7.4 5.9-1 .3-2.4.6-4.3.8l15.7 21.2h-22.6l-9.2-14.6c-.3-.4-.7-1.3-1.3-2.7h-.4c.2 1.5.3 2.6.3 3.4v13.9h-19.6V93.2zm19.6 24.5h4.4c2.6 0 4.4-.4 5.4-1.2 1.1-.9 1.7-2.3 1.7-4.3 0-3.3-1.8-4.9-5.5-4.9h-6v10.4z"/><image style="overflow:visible" width="54.4" height="52.4" xlink:href="1B02A724471102D3.png" transform="translate(141.969 92.66)"/><image style="overflow:visible" width="12.5" height="11.5" xlink:href="1B02A724471102D5.png" transform="translate(161.603 106.75)"/></g><g><linearGradient id="SVGID_00000077311030811571404110000003070564203665134478_" gradientUnits="userSpaceOnUse" x1="209.809" y1="144.586" x2="209.809" y2="93.16"><stop offset=".207" style="stop-color:#5df4f0"/><stop offset=".296" style="stop-color:#36a9e1"/><stop offset=".38" style="stop-color:#f464cf"/><stop offset=".542" style="stop-color:#f4c3ed"/><stop offset=".662" style="stop-color:#f47bd6"/><stop offset="1" style="stop-color:#f464cf"/></linearGradient><path style="fill:url(#SVGID_00000077311030811571404110000003070564203665134478_)" d="M219.9 93.2v51.4h-20.1V93.2h20.1z"/><image style="overflow:visible" width="21.1" height="52.4" xlink:href="1B02A724471102D7.png" transform="translate(199.246 92.66)"/></g><g><linearGradient id="SVGID_00000057112467057566190620000006107537059126329496_" gradientUnits="userSpaceOnUse" x1="248.286" y1="145.603" x2="248.286" y2="92.143"><stop offset=".207" style="stop-color:#5df4f0"/><stop offset=".296" style="stop-color:#36a9e1"/><stop offset=".38" style="stop-color:#f464cf"/><stop offset=".542" style="stop-color:#f4c3ed"/><stop offset=".662" style="stop-color:#f47bd6"/><stop offset="1" style="stop-color:#f464cf"/></linearGradient><path style="fill:url(#SVGID_00000057112467057566190620000006107537059126329496_)" d="M269.1 94.4v15.3c-2-.4-4.1-.7-6.4-.9-4.3-.4-7.3-.6-9-.6-3.1 0-5.2.3-6.4.9-.9.5-1.4 1.3-1.4 2.4 0 2.1 1.6 3.1 4.7 3.1h2.3c6 0 10.1.6 12.3 1.8 3.5 2 5.2 6.1 5.2 12.1 0 6.4-1.8 10.8-5.4 13.4-3.3 2.4-8.6 3.6-15.7 3.6-5.7 0-12.8-.7-21.3-2v-13c4.7.9 9.7 1.3 15.2 1.3 3.3 0 5.4-.2 6.3-.7.8-.4 1.2-1.2 1.2-2.4s-.4-2-1.3-2.5c-.6-.3-2.9-.5-6.9-.5-2.7 0-4.8-.2-6.3-.4-6.8-1.1-10.2-6.4-10.2-16 0-7.3 2.3-12.1 6.9-14.5 3.6-1.9 9-2.8 16.3-2.8 5.9.1 12.5.9 19.9 2.4z"/><image style="overflow:visible" width="45.4" height="54.5" xlink:href="1B02A724471102D4.png" transform="translate(225.578 91.643)"/></g></g><g><linearGradient id="SVGID_00000101065328946907780030000014265039551923074483_" gradientUnits="userSpaceOnUse" x1="103.553" y1="53.054" x2="163.095" y2="53.054"><stop offset="0" style="stop-color:#f464cf"/><stop offset=".4" style="stop-color:#fff"/><stop offset=".514" style="stop-color:#f464cf"/><stop offset=".818" style="stop-color:#f47bd6"/><stop offset="1" style="stop-color:#f464cf"/></linearGradient><path style="fill:none;stroke:url(#SVGID_00000101065328946907780030000014265039551923074483_);stroke-miterlimit:10" d="M104.1 23.8h29.2c8.8 0 15.2 1.2 19.2 3.6 4 2.4 6.8 6 8.5 10.8 1.1 3.4 1.7 7.6 1.7 12.8 0 8.7-1.5 15.6-4.6 20.8-2.4 4-5.3 6.8-8.7 8.4-3.4 1.5-8.5 2.3-15.2 2.3h-30V23.8zm22.3 42.1h3.3c3.8 0 6.5-.8 8.1-2.4 1.9-1.9 2.8-5.2 2.8-10.1 0-4.2-.7-7.1-2.2-8.6-1.2-1.3-3.5-1.9-6.8-1.9h-5.3v23z"/><linearGradient id="SVGID_00000122695551339361225440000006693542943026116749_" gradientUnits="userSpaceOnUse" x1="165.28" y1="53.632" x2="204.461" y2="53.632"><stop offset="0" style="stop-color:#f464cf"/><stop offset=".4" style="stop-color:#fff"/><stop offset=".514" style="stop-color:#f464cf"/><stop offset=".818" style="stop-color:#f47bd6"/><stop offset="1" style="stop-color:#f464cf"/></linearGradient><path style="fill:none;stroke:url(#SVGID_00000122695551339361225440000006693542943026116749_);stroke-miterlimit:10" d="M203.9 23.8v42.6c0 6.5-1.8 11.1-5.3 13.6-3.2 2.3-8.2 3.5-15 3.5-3.9 0-8.2-.4-12.9-1.2-1.7-.3-3.3-.8-5-1.4V65.5c2.3.7 4.8 1 7.6 1 3.7 0 6-.7 6.8-2.2.5-1 .8-2.8.8-5.6V23.8h23z"/></g><g><linearGradient id="SVGID_00000057131525565900756780000010465536069328130491_" gradientUnits="userSpaceOnUse" x1="33.202" y1="119.175" x2="78.995" y2="119.175"><stop offset="0" style="stop-color:#f464cf"/><stop offset=".4" style="stop-color:#fff"/><stop offset=".682" style="stop-color:#f464cf"/><stop offset=".818" style="stop-color:#f47bd6"/><stop offset="1" style="stop-color:#f464cf"/></linearGradient><path style="fill:none;stroke:url(#SVGID_00000057131525565900756780000010465536069328130491_);stroke-miterlimit:10" d="M78.5 96v17.3c-4.1-1.2-8.3-1.7-12.6-1.7-3.9 0-6.7.6-8.5 1.7-1.8 1.2-2.8 3.5-2.8 7.1 0 3 .7 5.1 2 6.5 1.7 1.8 4.8 2.7 9.2 2.7 3.1 0 7.4-.5 12.7-1.6v14.8c-2.7 1.1-5.3 1.9-7.6 2.2-2.6.4-6.1.6-10.5.6-6.4 0-11.3-.7-14.5-2.1-4.9-2.1-8.3-5.8-10.3-11.3-1.3-3.5-1.9-8.1-1.9-13.6 0-9.4 2-16.1 6.1-20.1 4.1-3.9 10.6-5.9 19.4-5.9 4.2 0 8.2.4 12 1.2 1.9.5 4.3 1.2 7.3 2.2z"/><linearGradient id="SVGID_00000174575131571986536240000010146474643689348497_" gradientUnits="userSpaceOnUse" x1="84.011" y1="118.855" x2="135.214" y2="118.855"><stop offset="0" style="stop-color:#f464cf"/><stop offset=".4" style="stop-color:#fff"/><stop offset=".682" style="stop-color:#f464cf"/><stop offset=".818" style="stop-color:#f47bd6"/><stop offset="1" style="stop-color:#f464cf"/></linearGradient><path style="fill:none;stroke:url(#SVGID_00000174575131571986536240000010146474643689348497_);stroke-miterlimit:10" d="M115.1 126.3h-10.9v18.3H84.5V93.1h19.6v18.2H115V93.1h19.6v51.4H115v-18.2z"/><linearGradient id="SVGID_00000027563938940417888000000012049325643771646131_" gradientUnits="userSpaceOnUse" x1="141.969" y1="118.855" x2="196.347" y2="118.855"><stop offset="0" style="stop-color:#f464cf"/><stop offset=".4" style="stop-color:#fff"/><stop offset=".682" style="stop-color:#f464cf"/><stop offset=".818" style="stop-color:#f47bd6"/><stop offset="1" style="stop-color:#f464cf"/></linearGradient><path style="fill:none;stroke:url(#SVGID_00000027563938940417888000000012049325643771646131_);stroke-miterlimit:10" d="M142.5 93.1h36.2c3.9 0 7 .8 9.2 2.3 3.7 2.6 5.6 6.7 5.6 12.3 0 3.4-.7 6.4-2.1 8.9-1.6 3-4.1 4.9-7.4 5.9-1 .3-2.4.6-4.3.8l15.7 21.2h-22.6l-9.2-14.6c-.3-.4-.7-1.3-1.3-2.7h-.4c.2 1.5.3 2.6.3 3.4v13.9h-19.6V93.1zm19.6 24.6h4.4c2.6 0 4.4-.4 5.4-1.2 1.1-.9 1.7-2.3 1.7-4.3 0-3.3-1.8-4.9-5.5-4.9h-6v10.4z"/><linearGradient id="SVGID_00000018232808096890203040000011802487374293424302_" gradientUnits="userSpaceOnUse" x1="199.246" y1="118.855" x2="220.373" y2="118.855"><stop offset="0" style="stop-color:#f464cf"/><stop offset=".4" style="stop-color:#fff"/><stop offset=".682" style="stop-color:#f464cf"/><stop offset=".818" style="stop-color:#f47bd6"/><stop offset="1" style="stop-color:#f464cf"/></linearGradient><path style="fill:none;stroke:url(#SVGID_00000018232808096890203040000011802487374293424302_);stroke-miterlimit:10" d="M219.9 93.1v51.4h-20.1V93.1h20.1z"/><linearGradient id="SVGID_00000008151430076318018960000016253747006958527134_" gradientUnits="userSpaceOnUse" x1="225.578" y1="118.854" x2="270.993" y2="118.854"><stop offset="0" style="stop-color:#f464cf"/><stop offset=".4" style="stop-color:#fff"/><stop offset=".682" style="stop-color:#f464cf"/><stop offset=".818" style="stop-color:#f47bd6"/><stop offset="1" style="stop-color:#f464cf"/></linearGradient><path style="fill:none;stroke:url(#SVGID_00000008151430076318018960000016253747006958527134_);stroke-miterlimit:10" d="M269.1 94.3v15.3c-2-.4-4.1-.7-6.4-.9-4.3-.4-7.3-.6-9-.6-3.1 0-5.2.3-6.4.9-.9.5-1.4 1.3-1.4 2.4 0 2.1 1.6 3.1 4.7 3.1h2.3c6 0 10.1.6 12.3 1.8 3.5 2 5.2 6.1 5.2 12.1 0 6.4-1.8 10.8-5.4 13.4-3.3 2.4-8.6 3.6-15.7 3.6-5.7 0-12.8-.7-21.3-2v-13c4.7.9 9.7 1.3 15.2 1.3 3.3 0 5.4-.2 6.3-.7.8-.4 1.2-1.2 1.2-2.4s-.4-2-1.3-2.5c-.6-.3-2.9-.5-6.9-.5-2.7 0-4.8-.2-6.3-.4-6.8-1.1-10.2-6.4-10.2-16 0-7.3 2.3-12.1 6.9-14.5 3.6-1.9 9-2.8 16.3-2.8 5.9.2 12.5 1 19.9 2.4z"/></g></g><g id="Layer_24"><path class="st625" d="M330.8 80.5h-30.6c-.3 0-.6-.3-.6-.6s.3-.6.6-.6h30.6c.3 0 .6.3.6.6s-.2.6-.6.6zM337 84.4h-42.5c-.3 0-.6-.3-.6-.6s.3-.6.6-.6H337c.3 0 .6.3.6.6s-.3.6-.6.6zM335.9 88.2h-45.5c-.3 0-.6-.3-.6-.6s.3-.6.6-.6h45.5c.3 0 .6.3.6.6 0 .4-.2.6-.6.6zM310.1 92.1h-22.4c-.3 0-.6-.3-.6-.6s.3-.6.6-.6h22.4c.3 0 .6.3.6.6s-.2.6-.6.6zM333.9 92.1H322c-.3 0-.6-.3-.6-.6s.3-.6.6-.6h11.9c.3 0 .6.3.6.6s-.3.6-.6.6zM303.3 96h-17.7c-.3 0-.6-.3-.6-.6s.3-.6.6-.6h17.7c.3 0 .6.3.6.6s-.2.6-.6.6zM331.9 96h-3.7c-.3 0-.6-.3-.6-.6s.3-.6.6-.6h3.7c.3 0 .6.3.6.6s-.3.6-.6.6zM299.9 99.9h-16c-.3 0-.6-.3-.6-.6s.3-.6.6-.6h16c.3 0 .6.3.6.6s-.2.6-.6.6zM298.2 103.7h-14.9c-.3 0-.6-.3-.6-.6s.3-.6.6-.6h14.9c.3 0 .6.3.6.6s-.2.6-.6.6zM297.2 107.6h-14.6c-.3 0-.6-.3-.6-.6s.3-.6.6-.6h14.6c.3 0 .6.3.6.6s-.3.6-.6.6zM348.2 107.6h-31.7c-.3 0-.6-.3-.6-.6s.3-.6.6-.6h31.7c.3 0 .6.3.6.6.1.3-.2.6-.6.6zM281.6 110.9c0-.3.3-.6.6-.6h14.6c.3 0 .6.3.6.6s-.3.6-.6.6h-14.6c-.3 0-.6-.3-.6-.6M348.3 111.5h-31.8c-.3 0-.6-.3-.6-.6s.3-.6.6-.6h31.8c.3 0 .6.3.6.6s-.2.6-.6.6zM297.2 115.3h-14.6c-.3 0-.6-.3-.6-.6s.3-.6.6-.6h14.6c.3 0 .6.3.6.6 0 .4-.3.6-.6.6zM348.2 115.3h-31.7c-.3 0-.6-.3-.6-.6s.3-.6.6-.6h31.7c.3 0 .6.3.6.6.1.4-.2.6-.6.6zM298.2 119.2h-15.3c-.3 0-.6-.3-.6-.6s.3-.6.6-.6h15.3c.3 0 .6.3.6.6s-.2.6-.6.6zM347.8 119.2h-31.3c-.3 0-.6-.3-.6-.6s.3-.6.6-.6h31.3c.3 0 .6.3.6.6.1.3-.2.6-.6.6zM299.6 123.1H284c-.3 0-.6-.3-.6-.6s.3-.6.6-.6h15.6c.3 0 .6.3.6.6s-.3.6-.6.6zM346.8 123.1h-16c-.3 0-.6-.3-.6-.6s.3-.6.6-.6h16c.3 0 .6.3.6.6s-.3.6-.6.6zM302.6 127h-17.3c-.3 0-.6-.3-.6-.6s.3-.6.6-.6h17.3c.3 0 .6.3.6.6.1.3-.2.6-.6.6zM345.4 127h-17.7c-.3 0-.6-.3-.6-.6s.3-.6.6-.6h17.7c.3 0 .6.3.6.6.1.3-.2.6-.6.6zM308.8 130.8h-21.4c-.3 0-.6-.3-.6-.6s.3-.6.6-.6h21.4c.3 0 .6.3.6.6 0 .4-.3.6-.6.6zM343.4 130.8h-21.7c-.3 0-.6-.3-.6-.6s.3-.6.6-.6h21.7c.3 0 .6.3.6.6 0 .4-.3.6-.6.6zM340.7 134.7h-50.6c-.3 0-.6-.3-.6-.6s.3-.6.6-.6h50.6c.3 0 .6.3.6.6s-.3.6-.6.6zM337 138.6h-43.1c-.3 0-.6-.3-.6-.6s.3-.6.6-.6H337c.3 0 .6.3.6.6s-.3.6-.6.6zM331.9 142.5h-32.6c-.3 0-.6-.3-.6-.6s.3-.6.6-.6h32.6c.3 0 .6.3.6.6s-.3.6-.6.6zM321 146.3h-10.2c-.3 0-.6-.3-.6-.6s.3-.6.6-.6H321c.3 0 .6.3.6.6 0 .4-.3.6-.6.6zM321 76.6h-10.2c-.3 0-.6-.3-.6-.6s.3-.6.6-.6H321c.3 0 .6.3.6.6s-.3.6-.6.6z"/><linearGradient id="SVGID_00000133509162930308373000000009446785609397138861_" gradientUnits="userSpaceOnUse" x1="317.914" y1="147.049" x2="315.178" y2="74.558"><stop offset="0" style="stop-color:#f7de00"/><stop offset=".495" style="stop-color:#f70067"/><stop offset=".751" style="stop-color:#f700ff"/><stop offset="1" style="stop-color:#8c00f7"/></linearGradient><path style="fill:url(#SVGID_00000133509162930308373000000009446785609397138861_)" d="M330.8 80.2h-30.9c-.3 0-.6-.3-.6-.7 0-.4.3-.7.6-.7h30.9c.3 0 .6.3.6.7 0 .4-.2.7-.6.7z"/><linearGradient id="SVGID_00000150781600448871922020000014503562616173974175_" gradientUnits="userSpaceOnUse" x1="317.937" y1="147.031" x2="315.202" y2="74.559"><stop offset="0" style="stop-color:#f7de00"/><stop offset=".495" style="stop-color:#f70067"/><stop offset=".751" style="stop-color:#f700ff"/><stop offset="1" style="stop-color:#8c00f7"/></linearGradient><path style="fill:url(#SVGID_00000150781600448871922020000014503562616173974175_)" d="M337 84.1h-42.9c-.3 0-.6-.3-.6-.7 0-.4.3-.7.6-.7H337c.3 0 .6.3.6.7 0 .4-.3.7-.6.7z"/><linearGradient id="SVGID_00000052783447912225777840000003734726402719921809_" gradientUnits="userSpaceOnUse" x1="315.247" y1="147.146" x2="312.512" y2="74.658"><stop offset="0" style="stop-color:#f7de00"/><stop offset=".495" style="stop-color:#f70067"/><stop offset=".751" style="stop-color:#f700ff"/><stop offset="1" style="stop-color:#8c00f7"/></linearGradient><path style="fill:url(#SVGID_00000052783447912225777840000003734726402719921809_)" d="M336 87.9h-46c-.3 0-.6-.3-.6-.7 0-.4.3-.7.6-.7h46c.3 0 .6.3.6.7 0 .4-.3.7-.6.7z"/><linearGradient id="SVGID_00000068639068728163480720000000857686742445732742_" gradientUnits="userSpaceOnUse" x1="300.853" y1="147.693" x2="298.118" y2="75.199"><stop offset="0" style="stop-color:#f7de00"/><stop offset=".495" style="stop-color:#f70067"/><stop offset=".751" style="stop-color:#f700ff"/><stop offset="1" style="stop-color:#8c00f7"/></linearGradient><path style="fill:url(#SVGID_00000068639068728163480720000000857686742445732742_)" d="M310 91.8h-22.6c-.3 0-.6-.3-.6-.7 0-.4.3-.7.6-.7H310c.3 0 .6.3.6.7.1.4-.2.7-.6.7z"/><linearGradient id="SVGID_00000101807275784125481510000017888247432868909743_" gradientUnits="userSpaceOnUse" x1="329.858" y1="146.6" x2="327.123" y2="74.103"><stop offset="0" style="stop-color:#f7de00"/><stop offset=".495" style="stop-color:#f70067"/><stop offset=".751" style="stop-color:#f700ff"/><stop offset="1" style="stop-color:#8c00f7"/></linearGradient><path style="fill:url(#SVGID_00000101807275784125481510000017888247432868909743_)" d="M333.8 91.8h-12c-.3 0-.6-.3-.6-.7 0-.4.3-.7.6-.7h12c.3 0 .6.3.6.7 0 .4-.3.7-.6.7z"/><linearGradient id="SVGID_00000176737073825965389540000016826357160467684497_" gradientUnits="userSpaceOnUse" x1="296.297" y1="147.865" x2="293.561" y2="75.37"><stop offset="0" style="stop-color:#f7de00"/><stop offset=".495" style="stop-color:#f70067"/><stop offset=".751" style="stop-color:#f700ff"/><stop offset="1" style="stop-color:#8c00f7"/></linearGradient><path style="fill:url(#SVGID_00000176737073825965389540000016826357160467684497_)" d="M303.2 95.7h-17.8c-.3 0-.6-.3-.6-.7 0-.4.3-.7.6-.7h17.8c.3 0 .6.3.6.7 0 .4-.2.7-.6.7z"/><linearGradient id="SVGID_00000083786668188007399810000003118692465229704590_" gradientUnits="userSpaceOnUse" x1="331.749" y1="146.531" x2="329.013" y2="74.03"><stop offset="0" style="stop-color:#f7de00"/><stop offset=".495" style="stop-color:#f70067"/><stop offset=".751" style="stop-color:#f700ff"/><stop offset="1" style="stop-color:#8c00f7"/></linearGradient><path style="fill:url(#SVGID_00000083786668188007399810000003118692465229704590_)" d="M331.7 95.7h-3.8c-.3 0-.6-.3-.6-.7 0-.4.3-.7.6-.7h3.8c.3 0 .6.3.6.7 0 .4-.3.7-.6.7z"/><linearGradient id="SVGID_00000022546911028936438220000003031922463280708486_" gradientUnits="userSpaceOnUse" x1="293.607" y1="147.965" x2="290.871" y2="75.469"><stop offset="0" style="stop-color:#f7de00"/><stop offset=".495" style="stop-color:#f70067"/><stop offset=".751" style="stop-color:#f700ff"/><stop offset="1" style="stop-color:#8c00f7"/></linearGradient><path style="fill:url(#SVGID_00000022546911028936438220000003031922463280708486_)" d="M299.8 99.6h-16.1c-.3 0-.6-.3-.6-.7 0-.4.3-.7.6-.7h16.1c.3 0 .6.3.6.7 0 .4-.2.7-.6.7z"/><linearGradient id="SVGID_00000178198176344756527310000002429952721217598082_" gradientUnits="userSpaceOnUse" x1="292.273" y1="147.999" x2="289.538" y2="75.528"><stop offset="0" style="stop-color:#f7de00"/><stop offset=".495" style="stop-color:#f70067"/><stop offset=".751" style="stop-color:#f700ff"/><stop offset="1" style="stop-color:#8c00f7"/></linearGradient><path style="fill:url(#SVGID_00000178198176344756527310000002429952721217598082_)" d="M298.1 103.4H283c-.3 0-.6-.3-.6-.7 0-.4.3-.7.6-.7h15.1c.3 0 .6.3.6.7 0 .4-.2.7-.6.7z"/><linearGradient id="SVGID_00000009576759384037975990000000974715951461068714_" gradientUnits="userSpaceOnUse" x1="291.279" y1="148.037" x2="288.544" y2="75.565"><stop offset="0" style="stop-color:#f7de00"/><stop offset=".495" style="stop-color:#f70067"/><stop offset=".751" style="stop-color:#f700ff"/><stop offset="1" style="stop-color:#8c00f7"/></linearGradient><path style="fill:url(#SVGID_00000009576759384037975990000000974715951461068714_)" d="M281.7 106.6c0-.4.3-.7.6-.7h14.8c.3 0 .6.3.6.7 0 .4-.3.7-.6.7h-14.8c-.3 0-.6-.3-.6-.7"/><linearGradient id="SVGID_00000081614736834455303210000002673482236259564990_" gradientUnits="userSpaceOnUse" x1="333.725" y1="146.435" x2="330.991" y2="73.963"><stop offset="0" style="stop-color:#f7de00"/><stop offset=".495" style="stop-color:#f70067"/><stop offset=".751" style="stop-color:#f700ff"/><stop offset="1" style="stop-color:#8c00f7"/></linearGradient><path style="fill:url(#SVGID_00000081614736834455303210000002673482236259564990_)" d="M348.2 107.3h-32c-.3 0-.6-.3-.6-.7 0-.4.3-.7.6-.7h32c.3 0 .6.3.6.7 0 .4-.2.7-.6.7z"/><linearGradient id="SVGID_00000118375263688610682650000014116004600828247450_" gradientUnits="userSpaceOnUse" x1="290.794" y1="148.056" x2="288.059" y2="75.584"><stop offset="0" style="stop-color:#f7de00"/><stop offset=".495" style="stop-color:#f70067"/><stop offset=".751" style="stop-color:#f700ff"/><stop offset="1" style="stop-color:#8c00f7"/></linearGradient><path style="fill:url(#SVGID_00000118375263688610682650000014116004600828247450_)" d="M281.4 110.5c0-.4.3-.7.6-.7h14.8c.3 0 .6.3.6.7 0 .4-.3.7-.6.7H282c-.3 0-.6-.3-.6-.7"/><linearGradient id="SVGID_00000105409831121436411000000014738187939930966975_" gradientUnits="userSpaceOnUse" x1="333.623" y1="146.439" x2="330.888" y2="73.968"><stop offset="0" style="stop-color:#f7de00"/><stop offset=".495" style="stop-color:#f70067"/><stop offset=".751" style="stop-color:#f700ff"/><stop offset="1" style="stop-color:#8c00f7"/></linearGradient><path style="fill:url(#SVGID_00000105409831121436411000000014738187939930966975_)" d="M348.3 111.2h-32.1c-.3 0-.6-.3-.6-.7 0-.4.3-.7.6-.7h32.1c.3 0 .6.3.6.7 0 .4-.2.7-.6.7z"/><linearGradient id="SVGID_00000108278890627868170070000013014609243465818528_" gradientUnits="userSpaceOnUse" x1="290.987" y1="148.048" x2="288.252" y2="75.576"><stop offset="0" style="stop-color:#f7de00"/><stop offset=".495" style="stop-color:#f70067"/><stop offset=".751" style="stop-color:#f700ff"/><stop offset="1" style="stop-color:#8c00f7"/></linearGradient><path style="fill:url(#SVGID_00000108278890627868170070000013014609243465818528_)" d="M281.7 114.4c0-.4.3-.7.6-.7h14.8c.3 0 .6.3.6.7 0 .4-.3.7-.6.7h-14.8c-.3 0-.6-.3-.6-.7"/><linearGradient id="SVGID_00000048475831916838741130000013902406790940619160_" gradientUnits="userSpaceOnUse" x1="333.434" y1="146.447" x2="330.699" y2="73.975"><stop offset="0" style="stop-color:#f7de00"/><stop offset=".495" style="stop-color:#f70067"/><stop offset=".751" style="stop-color:#f700ff"/><stop offset="1" style="stop-color:#8c00f7"/></linearGradient><path style="fill:url(#SVGID_00000048475831916838741130000013902406790940619160_)" d="M348.2 115.1h-32c-.3 0-.6-.3-.6-.7 0-.4.3-.7.6-.7h32c.3 0 .6.3.6.7 0 .4-.2.7-.6.7z"/><linearGradient id="SVGID_00000037674704259428657510000005278846592461134249_" gradientUnits="userSpaceOnUse" x1="291.519" y1="148.028" x2="288.784" y2="75.557"><stop offset="0" style="stop-color:#f7de00"/><stop offset=".495" style="stop-color:#f70067"/><stop offset=".751" style="stop-color:#f700ff"/><stop offset="1" style="stop-color:#8c00f7"/></linearGradient><path style="fill:url(#SVGID_00000037674704259428657510000005278846592461134249_)" d="M298.1 118.9h-15.4c-.3 0-.6-.3-.6-.7 0-.4.3-.7.6-.7h15.4c.3 0 .6.3.6.7 0 .4-.2.7-.6.7z"/><linearGradient id="SVGID_00000085252037088412673190000009164598713919908785_" gradientUnits="userSpaceOnUse" x1="333.083" y1="146.46" x2="330.348" y2="73.989"><stop offset="0" style="stop-color:#f7de00"/><stop offset=".495" style="stop-color:#f70067"/><stop offset=".751" style="stop-color:#f700ff"/><stop offset="1" style="stop-color:#8c00f7"/></linearGradient><path style="fill:url(#SVGID_00000085252037088412673190000009164598713919908785_)" d="M347.8 118.9h-31.6c-.3 0-.6-.3-.6-.7 0-.4.3-.7.6-.7h31.6c.3 0 .6.3.6.7 0 .4-.2.7-.6.7z"/><linearGradient id="SVGID_00000177456416057342938220000001205972354571448252_" gradientUnits="userSpaceOnUse" x1="292.561" y1="147.998" x2="289.826" y2="75.501"><stop offset="0" style="stop-color:#f7de00"/><stop offset=".495" style="stop-color:#f70067"/><stop offset=".751" style="stop-color:#f700ff"/><stop offset="1" style="stop-color:#8c00f7"/></linearGradient><path style="fill:url(#SVGID_00000177456416057342938220000001205972354571448252_)" d="M299.5 122.8h-15.8c-.3 0-.6-.3-.6-.7 0-.4.3-.7.6-.7h15.8c.3 0 .6.3.6.7 0 .4-.3.7-.6.7z"/><linearGradient id="SVGID_00000142178144558838212450000001141351008441592486_" gradientUnits="userSpaceOnUse" x1="339.548" y1="146.224" x2="336.813" y2="73.728"><stop offset="0" style="stop-color:#f7de00"/><stop offset=".495" style="stop-color:#f70067"/><stop offset=".751" style="stop-color:#f700ff"/><stop offset="1" style="stop-color:#8c00f7"/></linearGradient><path style="fill:url(#SVGID_00000142178144558838212450000001141351008441592486_)" d="M346.7 122.8h-16.1c-.3 0-.6-.3-.6-.7 0-.4.3-.7.6-.7h16.1c.3 0 .6.3.6.7 0 .4-.3.7-.6.7z"/><linearGradient id="SVGID_00000147923377498695405710000003469075676024240779_" gradientUnits="userSpaceOnUse" x1="294.62" y1="147.911" x2="291.885" y2="75.441"><stop offset="0" style="stop-color:#f7de00"/><stop offset=".495" style="stop-color:#f70067"/><stop offset=".751" style="stop-color:#f700ff"/><stop offset="1" style="stop-color:#8c00f7"/></linearGradient><path style="fill:url(#SVGID_00000147923377498695405710000003469075676024240779_)" d="M302.5 126.7H285c-.3 0-.6-.3-.6-.7 0-.4.3-.7.6-.7h17.5c.3 0 .6.3.6.7.1.4-.2.7-.6.7z"/><linearGradient id="SVGID_00000102509837666058750510000002551143423073313704_" gradientUnits="userSpaceOnUse" x1="337.197" y1="146.305" x2="334.462" y2="73.834"><stop offset="0" style="stop-color:#f7de00"/><stop offset=".495" style="stop-color:#f70067"/><stop offset=".751" style="stop-color:#f700ff"/><stop offset="1" style="stop-color:#8c00f7"/></linearGradient><path style="fill:url(#SVGID_00000102509837666058750510000002551143423073313704_)" d="M345.4 126.7h-17.8c-.3 0-.6-.3-.6-.7 0-.4.3-.7.6-.7h17.8c.3 0 .6.3.6.7 0 .4-.3.7-.6.7z"/><linearGradient id="SVGID_00000037659390607658270360000012842967762658342790_" gradientUnits="userSpaceOnUse" x1="298.546" y1="147.769" x2="295.81" y2="75.275"><stop offset="0" style="stop-color:#f7de00"/><stop offset=".495" style="stop-color:#f70067"/><stop offset=".751" style="stop-color:#f700ff"/><stop offset="1" style="stop-color:#8c00f7"/></linearGradient><path style="fill:url(#SVGID_00000037659390607658270360000012842967762658342790_)" d="M308.7 130.5h-21.6c-.3 0-.6-.3-.6-.7 0-.4.3-.7.6-.7h21.6c.3 0 .6.3.6.7 0 .4-.3.7-.6.7z"/><linearGradient id="SVGID_00000040548857257149232220000005995650594704992955_" gradientUnits="userSpaceOnUse" x1="332.979" y1="146.469" x2="330.243" y2="73.975"><stop offset="0" style="stop-color:#f7de00"/><stop offset=".495" style="stop-color:#f70067"/><stop offset=".751" style="stop-color:#f700ff"/><stop offset="1" style="stop-color:#8c00f7"/></linearGradient><path style="fill:url(#SVGID_00000040548857257149232220000005995650594704992955_)" d="M343.3 130.5h-22c-.3 0-.6-.3-.6-.7 0-.4.3-.7.6-.7h22c.3 0 .6.3.6.7.1.4-.2.7-.6.7z"/><linearGradient id="SVGID_00000121255320381446440230000006815710193347371660_" gradientUnits="userSpaceOnUse" x1="315.7" y1="147.119" x2="312.965" y2="74.632"><stop offset="0" style="stop-color:#f7de00"/><stop offset=".495" style="stop-color:#f70067"/><stop offset=".751" style="stop-color:#f700ff"/><stop offset="1" style="stop-color:#8c00f7"/></linearGradient><path style="fill:url(#SVGID_00000121255320381446440230000006815710193347371660_)" d="M340.8 134.4h-51.1c-.3 0-.6-.3-.6-.7s.3-.7.6-.7h51.1c.3 0 .6.3.6.7s-.3.7-.6.7z"/><linearGradient id="SVGID_00000030453133506297414270000016132579600587162499_" gradientUnits="userSpaceOnUse" x1="315.554" y1="147.121" x2="312.819" y2="74.649"><stop offset="0" style="stop-color:#f7de00"/><stop offset=".495" style="stop-color:#f70067"/><stop offset=".751" style="stop-color:#f700ff"/><stop offset="1" style="stop-color:#8c00f7"/></linearGradient><path style="fill:url(#SVGID_00000030453133506297414270000016132579600587162499_)" d="M337 138.3h-43.6c-.3 0-.6-.3-.6-.7s.3-.7.6-.7H337c.3 0 .6.3.6.7s-.3.7-.6.7z"/><linearGradient id="SVGID_00000143612248378629063690000005771694211267741321_" gradientUnits="userSpaceOnUse" x1="315.578" y1="147.123" x2="312.843" y2="74.632"><stop offset="0" style="stop-color:#f7de00"/><stop offset=".495" style="stop-color:#f70067"/><stop offset=".751" style="stop-color:#f700ff"/><stop offset="1" style="stop-color:#8c00f7"/></linearGradient><path style="fill:url(#SVGID_00000143612248378629063690000005771694211267741321_)" d="M331.8 142.2h-32.9c-.3 0-.6-.3-.6-.7s.3-.7.6-.7h32.9c.3 0 .6.3.6.7s-.2.7-.6.7z"/><linearGradient id="SVGID_00000129921079740448996740000008361744046663429783_" gradientUnits="userSpaceOnUse" x1="315.771" y1="147.113" x2="313.037" y2="74.643"><stop offset="0" style="stop-color:#f7de00"/><stop offset=".495" style="stop-color:#f70067"/><stop offset=".751" style="stop-color:#f700ff"/><stop offset="1" style="stop-color:#8c00f7"/></linearGradient><path style="fill:url(#SVGID_00000129921079740448996740000008361744046663429783_)" d="M320.9 146h-10.3c-.3 0-.6-.3-.6-.7 0-.4.3-.7.6-.7h10.3c.3 0 .6.3.6.7 0 .4-.3.7-.6.7z"/><linearGradient id="SVGID_00000087381202040378847280000006086448325389580972_" gradientUnits="userSpaceOnUse" x1="318.398" y1="147.012" x2="315.663" y2="74.541"><stop offset="0" style="stop-color:#f7de00"/><stop offset=".495" style="stop-color:#f70067"/><stop offset=".751" style="stop-color:#f700ff"/><stop offset="1" style="stop-color:#8c00f7"/></linearGradient><path style="fill:url(#SVGID_00000087381202040378847280000006086448325389580972_)" d="M320.9 76.3h-10.3c-.3 0-.6-.3-.6-.7 0-.4.3-.7.6-.7h10.3c.3 0 .6.3.6.7 0 .4-.3.7-.6.7z"/><g class="st654"><path class="st292" d="M330.6 79.7H300c-.2 0-.3-.1-.3-.3s.1-.3.3-.3h30.6c.2 0 .3.1.3.3s-.1.3-.3.3z"/></g><g class="st654"><path class="st292" d="M336.8 83.6h-42.5c-.2 0-.3-.1-.3-.3 0-.2.1-.3.3-.3h42.5c.2 0 .3.1.3.3-.1.1-.2.3-.3.3z"/></g><g class="st654"><path class="st292" d="M335.7 87.4h-45.5c-.2 0-.3-.1-.3-.3 0-.2.1-.3.3-.3h45.5c.2 0 .3.1.3.3 0 .2-.1.3-.3.3z"/></g><g class="st654"><path class="st292" d="M309.9 91.3h-22.4c-.2 0-.3-.1-.3-.3 0-.2.1-.3.3-.3h22.4c.2 0 .3.1.3.3 0 .2-.1.3-.3.3z"/></g><g class="st654"><path class="st292" d="M333.7 91.3h-11.9c-.2 0-.3-.1-.3-.3 0-.2.1-.3.3-.3h11.9c.2 0 .3.1.3.3 0 .2-.1.3-.3.3z"/></g><g class="st654"><path class="st292" d="M303.1 95.2h-17.7c-.2 0-.3-.1-.3-.3 0-.2.1-.3.3-.3h17.7c.2 0 .3.1.3.3 0 .2-.1.3-.3.3z"/></g><g class="st654"><path class="st292" d="M331.7 95.2H328c-.2 0-.3-.1-.3-.3 0-.2.1-.3.3-.3h3.7c.2 0 .3.1.3.3-.1.2-.2.3-.3.3z"/></g><g class="st654"><path class="st292" d="M299.7 99.1h-16c-.2 0-.3-.1-.3-.3 0-.2.1-.3.3-.3h16c.2 0 .3.1.3.3 0 .1-.1.3-.3.3z"/></g><g class="st654"><path class="st292" d="M298 102.9h-14.9c-.2 0-.3-.1-.3-.3 0-.2.1-.3.3-.3H298c.2 0 .3.1.3.3 0 .2-.1.3-.3.3z"/></g><g class="st654"><path class="st292" d="M297 106.8h-14.6c-.2 0-.3-.1-.3-.3 0-.2.1-.3.3-.3H297c.2 0 .3.1.3.3 0 .2-.1.3-.3.3z"/></g><g class="st654"><path class="st292" d="M348 106.8h-31.7c-.2 0-.3-.1-.3-.3 0-.2.1-.3.3-.3H348c.2 0 .3.1.3.3 0 .2-.1.3-.3.3z"/></g><path class="st292" d="M281.8 110.4c0-.2.1-.3.3-.3h14.6c.2 0 .3.1.3.3s-.1.3-.3.3h-14.6c-.2 0-.3-.1-.3-.3"/><g class="st654"><path class="st292" d="M348.1 110.7h-31.8c-.2 0-.3-.1-.3-.3s.1-.3.3-.3h31.8c.2 0 .3.1.3.3s-.1.3-.3.3z"/></g><g class="st654"><path class="st292" d="M297 114.6h-14.6c-.2 0-.3-.1-.3-.3 0-.2.1-.3.3-.3H297c.2 0 .3.1.3.3 0 .1-.1.3-.3.3z"/></g><g class="st654"><path class="st292" d="M348 114.6h-31.7c-.2 0-.3-.1-.3-.3 0-.2.1-.3.3-.3H348c.2 0 .3.1.3.3 0 .1-.1.3-.3.3z"/></g><g class="st654"><path class="st292" d="M298 118.4h-15.3c-.2 0-.3-.1-.3-.3s.1-.3.3-.3H298c.2 0 .3.1.3.3s-.1.3-.3.3z"/></g><g class="st654"><path class="st292" d="M347.6 118.4h-31.3c-.2 0-.3-.1-.3-.3s.1-.3.3-.3h31.3c.2 0 .3.1.3.3s-.1.3-.3.3z"/></g><g class="st654"><path class="st292" d="M299.4 122.3h-15.6c-.2 0-.3-.1-.3-.3 0-.2.1-.3.3-.3h15.6c.2 0 .3.1.3.3 0 .2-.2.3-.3.3z"/></g><g class="st654"><path class="st292" d="M346.6 122.3h-16c-.2 0-.3-.1-.3-.3 0-.2.1-.3.3-.3h16c.2 0 .3.1.3.3 0 .2-.1.3-.3.3z"/></g><g class="st654"><path class="st292" d="M302.4 126.2h-17.3c-.2 0-.3-.1-.3-.3s.1-.3.3-.3h17.3c.2 0 .3.1.3.3s-.1.3-.3.3z"/></g><g class="st654"><path class="st292" d="M345.2 126.2h-17.7c-.2 0-.3-.1-.3-.3s.1-.3.3-.3h17.7c.2 0 .3.1.3.3s-.1.3-.3.3z"/></g><g class="st654"><path class="st292" d="M308.6 130h-21.4c-.2 0-.3-.1-.3-.3 0-.2.1-.3.3-.3h21.4c.2 0 .3.1.3.3-.1.2-.2.3-.3.3z"/></g><g class="st654"><path class="st292" d="M343.2 130h-21.7c-.2 0-.3-.1-.3-.3 0-.2.1-.3.3-.3h21.7c.2 0 .3.1.3.3 0 .2-.1.3-.3.3z"/></g><g class="st654"><path class="st292" d="M340.5 133.9h-50.6c-.2 0-.3-.1-.3-.3s.1-.3.3-.3h50.6c.2 0 .3.1.3.3s-.2.3-.3.3z"/></g><g class="st654"><path class="st292" d="M336.8 137.8h-43.1c-.2 0-.3-.1-.3-.3 0-.2.1-.3.3-.3h43.1c.2 0 .3.1.3.3-.1.2-.2.3-.3.3z"/></g><g class="st654"><path class="st292" d="M331.7 141.7H299c-.2 0-.3-.1-.3-.3 0-.2.1-.3.3-.3h32.6c.2 0 .3.1.3.3 0 .1-.1.3-.2.3z"/></g><g class="st654"><path class="st292" d="M320.8 145.5h-10.2c-.2 0-.3-.1-.3-.3 0-.2.1-.3.3-.3h10.2c.2 0 .3.1.3.3 0 .2-.2.3-.3.3z"/></g><g class="st654"><path class="st292" d="M320.8 75.8h-10.2c-.2 0-.3-.1-.3-.3 0-.2.1-.3.3-.3h10.2c.2 0 .3.1.3.3 0 .2-.2.3-.3.3z"/></g><g class="st654"><path class="st292" d="M330.6 79.5H300c-.1 0-.1 0-.1-.1s0-.1.1-.1h30.6s.1 0 0 .2c.1-.1 0 0 0 0z"/></g><g class="st654"><path class="st292" d="M336.7 83.4h-42.5c-.1 0-.1 0-.1-.1s0-.1.1-.1h42.5s.1 0 0 .2c.1-.1 0 0 0 0z"/></g><g class="st654"><path class="st292" d="M335.7 87.2h-45.5c-.1 0-.1 0-.1-.1s0-.1.1-.1h45.5s.1.1 0 .2c.1 0 0 0 0 0z"/></g><g class="st654"><path class="st292" d="M309.8 91.1h-22.4c-.1 0-.1 0-.1-.1s0-.1.1-.1h22.4c.1 0 .1.1 0 .2.1 0 .1 0 0 0z"/></g><g class="st654"><path class="st292" d="M333.6 91.1h-11.9c-.1 0-.1 0-.1-.1s0-.1.1-.1h11.9c.1 0 .1.1 0 .2.1 0 .1 0 0 0z"/></g><g class="st654"><path class="st292" d="M303 95h-17.7c-.1 0-.1 0-.1-.1s0-.1.1-.1H303c.1 0 .1 0 0 .2.1-.1.1 0 0 0z"/></g><g class="st654"><path class="st292" d="M331.6 95h-3.7c-.1 0-.1 0-.1-.1s0-.1.1-.1h3.7s.1 0 0 .2c.1-.1 0 0 0 0z"/></g><g class="st654"><path class="st292" d="M299.6 98.8h-16c-.1 0-.1 0-.1-.1s0-.1.1-.1h16c.1.1.1.1 0 .2.1 0 .1 0 0 0z"/></g><g class="st654"><path class="st292" d="M297.9 102.7H283c-.1 0-.1 0-.1-.1s0-.1.1-.1h14.9c.1 0 .1.1 0 .2.1 0 .1 0 0 0z"/></g><g class="st654"><path class="st292" d="M296.9 106.6h-14.6c-.1 0-.1 0-.1-.1s0-.1.1-.1h14.6c.1 0 .1 0 0 .2.1-.1.1 0 0 0z"/></g><g class="st654"><path class="st292" d="M348 106.6h-31.7c-.1 0-.1 0-.1-.1s0-.1.1-.1H348s.1 0 0 .2c.1-.1 0 0 0 0z"/></g><g class="st654"><path class="st292" d="M296.6 110.5H282c-.1 0-.1 0-.1-.1s0-.1.1-.1h14.6s.1 0 0 .2c.1-.1 0 0 0 0z"/></g><g class="st654"><path class="st292" d="M348.1 110.5h-31.8c-.1 0-.1 0-.1-.1s0-.1.1-.1h31.8s.1 0 0 .2c.1-.1 0 0 0 0z"/></g><g class="st654"><path class="st292" d="M296.9 114.3h-14.6c-.1 0-.1 0-.1-.1s0-.1.1-.1h14.6c.1 0 .1.1 0 .2.1 0 .1 0 0 0z"/></g><g class="st654"><path class="st292" d="M348 114.3h-31.7c-.1 0-.1 0-.1-.1s0-.1.1-.1H348s.1.1 0 .2c.1 0 0 0 0 0z"/></g><g class="st654"><path class="st292" d="M297.9 118.2h-15.3c-.1 0-.1 0-.1-.1s0-.1.1-.1h15.3c.1 0 .1.1 0 .2.1 0 .1 0 0 0z"/></g><g class="st654"><path class="st292" d="M347.6 118.2h-31.3c-.1 0-.1 0-.1-.1s0-.1.1-.1h31.3s.1.1 0 .2c.1 0 0 0 0 0z"/></g><g class="st654"><path class="st292" d="M299.3 122.1h-15.6c-.1 0-.1 0-.1-.1s0-.1.1-.1h15.6c.1 0 .1 0 0 .2.1-.1.1 0 0 0z"/></g><g class="st654"><path class="st292" d="M346.5 122.1h-16c-.1 0-.1 0-.1-.1s0-.1.1-.1h16c.1 0 .1 0 0 .2.1-.1.1 0 0 0z"/></g><g class="st654"><path class="st292" d="M302.4 126H285c-.1 0-.1 0-.1-.1s0-.1.1-.1h17.3c.1 0 .2 0 .1.2.1-.1 0 0 0 0z"/></g><g class="st654"><path class="st292" d="M345.2 126h-17.7c-.1 0-.1 0-.1-.1s0-.1.1-.1h17.7s.1 0 0 .2c.1-.1 0 0 0 0z"/></g><g class="st654"><path class="st292" d="M308.5 129.8h-21.4c-.1 0-.1 0-.1-.1s0-.1.1-.1h21.4s.1.1 0 .2c.1 0 0 0 0 0z"/></g><g class="st654"><path class="st292" d="M343.1 129.8h-21.7c-.1 0-.1 0-.1-.1s0-.1.1-.1h21.7c.1 0 .1.1 0 .2.1 0 .1 0 0 0z"/></g><g class="st654"><path class="st292" d="M340.4 133.7h-50.6c-.1 0-.1 0-.1-.1s0-.1.1-.1h50.6c.1 0 .1.1 0 .2.1 0 .1 0 0 0z"/></g><g class="st654"><path class="st292" d="M336.7 137.6h-43.1c-.1 0-.1 0-.1-.1s0-.1.1-.1h43.1s.1 0 0 .2c.1-.1 0 0 0 0z"/></g><g class="st654"><path class="st292" d="M331.6 141.4H299c-.1 0-.1 0-.1-.1s0-.1.1-.1h32.6c0 .1.1.1 0 .2.1 0 0 0 0 0z"/></g><g class="st654"><path class="st292" d="M320.7 145.3h-10.2c-.1 0-.1 0-.1-.1s0-.1.1-.1h10.2c.1 0 .1.1 0 .2.1 0 .1 0 0 0z"/></g><g class="st654"><path class="st292" d="M320.7 75.6h-10.2c-.1 0-.1 0-.1-.1s0-.1.1-.1h10.2c.1 0 .1.1 0 .2.1 0 .1 0 0 0z"/></g></g><text transform="matrix(1.0111 0 0 1 135.17 162.43)" class="st292" style="font-size:15.3006px;font-family:'CenturyGothic-Bold'" id="Layer_27">@DJCHRISGINTHEMIX</text><g id="Layer_28"><linearGradient id="SVGID_00000001647240447594184360000016269083277057587593_" gradientUnits="userSpaceOnUse" x1="114.587" y1="157.335" x2="131.563" y2="157.335"><stop offset="0" style="stop-color:#f464cf"/><stop offset=".4" style="stop-color:#fff"/><stop offset=".514" style="stop-color:#f464cf"/><stop offset=".818" style="stop-color:#f47bd6"/><stop offset="1" style="stop-color:#f464cf"/></linearGradient><path style="fill:url(#SVGID_00000001647240447594184360000016269083277057587593_)" d="M114.6 151.2h17v12.2h-17z"/><linearGradient id="SVGID_00000049910041228492923960000009925473840612789412_" gradientUnits="userSpaceOnUse" x1="99.429" y1="157.335" x2="111.755" y2="157.335"><stop offset="0" style="stop-color:#f464cf"/><stop offset=".4" style="stop-color:#fff"/><stop offset=".514" style="stop-color:#f464cf"/><stop offset=".818" style="stop-color:#f47bd6"/><stop offset="1" style="stop-color:#f464cf"/></linearGradient><path style="fill:url(#SVGID_00000049910041228492923960000009925473840612789412_)" d="M99.4 151.2h12.3v12.2H99.4z"/><linearGradient id="SVGID_00000063606365899397904110000002266646729831208620_" gradientUnits="userSpaceOnUse" x1="86.996" y1="157.335" x2="96.512" y2="157.335"><stop offset="0" style="stop-color:#f464cf"/><stop offset=".4" style="stop-color:#fff"/><stop offset=".514" style="stop-color:#f464cf"/><stop offset=".818" style="stop-color:#f47bd6"/><stop offset="1" style="stop-color:#f464cf"/></linearGradient><path style="fill:url(#SVGID_00000063606365899397904110000002266646729831208620_)" d="M87 151.2h9.5v12.2H87z"/><linearGradient id="SVGID_00000169554257181906268980000000470863605602333622_" gradientUnits="userSpaceOnUse" x1="78.778" y1="157.335" x2="83.537" y2="157.335"><stop offset="0" style="stop-color:#f464cf"/><stop offset=".4" style="stop-color:#fff"/><stop offset=".514" style="stop-color:#f464cf"/><stop offset=".818" style="stop-color:#f47bd6"/><stop offset="1" style="stop-color:#f464cf"/></linearGradient><path style="fill:url(#SVGID_00000169554257181906268980000000470863605602333622_)" d="M78.8 151.2h4.8v12.2h-4.8z"/><linearGradient id="SVGID_00000094596692246545627660000001043497822857352853_" gradientUnits="userSpaceOnUse" x1="72.259" y1="157.335" x2="74.638" y2="157.335"><stop offset="0" style="stop-color:#f464cf"/><stop offset=".4" style="stop-color:#fff"/><stop offset=".514" style="stop-color:#f464cf"/><stop offset=".818" style="stop-color:#f47bd6"/><stop offset="1" style="stop-color:#f464cf"/></linearGradient><path style="fill:url(#SVGID_00000094596692246545627660000001043497822857352853_)" d="M72.3 151.2h2.4v12.2h-2.4z"/><linearGradient id="SVGID_00000017493159043535012960000017991535814246787223_" gradientUnits="userSpaceOnUse" x1="67.378" y1="157.335" x2="69.158" y2="157.335"><stop offset="0" style="stop-color:#f464cf"/><stop offset=".4" style="stop-color:#fff"/><stop offset=".514" style="stop-color:#f464cf"/><stop offset=".818" style="stop-color:#f47bd6"/><stop offset="1" style="stop-color:#f464cf"/></linearGradient><path style="fill:url(#SVGID_00000017493159043535012960000017991535814246787223_)" d="M67.4 151.2h1.8v12.2h-1.8z"/></g></svg>