<?xml version="1.0" standalone="no"?>
<!DOCTYPE svg PUBLIC "-//W3C//DTD SVG 20010904//EN"
 "http://www.w3.org/TR/2001/REC-SVG-20010904/DTD/svg10.dtd">
<svg version="1.0" xmlns="http://www.w3.org/2000/svg"
 width="700.000000pt" height="700.000000pt" viewBox="0 0 700.000000 700.000000"
 preserveAspectRatio="xMidYMid meet">
<metadata>
Created by potrace 1.14, written by Peter Selinger 2001-2017
</metadata>
<g transform="translate(0.000000,700.000000) scale(0.100000,-0.100000)"
fill="#000000" stroke="none">
<path d="M3391 6738 c-30 -31 -34 -56 -22 -124 16 -87 65 -180 189 -359 251
-363 289 -431 327 -575 27 -103 17 -244 -24 -340 -41 -100 -145 -235 -251
-328 -142 -125 -151 -134 -148 -151 6 -28 49 -13 127 47 107 81 218 195 278
284 135 202 146 389 36 615 -24 48 -43 75 -58 80 -36 12 -343 453 -396 569
-39 86 -55 178 -41 245 5 30 9 55 7 57 -2 2 -13 -7 -24 -20z"/>
<path d="M3089 6129 c-6 -12 -8 -35 -5 -53 8 -42 93 -183 195 -326 123 -171
135 -198 136 -300 0 -76 -3 -92 -32 -150 -18 -37 -64 -100 -108 -148 -41 -45
-75 -89 -75 -97 0 -29 36 -15 97 38 73 62 130 131 169 207 25 48 29 66 29 141
0 77 -3 92 -32 147 -17 34 -73 120 -125 191 -76 107 -98 130 -118 131 -27 0
-37 13 -77 91 -15 31 -23 64 -23 98 0 54 -12 65 -31 30z"/>
<path d="M1768 4670 c-114 -14 -191 -68 -235 -166 -17 -36 -18 -99 -21 -889
-2 -541 1 -902 8 -993 23 -311 106 -571 270 -842 95 -159 162 -243 299 -380
156 -155 273 -239 466 -335 218 -107 435 -173 685 -206 150 -20 432 -15 572
10 365 65 724 253 1012 531 210 203 350 414 449 680 46 123 65 196 92 355 l22
129 109 18 c231 38 417 128 580 281 124 116 234 285 234 362 0 22 11 84 25
138 31 123 48 354 43 583 -3 152 -5 174 -26 216 -26 53 -77 97 -149 131 -46
21 -60 22 -403 25 -195 1 -365 4 -376 7 -18 4 -22 15 -28 67 -15 140 -70 225
-172 264 -47 18 -102 19 -1719 20 -918 1 -1700 -2 -1737 -6z m1875 -1017 c-73
-357 -133 -655 -133 -664 0 -13 48 -26 241 -65 132 -27 245 -52 251 -55 6 -4
-174 -342 -441 -825 -248 -450 -451 -814 -451 -809 0 6 60 279 134 607 114
512 130 598 117 602 -9 3 -122 26 -251 52 -129 26 -237 49 -239 50 -2 2 193
385 434 851 241 466 444 860 452 876 7 15 15 27 16 27 2 0 -57 -291 -130 -647z
m2375 335 c16 -16 16 -308 1 -433 -13 -107 -53 -233 -100 -312 -54 -91 -170
-202 -264 -250 -74 -38 -161 -71 -227 -87 l-28 -6 0 539 c0 504 1 541 18 550
26 16 585 14 600 -1z m-3323 -438 l60 -60 -363 -363 -362 -362 362 -362 363
-363 -60 -60 -60 -60 -422 423 -422 422 416 423 c228 232 418 422 422 422 4 0
33 -27 66 -60z m1903 -1207 l-423 -423 -60 60 -60 60 358 358 c196 196 357
362 357 367 0 5 -161 171 -357 367 l-358 358 60 60 60 60 422 -422 423 -423
-422 -422z"/>
</g>
</svg>
